<?xml version="1.0" encoding="utf-8"?>
<!-- Generator: Adobe Illustrator 16.0.0, SVG Export Plug-In . SVG Version: 6.00 Build 0)  -->
<!DOCTYPE svg PUBLIC "-//W3C//DTD SVG 1.1 Basic//EN" "http://www.w3.org/Graphics/SVG/1.1/DTD/svg11-basic.dtd">
<svg version="1.1" baseProfile="basic" id="Layer_1"
	 xmlns="http://www.w3.org/2000/svg" xmlns:xlink="http://www.w3.org/1999/xlink" x="0px" y="0px" width="400px" height="364.9px"
	 viewBox="0 0 400 364.9" xml:space="preserve">
<g>
	<line fill="none" stroke="#000000" stroke-width="4" stroke-miterlimit="10" x1="7" y1="178" x2="331" y2="178"/>
	<g>
		<polygon points="319.71,193.28 326,178.46 319.71,163.65 354.83,178.46 		"/>
	</g>
</g>
<g>
	<line fill="#FFFFFF" x1="181" y1="6" x2="181" y2="354"/>
	<g>
		<line fill="none" stroke="#FFFFFF" stroke-width="4" stroke-miterlimit="10" x1="181" y1="6" x2="181" y2="330"/>
		<g>
			<polygon fill="#FFFFFF" points="166.1,318.71 180.91,325 195.73,318.71 180.91,353.83 			"/>
		</g>
	</g>
</g>
<g>
	<path d="M235.64,216.79c0.1,0.38,0.2,0.76,0.29,1.15c0.17-0.39,0.35-0.77,0.54-1.15c0.2-0.38,0.4-0.74,0.63-1.11l10.48-17.24
		c0.13-0.21,0.25-0.37,0.39-0.49c0.13-0.12,0.27-0.21,0.42-0.26c0.15-0.06,0.31-0.09,0.49-0.1s0.39-0.02,0.63-0.02h4.11l-3.71,30.18
		h-4.76l2.42-19.66c0.04-0.36,0.1-0.76,0.19-1.19c0.08-0.43,0.17-0.87,0.27-1.31l-10.37,17.24c-0.24,0.39-0.53,0.68-0.89,0.88
		c-0.36,0.2-0.74,0.29-1.16,0.29h-0.75c-0.42,0-0.78-0.1-1.1-0.29c-0.31-0.19-0.54-0.49-0.68-0.88l-6.22-17.18
		c-0.01,0.43-0.03,0.85-0.05,1.25s-0.05,0.77-0.09,1.11l-2.38,19.74h-4.78l3.71-30.18h4.07c0.24,0,0.45,0.01,0.63,0.02
		s0.34,0.05,0.48,0.1c0.14,0.06,0.26,0.14,0.35,0.26s0.19,0.28,0.27,0.49l6.24,17.24C235.43,216.04,235.54,216.41,235.64,216.79z"/>
	<path d="M271.78,227.75h-2.71c-0.63,0-1.06-0.15-1.32-0.44c-0.25-0.29-0.38-0.66-0.38-1.11l0.17-2.92
		c-0.95,1.47-2.01,2.64-3.19,3.5s-2.48,1.28-3.9,1.28c-0.81,0-1.56-0.16-2.26-0.48c-0.7-0.32-1.31-0.8-1.84-1.43
		c-0.52-0.63-0.93-1.43-1.23-2.38c-0.3-0.95-0.45-2.07-0.45-3.35s0.16-2.53,0.48-3.74c0.32-1.21,0.78-2.35,1.37-3.41
		c0.59-1.06,1.3-2.04,2.14-2.93c0.83-0.89,1.77-1.66,2.81-2.3c1.04-0.64,2.16-1.14,3.36-1.49c1.2-0.35,2.47-0.53,3.81-0.53
		c0.96,0,1.92,0.07,2.89,0.21c0.97,0.14,1.92,0.39,2.85,0.75L271.78,227.75z M262.48,223.84c0.57,0,1.13-0.2,1.68-0.58
		c0.55-0.39,1.07-0.93,1.55-1.62s0.94-1.5,1.36-2.43c0.42-0.93,0.78-1.93,1.08-3.01l0.81-6.47c-0.38-0.04-0.72-0.06-1.04-0.06
		c-1.15,0-2.23,0.26-3.21,0.79c-0.99,0.53-1.84,1.24-2.57,2.14c-0.72,0.9-1.29,1.94-1.7,3.13s-0.62,2.45-0.62,3.77
		c0,1.5,0.24,2.6,0.71,3.3C261.01,223.5,261.66,223.84,262.48,223.84z"/>
	<path d="M284.68,206.33l-2.57,21.41h-5.09l2.57-21.41H284.68z M285.97,200.09c0,0.45-0.09,0.86-0.28,1.25
		c-0.19,0.39-0.43,0.73-0.73,1.02c-0.3,0.29-0.64,0.53-1.03,0.7s-0.79,0.26-1.21,0.26c-0.4,0-0.8-0.09-1.18-0.26
		s-0.72-0.41-1.01-0.7c-0.29-0.29-0.53-0.63-0.7-1.02c-0.17-0.39-0.26-0.81-0.26-1.25s0.09-0.87,0.27-1.27
		c0.18-0.4,0.42-0.75,0.71-1.05c0.29-0.3,0.63-0.54,1.01-0.71s0.78-0.26,1.18-0.26c0.42,0,0.82,0.09,1.21,0.26s0.73,0.41,1.03,0.7
		c0.3,0.29,0.54,0.64,0.72,1.04S285.97,199.63,285.97,200.09z"/>
	<path d="M287.31,227.75l2.57-21.43h2.63c0.54,0,0.96,0.13,1.26,0.4c0.3,0.26,0.45,0.69,0.45,1.27l-0.15,2.78
		c1.09-1.6,2.29-2.79,3.61-3.58c1.32-0.79,2.69-1.18,4.09-1.18c0.79,0,1.51,0.14,2.16,0.43c0.65,0.29,1.2,0.7,1.66,1.25
		c0.46,0.55,0.81,1.22,1.06,2.02c0.25,0.8,0.38,1.72,0.38,2.77c0,0.26-0.01,0.53-0.03,0.8c-0.02,0.27-0.04,0.55-0.07,0.84
		l-1.61,13.63h-5.16c0.28-2.35,0.51-4.34,0.71-5.98c0.19-1.63,0.35-2.99,0.48-4.08c0.13-1.08,0.22-1.94,0.29-2.56
		c0.07-0.62,0.12-1.09,0.16-1.41c0.03-0.32,0.06-0.53,0.06-0.64s0.01-0.19,0.01-0.26c0-0.92-0.17-1.58-0.5-1.99
		c-0.33-0.41-0.86-0.62-1.57-0.62c-0.57,0-1.16,0.17-1.77,0.5c-0.61,0.33-1.2,0.81-1.75,1.42c-0.56,0.61-1.06,1.35-1.52,2.21
		c-0.46,0.86-0.83,1.82-1.13,2.88l-1.17,10.52H287.31z"/>
	<path d="M342.57,227.75h-4.19c-0.47,0-0.85-0.11-1.13-0.33s-0.45-0.52-0.52-0.9l-1.25-6.3h-11.25l-2.8,6.3
		c-0.15,0.32-0.4,0.61-0.75,0.86c-0.35,0.25-0.74,0.38-1.17,0.38h-4.26l14.59-30.18h5.53L342.57,227.75z M325.92,216.39h8.79
		l-2.05-10.33c-0.11-0.5-0.22-1.03-0.33-1.59s-0.22-1.18-0.31-1.88c-0.26,0.7-0.53,1.34-0.78,1.93c-0.26,0.59-0.5,1.11-0.72,1.56
		L325.92,216.39z"/>
	<path d="M350.9,216.16l-4.97-9.83h4.67c0.35,0,0.6,0.05,0.75,0.15c0.15,0.1,0.29,0.26,0.4,0.5l2.94,6.39
		c0.08-0.17,0.17-0.34,0.27-0.51c0.1-0.17,0.21-0.35,0.33-0.53l3.76-5.26c0.17-0.24,0.34-0.42,0.52-0.54
		c0.18-0.13,0.39-0.19,0.63-0.19h4.67l-7.53,9.85l5.51,11.56h-4.7c-0.35,0-0.62-0.09-0.83-0.28c-0.2-0.19-0.36-0.41-0.47-0.66
		l-3.28-7.51c-0.07,0.15-0.15,0.31-0.23,0.46c-0.08,0.15-0.17,0.29-0.25,0.42l-4.76,6.64c-0.18,0.24-0.38,0.45-0.61,0.65
		c-0.22,0.19-0.49,0.29-0.81,0.29h-4.53L350.9,216.16z"/>
	<path d="M373.73,206.33l-2.57,21.41h-5.09l2.57-21.41H373.73z M375.02,200.09c0,0.45-0.09,0.86-0.28,1.25
		c-0.19,0.39-0.43,0.73-0.73,1.02c-0.3,0.29-0.64,0.53-1.03,0.7s-0.79,0.26-1.21,0.26c-0.4,0-0.8-0.09-1.18-0.26
		s-0.72-0.41-1.01-0.7c-0.29-0.29-0.53-0.63-0.7-1.02c-0.17-0.39-0.26-0.81-0.26-1.25s0.09-0.87,0.27-1.27
		c0.18-0.4,0.42-0.75,0.71-1.05c0.29-0.3,0.63-0.54,1.01-0.71s0.78-0.26,1.18-0.26c0.42,0,0.82,0.09,1.21,0.26s0.73,0.41,1.03,0.7
		c0.3,0.29,0.54,0.64,0.72,1.04S375.02,199.63,375.02,200.09z"/>
	<path d="M390.57,210.36c-0.15,0.22-0.3,0.38-0.44,0.47c-0.14,0.09-0.32,0.14-0.54,0.14c-0.24,0-0.48-0.07-0.73-0.21
		c-0.25-0.14-0.54-0.3-0.87-0.47s-0.7-0.33-1.13-0.47s-0.94-0.21-1.53-0.21c-1.1,0-1.94,0.25-2.53,0.74
		c-0.58,0.49-0.88,1.11-0.88,1.85c0,0.43,0.12,0.8,0.37,1.1c0.24,0.3,0.56,0.56,0.95,0.78c0.39,0.22,0.83,0.43,1.34,0.62
		s1.02,0.39,1.54,0.61c0.53,0.22,1.04,0.46,1.54,0.73c0.5,0.27,0.95,0.6,1.34,0.99c0.39,0.39,0.71,0.86,0.95,1.41
		s0.37,1.21,0.37,1.97c0,1.03-0.21,2.01-0.62,2.94c-0.41,0.93-1,1.75-1.76,2.45c-0.77,0.7-1.69,1.26-2.78,1.67
		c-1.09,0.41-2.3,0.62-3.63,0.62c-0.68,0-1.34-0.07-1.97-0.2c-0.63-0.13-1.23-0.32-1.79-0.55s-1.06-0.51-1.51-0.83
		s-0.84-0.67-1.16-1.04l1.25-1.96c0.15-0.24,0.34-0.42,0.55-0.54c0.21-0.13,0.47-0.19,0.76-0.19c0.29,0,0.56,0.09,0.79,0.27
		c0.24,0.18,0.51,0.38,0.83,0.59c0.32,0.22,0.71,0.41,1.16,0.59c0.45,0.18,1.03,0.27,1.74,0.27c0.57,0,1.08-0.08,1.51-0.23
		c0.44-0.15,0.81-0.36,1.11-0.63c0.3-0.26,0.53-0.57,0.68-0.92c0.15-0.35,0.23-0.72,0.23-1.11c0-0.47-0.12-0.87-0.36-1.18
		c-0.24-0.31-0.55-0.58-0.95-0.81s-0.85-0.43-1.35-0.6c-0.5-0.17-1.01-0.36-1.53-0.55c-0.52-0.19-1.03-0.42-1.52-0.67
		c-0.49-0.25-0.94-0.57-1.34-0.95s-0.71-0.85-0.95-1.4c-0.24-0.55-0.36-1.22-0.36-2.01c0-0.95,0.18-1.87,0.54-2.77
		c0.36-0.9,0.89-1.69,1.6-2.38c0.7-0.69,1.57-1.24,2.59-1.66c1.02-0.42,2.19-0.63,3.52-0.63c1.36,0,2.57,0.23,3.62,0.7
		c1.05,0.47,1.94,1.06,2.66,1.78L390.57,210.36z"/>
</g>
<g>
	<path fill="#FFFFFF" d="M212.84,346.46c0.85,0,1.59-0.07,2.22-0.2c0.63-0.13,1.18-0.3,1.65-0.51c0.46-0.21,0.87-0.43,1.2-0.66
		s0.63-0.45,0.88-0.66c0.25-0.21,0.47-0.38,0.67-0.51c0.2-0.13,0.39-0.2,0.58-0.2c0.17,0,0.31,0.04,0.42,0.1s0.2,0.14,0.27,0.21
		l1.9,2.36c-1.31,1.5-2.85,2.65-4.61,3.45c-1.77,0.8-3.8,1.2-6.09,1.2c-1.85,0-3.5-0.33-4.95-0.99c-1.45-0.66-2.67-1.58-3.67-2.74
		c-1-1.17-1.76-2.55-2.29-4.15c-0.52-1.6-0.78-3.35-0.78-5.24c0-1.74,0.19-3.38,0.56-4.94s0.91-2.98,1.61-4.3
		c0.7-1.32,1.53-2.49,2.5-3.54c0.97-1.04,2.05-1.93,3.24-2.67c1.18-0.74,2.46-1.3,3.83-1.69c1.37-0.39,2.8-0.58,4.29-0.58
		c1.1,0,2.1,0.1,3.01,0.3c0.9,0.2,1.72,0.48,2.46,0.85c0.74,0.36,1.4,0.8,1.98,1.3s1.11,1.07,1.59,1.7l-1.88,2.25
		c-0.14,0.17-0.3,0.31-0.49,0.44s-0.42,0.19-0.7,0.19c-0.31,0-0.6-0.13-0.88-0.38c-0.28-0.25-0.63-0.53-1.05-0.82
		c-0.43-0.3-0.97-0.57-1.65-0.83c-0.68-0.25-1.56-0.38-2.66-0.38c-1.45,0-2.79,0.3-4.03,0.89c-1.24,0.59-2.32,1.44-3.23,2.54
		c-0.92,1.1-1.64,2.42-2.16,3.98c-0.52,1.55-0.78,3.29-0.78,5.23c0,1.41,0.18,2.66,0.53,3.78c0.35,1.11,0.84,2.06,1.47,2.83
		c0.63,0.77,1.37,1.36,2.23,1.77C210.88,346.26,211.82,346.46,212.84,346.46z"/>
	<path fill="#FFFFFF" d="M224.96,350.72l2.61-21.43h2.61c0.5,0,0.91,0.11,1.23,0.33c0.32,0.22,0.48,0.58,0.48,1.06
		c0,0.1-0.01,0.26-0.02,0.5c-0.01,0.24-0.03,0.61-0.04,1.12s-0.04,1.22-0.08,2.14c0.88-1.68,1.84-2.98,2.88-3.9
		c1.04-0.92,2.13-1.38,3.26-1.38c0.57,0,1.15,0.13,1.73,0.38l-0.94,4.92c-0.7-0.29-1.36-0.44-1.98-0.44c-1.24,0-2.32,0.59-3.25,1.77
		c-0.93,1.18-1.7,3.03-2.3,5.55l-1.13,9.37H224.96z"/>
	<path fill="#FFFFFF" d="M247.36,351.03c-1.18,0-2.28-0.2-3.29-0.59c-1.01-0.4-1.88-0.98-2.61-1.74c-0.73-0.76-1.3-1.7-1.72-2.82
		s-0.63-2.39-0.63-3.82c0-1.85,0.29-3.58,0.89-5.18c0.59-1.6,1.4-2.98,2.42-4.15c1.02-1.17,2.22-2.09,3.58-2.75s2.82-1,4.36-1
		c1.18,0,2.28,0.2,3.29,0.59s1.88,0.98,2.62,1.74c0.74,0.76,1.32,1.7,1.73,2.82c0.42,1.11,0.63,2.39,0.63,3.82
		c0,1.84-0.3,3.55-0.9,5.14c-0.6,1.59-1.41,2.98-2.43,4.15c-1.02,1.18-2.22,2.1-3.58,2.78C250.35,350.69,248.9,351.03,247.36,351.03
		z M247.81,347.07c0.86,0,1.64-0.25,2.34-0.74c0.7-0.49,1.29-1.16,1.78-1.98c0.49-0.83,0.87-1.79,1.14-2.89
		c0.26-1.1,0.4-2.25,0.4-3.46c0-1.74-0.3-3.02-0.89-3.84c-0.59-0.82-1.48-1.23-2.68-1.23c-0.86,0-1.64,0.24-2.34,0.73
		c-0.7,0.49-1.29,1.15-1.77,1.98c-0.49,0.83-0.86,1.8-1.13,2.9c-0.26,1.1-0.4,2.26-0.4,3.49c0,1.74,0.29,3.02,0.88,3.83
		S246.62,347.07,247.81,347.07z"/>
	<path fill="#FFFFFF" d="M274.8,333.33c-0.15,0.22-0.3,0.38-0.44,0.47c-0.14,0.09-0.32,0.14-0.54,0.14c-0.24,0-0.48-0.07-0.73-0.21
		c-0.25-0.14-0.54-0.3-0.87-0.47s-0.7-0.33-1.13-0.47s-0.94-0.21-1.53-0.21c-1.1,0-1.94,0.25-2.53,0.74
		c-0.58,0.49-0.88,1.11-0.88,1.85c0,0.43,0.12,0.8,0.37,1.1c0.24,0.3,0.56,0.56,0.95,0.78c0.39,0.22,0.83,0.43,1.34,0.62
		s1.02,0.39,1.54,0.61c0.53,0.22,1.04,0.46,1.54,0.73c0.5,0.27,0.95,0.6,1.34,0.99c0.39,0.39,0.71,0.86,0.95,1.41
		s0.37,1.21,0.37,1.97c0,1.03-0.21,2.01-0.62,2.94c-0.41,0.93-1,1.75-1.76,2.45c-0.77,0.7-1.69,1.26-2.78,1.67
		c-1.09,0.41-2.3,0.62-3.63,0.62c-0.68,0-1.34-0.07-1.97-0.2c-0.63-0.13-1.23-0.32-1.79-0.55s-1.06-0.51-1.51-0.83
		s-0.84-0.67-1.16-1.04l1.25-1.96c0.15-0.24,0.34-0.42,0.55-0.54c0.21-0.13,0.47-0.19,0.76-0.19c0.29,0,0.56,0.09,0.79,0.27
		c0.24,0.18,0.51,0.38,0.83,0.59c0.32,0.22,0.71,0.41,1.16,0.59c0.45,0.18,1.03,0.27,1.74,0.27c0.57,0,1.08-0.08,1.51-0.23
		c0.44-0.15,0.81-0.36,1.11-0.63c0.3-0.26,0.53-0.57,0.68-0.92c0.15-0.35,0.23-0.72,0.23-1.11c0-0.47-0.12-0.87-0.36-1.18
		c-0.24-0.31-0.55-0.58-0.95-0.81s-0.85-0.43-1.35-0.6c-0.5-0.17-1.01-0.36-1.53-0.55c-0.52-0.19-1.03-0.42-1.52-0.67
		c-0.49-0.25-0.94-0.57-1.34-0.95s-0.71-0.85-0.95-1.4c-0.24-0.55-0.36-1.22-0.36-2.01c0-0.95,0.18-1.87,0.54-2.77
		c0.36-0.9,0.89-1.69,1.6-2.38c0.7-0.69,1.57-1.24,2.59-1.66c1.02-0.42,2.19-0.63,3.52-0.63c1.36,0,2.57,0.23,3.62,0.7
		c1.05,0.47,1.94,1.06,2.66,1.78L274.8,333.33z"/>
	<path fill="#FFFFFF" d="M291.18,333.33c-0.15,0.22-0.3,0.38-0.44,0.47c-0.14,0.09-0.32,0.14-0.54,0.14c-0.24,0-0.48-0.07-0.73-0.21
		c-0.25-0.14-0.54-0.3-0.87-0.47s-0.7-0.33-1.13-0.47s-0.94-0.21-1.53-0.21c-1.1,0-1.94,0.25-2.53,0.74
		c-0.58,0.49-0.88,1.11-0.88,1.85c0,0.43,0.12,0.8,0.37,1.1c0.24,0.3,0.56,0.56,0.95,0.78c0.39,0.22,0.83,0.43,1.34,0.62
		s1.02,0.39,1.54,0.61c0.53,0.22,1.04,0.46,1.54,0.73c0.5,0.27,0.95,0.6,1.34,0.99c0.39,0.39,0.71,0.86,0.95,1.41
		s0.37,1.21,0.37,1.97c0,1.03-0.21,2.01-0.62,2.94c-0.41,0.93-1,1.75-1.76,2.45c-0.77,0.7-1.69,1.26-2.78,1.67
		c-1.09,0.41-2.3,0.62-3.63,0.62c-0.68,0-1.34-0.07-1.97-0.2c-0.63-0.13-1.23-0.32-1.79-0.55s-1.06-0.51-1.51-0.83
		s-0.84-0.67-1.16-1.04l1.25-1.96c0.15-0.24,0.34-0.42,0.55-0.54c0.21-0.13,0.47-0.19,0.76-0.19c0.29,0,0.56,0.09,0.79,0.27
		c0.24,0.18,0.51,0.38,0.83,0.59c0.32,0.22,0.71,0.41,1.16,0.59c0.45,0.18,1.03,0.27,1.74,0.27c0.57,0,1.08-0.08,1.51-0.23
		c0.44-0.15,0.81-0.36,1.11-0.63c0.3-0.26,0.53-0.57,0.68-0.92c0.15-0.35,0.23-0.72,0.23-1.11c0-0.47-0.12-0.87-0.36-1.18
		c-0.24-0.31-0.55-0.58-0.95-0.81s-0.85-0.43-1.35-0.6c-0.5-0.17-1.01-0.36-1.53-0.55c-0.52-0.19-1.03-0.42-1.52-0.67
		c-0.49-0.25-0.94-0.57-1.34-0.95s-0.71-0.85-0.95-1.4c-0.24-0.55-0.36-1.22-0.36-2.01c0-0.95,0.18-1.87,0.54-2.77
		c0.36-0.9,0.89-1.69,1.6-2.38c0.7-0.69,1.57-1.24,2.59-1.66c1.02-0.42,2.19-0.63,3.52-0.63c1.36,0,2.57,0.23,3.62,0.7
		c1.05,0.47,1.94,1.06,2.66,1.78L291.18,333.33z"/>
	<path fill="#FFFFFF" d="M326.14,350.72h-4.19c-0.47,0-0.85-0.11-1.13-0.33s-0.45-0.52-0.52-0.9l-1.25-6.3h-11.25l-2.8,6.3
		c-0.15,0.32-0.4,0.61-0.75,0.86c-0.35,0.25-0.74,0.38-1.17,0.38h-4.26l14.59-30.18h5.53L326.14,350.72z M309.48,339.37h8.79
		l-2.05-10.33c-0.11-0.5-0.22-1.03-0.33-1.59s-0.22-1.18-0.31-1.88c-0.26,0.7-0.53,1.34-0.78,1.93c-0.26,0.59-0.5,1.11-0.72,1.56
		L309.48,339.37z"/>
	<path fill="#FFFFFF" d="M334.46,339.14l-4.97-9.83h4.67c0.35,0,0.6,0.05,0.75,0.15c0.15,0.1,0.29,0.26,0.4,0.5l2.94,6.39
		c0.08-0.17,0.17-0.34,0.27-0.51c0.1-0.17,0.21-0.35,0.33-0.53l3.76-5.26c0.17-0.24,0.34-0.42,0.52-0.54
		c0.18-0.13,0.39-0.19,0.63-0.19h4.67l-7.53,9.85l5.51,11.56h-4.7c-0.35,0-0.62-0.09-0.83-0.28c-0.2-0.19-0.36-0.41-0.47-0.66
		l-3.28-7.51c-0.07,0.15-0.15,0.31-0.23,0.46c-0.08,0.15-0.17,0.29-0.25,0.42l-4.76,6.64c-0.18,0.24-0.38,0.45-0.61,0.65
		c-0.22,0.19-0.49,0.29-0.81,0.29h-4.53L334.46,339.14z"/>
	<path fill="#FFFFFF" d="M357.29,329.31l-2.57,21.41h-5.09l2.57-21.41H357.29z M358.59,323.07c0,0.45-0.09,0.86-0.28,1.25
		c-0.19,0.39-0.43,0.73-0.73,1.02c-0.3,0.29-0.64,0.53-1.03,0.7s-0.79,0.26-1.21,0.26c-0.4,0-0.8-0.09-1.18-0.26
		s-0.72-0.41-1.01-0.7c-0.29-0.29-0.53-0.63-0.7-1.02c-0.17-0.39-0.26-0.81-0.26-1.25s0.09-0.87,0.27-1.27s0.42-0.75,0.71-1.05
		c0.29-0.3,0.63-0.54,1.01-0.71s0.78-0.26,1.18-0.26c0.42,0,0.82,0.09,1.21,0.26s0.73,0.41,1.03,0.7s0.54,0.64,0.72,1.04
		C358.5,322.18,358.59,322.61,358.59,323.07z"/>
	<path fill="#FFFFFF" d="M374.13,333.33c-0.15,0.22-0.3,0.38-0.44,0.47c-0.14,0.09-0.32,0.14-0.54,0.14c-0.24,0-0.48-0.07-0.73-0.21
		c-0.25-0.14-0.54-0.3-0.87-0.47s-0.7-0.33-1.13-0.47s-0.94-0.21-1.53-0.21c-1.1,0-1.94,0.25-2.53,0.74
		c-0.58,0.49-0.88,1.11-0.88,1.85c0,0.43,0.12,0.8,0.37,1.1c0.24,0.3,0.56,0.56,0.95,0.78c0.39,0.22,0.83,0.43,1.34,0.62
		s1.02,0.39,1.54,0.61c0.53,0.22,1.04,0.46,1.54,0.73c0.5,0.27,0.95,0.6,1.34,0.99c0.39,0.39,0.71,0.86,0.95,1.41
		s0.37,1.21,0.37,1.97c0,1.03-0.21,2.01-0.62,2.94c-0.41,0.93-1,1.75-1.76,2.45c-0.77,0.7-1.69,1.26-2.78,1.67
		c-1.09,0.41-2.3,0.62-3.63,0.62c-0.68,0-1.34-0.07-1.97-0.2c-0.63-0.13-1.23-0.32-1.79-0.55s-1.06-0.51-1.51-0.83
		s-0.84-0.67-1.16-1.04l1.25-1.96c0.15-0.24,0.34-0.42,0.55-0.54c0.21-0.13,0.47-0.19,0.76-0.19c0.29,0,0.56,0.09,0.79,0.27
		c0.24,0.18,0.51,0.38,0.83,0.59c0.32,0.22,0.71,0.41,1.16,0.59c0.45,0.18,1.03,0.27,1.74,0.27c0.57,0,1.08-0.08,1.51-0.23
		c0.44-0.15,0.81-0.36,1.11-0.63c0.3-0.26,0.53-0.57,0.68-0.92c0.15-0.35,0.23-0.72,0.23-1.11c0-0.47-0.12-0.87-0.36-1.18
		c-0.24-0.31-0.55-0.58-0.95-0.81s-0.85-0.43-1.35-0.6c-0.5-0.17-1.01-0.36-1.53-0.55c-0.52-0.19-1.03-0.42-1.52-0.67
		c-0.49-0.25-0.94-0.57-1.34-0.95s-0.71-0.85-0.95-1.4c-0.24-0.55-0.36-1.22-0.36-2.01c0-0.95,0.18-1.87,0.54-2.77
		c0.36-0.9,0.89-1.69,1.6-2.38c0.7-0.69,1.57-1.24,2.59-1.66c1.02-0.42,2.19-0.63,3.52-0.63c1.36,0,2.57,0.23,3.62,0.7
		c1.05,0.47,1.94,1.06,2.66,1.78L374.13,333.33z"/>
</g>
<g>
</g>
<g>
</g>
<g>
</g>
<g>
</g>
<g>
</g>
<g>
</g>
<g>
</g>
<g>
</g>
<g>
</g>
<g>
</g>
<g>
</g>
<g>
</g>
<g>
</g>
<g>
</g>
<g>
</g>
<g>
</g>
</svg>
