<?xml version="1.0" encoding="utf-8"?>
<!-- Generator: Adobe Illustrator 16.0.0, SVG Export Plug-In . SVG Version: 6.00 Build 0)  -->
<!DOCTYPE svg PUBLIC "-//W3C//DTD SVG 1.1//EN" "http://www.w3.org/Graphics/SVG/1.1/DTD/svg11.dtd">
<svg version="1.1" xmlns="http://www.w3.org/2000/svg" xmlns:xlink="http://www.w3.org/1999/xlink" x="0px" y="0px" width="520px"
	 height="545px" viewBox="0 0 520 545" enable-background="new 0 0 520 545" xml:space="preserve">
<g id="Layer_1">
	<g id="Layer_7" display="none">
		<rect display="inline" fill="#0071BC" width="520" height="540"/>
	</g>
	<g id="Col" display="none">
		<g display="inline">
			<path d="M205.24,529.56c0.85,0,1.6-0.069,2.24-0.199s1.19-0.301,1.66-0.511c0.47-0.21,0.87-0.43,1.21-0.659
				c0.34-0.23,0.63-0.45,0.88-0.66s0.48-0.38,0.67-0.511c0.2-0.13,0.39-0.199,0.59-0.199c0.17,0,0.31,0.04,0.42,0.109
				c0.11,0.07,0.2,0.141,0.27,0.21l1.91,2.37c-1.32,1.51-2.86,2.67-4.64,3.48c-1.78,0.8-3.82,1.21-6.13,1.21
				c-1.86,0-3.52-0.33-4.98-1s-2.69-1.59-3.7-2.76c-1.01-1.181-1.77-2.57-2.3-4.181c-0.52-1.609-0.79-3.37-0.79-5.27
				c0-1.75,0.19-3.41,0.57-4.971c0.38-1.56,0.92-3,1.62-4.329c0.7-1.32,1.54-2.511,2.52-3.561s2.07-1.95,3.26-2.689
				c1.19-0.74,2.48-1.311,3.85-1.7c1.38-0.391,2.82-0.59,4.31-0.59c1.11,0,2.12,0.1,3.03,0.3s1.73,0.49,2.48,0.85
				c0.75,0.36,1.41,0.8,2,1.311c0.59,0.51,1.12,1.08,1.6,1.71l-1.89,2.27c-0.14,0.17-0.3,0.311-0.49,0.44s-0.42,0.189-0.7,0.189
				c-0.31,0-0.6-0.13-0.88-0.38c-0.28-0.25-0.63-0.53-1.06-0.83s-0.98-0.58-1.66-0.83c-0.68-0.25-1.57-0.38-2.68-0.38
				c-1.46,0-2.81,0.3-4.05,0.891c-1.25,0.59-2.33,1.449-3.26,2.55c-0.92,1.109-1.65,2.439-2.17,4c-0.53,1.56-0.79,3.31-0.79,5.26
				c0,1.41,0.18,2.68,0.54,3.8c0.36,1.12,0.85,2.07,1.48,2.851c0.63,0.779,1.38,1.369,2.25,1.789
				C203.27,529.35,204.22,529.56,205.24,529.56z"/>
			<path d="M217.44,533.84l2.63-21.57h2.63c0.5,0,0.92,0.11,1.24,0.341c0.32,0.22,0.48,0.58,0.48,1.069c0,0.101-0.01,0.271-0.02,0.5
				c-0.01,0.24-0.03,0.61-0.04,1.12c-0.01,0.511-0.04,1.23-0.08,2.15c0.88-1.69,1.85-3,2.9-3.93c1.05-0.921,2.14-1.391,3.28-1.391
				c0.57,0,1.15,0.13,1.74,0.38l-0.95,4.96c-0.7-0.29-1.36-0.439-1.99-0.439c-1.25,0-2.34,0.59-3.28,1.79
				c-0.94,1.189-1.71,3.05-2.31,5.59l-1.13,9.43H217.44L217.44,533.84z"/>
			<path d="M239.97,534.16c-1.19,0-2.29-0.2-3.31-0.601c-1.02-0.399-1.89-0.979-2.63-1.75c-0.73-0.77-1.31-1.71-1.73-2.829
				c-0.42-1.12-0.63-2.4-0.63-3.841c0-1.859,0.3-3.6,0.89-5.21c0.59-1.609,1.41-3,2.44-4.18s2.23-2.1,3.6-2.771
				c1.37-0.67,2.83-1.01,4.39-1.01c1.19,0,2.29,0.2,3.31,0.601c1.02,0.399,1.89,0.979,2.64,1.75c0.74,0.77,1.32,1.72,1.74,2.83
				c0.42,1.119,0.63,2.399,0.63,3.84c0,1.85-0.3,3.569-0.9,5.18c-0.6,1.6-1.42,3-2.45,4.18c-1.03,1.181-2.23,2.11-3.6,2.79
				C242.99,533.82,241.53,534.16,239.97,534.16z M240.43,530.17c0.87,0,1.65-0.25,2.35-0.75c0.7-0.5,1.3-1.16,1.8-1.99
				s0.88-1.8,1.14-2.91c0.27-1.109,0.4-2.27,0.4-3.489c0-1.75-0.3-3.04-0.89-3.86s-1.49-1.24-2.7-1.24c-0.87,0-1.65,0.25-2.35,0.74
				c-0.7,0.49-1.29,1.15-1.79,2c-0.49,0.84-0.87,1.811-1.13,2.92c-0.27,1.11-0.4,2.271-0.4,3.51c0,1.75,0.29,3.03,0.88,3.851
				C238.33,529.76,239.23,530.17,240.43,530.17z"/>
			<path d="M267.59,516.35c-0.15,0.221-0.3,0.381-0.439,0.471c-0.141,0.09-0.32,0.14-0.551,0.14c-0.24,0-0.479-0.07-0.729-0.21
				s-0.54-0.3-0.87-0.47s-0.71-0.33-1.13-0.471c-0.431-0.14-0.94-0.21-1.54-0.21c-1.109,0-1.95,0.25-2.54,0.75s-0.88,1.12-0.88,1.86
				c0,0.43,0.12,0.8,0.37,1.1c0.25,0.301,0.56,0.561,0.96,0.79c0.39,0.221,0.84,0.431,1.34,0.62c0.5,0.19,1.02,0.391,1.55,0.61
				s1.05,0.46,1.55,0.74c0.5,0.27,0.95,0.609,1.34,1c0.391,0.39,0.711,0.859,0.961,1.42c0.25,0.55,0.369,1.21,0.369,1.989
				c0,1.04-0.209,2.021-0.619,2.96c-0.41,0.94-1,1.761-1.771,2.471s-1.7,1.27-2.79,1.68s-2.31,0.62-3.65,0.62
				c-0.69,0-1.35-0.07-1.98-0.2c-0.64-0.13-1.24-0.32-1.8-0.56c-0.56-0.24-1.07-0.521-1.52-0.841c-0.45-0.319-0.84-0.67-1.17-1.05
				l1.26-1.97c0.15-0.24,0.34-0.42,0.56-0.55c0.22-0.13,0.47-0.19,0.77-0.19c0.29,0,0.56,0.09,0.8,0.271
				c0.24,0.18,0.52,0.38,0.84,0.6c0.32,0.22,0.71,0.42,1.17,0.601c0.46,0.18,1.04,0.27,1.75,0.27c0.57,0,1.08-0.08,1.52-0.23
				c0.44-0.149,0.81-0.359,1.11-0.63c0.3-0.27,0.529-0.569,0.68-0.92c0.15-0.35,0.23-0.72,0.23-1.109c0-0.48-0.12-0.87-0.36-1.19
				c-0.239-0.32-0.56-0.59-0.96-0.82c-0.4-0.229-0.85-0.43-1.36-0.609c-0.5-0.18-1.02-0.36-1.54-0.561
				c-0.52-0.199-1.04-0.42-1.53-0.67c-0.5-0.25-0.95-0.569-1.34-0.96c-0.4-0.38-0.72-0.85-0.96-1.41
				c-0.24-0.55-0.36-1.229-0.36-2.029c0-0.95,0.18-1.88,0.55-2.78c0.36-0.9,0.9-1.7,1.61-2.39c0.71-0.69,1.58-1.25,2.61-1.671
				c1.03-0.42,2.21-0.63,3.541-0.63c1.369,0,2.59,0.23,3.639,0.7c1.061,0.47,1.951,1.07,2.681,1.8L267.59,516.35z"/>
			<path d="M284.07,516.35c-0.15,0.221-0.301,0.381-0.44,0.471s-0.319,0.14-0.55,0.14c-0.24,0-0.48-0.07-0.73-0.21
				s-0.539-0.3-0.869-0.47s-0.711-0.33-1.131-0.471c-0.43-0.14-0.939-0.21-1.539-0.21c-1.11,0-1.951,0.25-2.541,0.75
				s-0.879,1.12-0.879,1.86c0,0.43,0.119,0.8,0.369,1.1c0.25,0.301,0.561,0.561,0.96,0.79c0.39,0.221,0.841,0.431,1.341,0.62
				c0.5,0.19,1.02,0.391,1.549,0.61c0.531,0.22,1.051,0.46,1.551,0.74c0.5,0.27,0.949,0.609,1.34,1c0.391,0.39,0.71,0.859,0.96,1.42
				c0.25,0.55,0.37,1.21,0.37,1.989c0,1.04-0.21,2.021-0.62,2.96c-0.41,0.94-1,1.761-1.771,2.471c-0.77,0.71-1.699,1.27-2.789,1.68
				s-2.311,0.62-3.65,0.62c-0.689,0-1.35-0.07-1.98-0.2c-0.64-0.13-1.24-0.32-1.8-0.56c-0.56-0.24-1.069-0.521-1.52-0.841
				c-0.45-0.319-0.841-0.67-1.171-1.05l1.261-1.97c0.149-0.24,0.34-0.42,0.56-0.55c0.221-0.13,0.471-0.19,0.771-0.19
				c0.29,0,0.56,0.09,0.8,0.271c0.24,0.18,0.52,0.38,0.84,0.6s0.71,0.42,1.17,0.601c0.461,0.18,1.04,0.27,1.75,0.27
				c0.57,0,1.08-0.08,1.52-0.23c0.441-0.149,0.811-0.359,1.111-0.63c0.299-0.27,0.529-0.569,0.68-0.92
				c0.149-0.35,0.229-0.72,0.229-1.109c0-0.48-0.12-0.87-0.36-1.19c-0.239-0.32-0.56-0.59-0.959-0.82
				c-0.4-0.229-0.851-0.43-1.36-0.609c-0.5-0.18-1.021-0.36-1.54-0.561c-0.52-0.199-1.04-0.42-1.53-0.67
				c-0.5-0.25-0.95-0.569-1.34-0.96c-0.399-0.38-0.72-0.85-0.96-1.41c-0.24-0.55-0.359-1.229-0.359-2.029
				c0-0.95,0.18-1.88,0.549-2.78c0.36-0.9,0.9-1.7,1.61-2.39c0.71-0.69,1.58-1.25,2.61-1.671c1.029-0.42,2.21-0.63,3.54-0.63
				c1.37,0,2.59,0.23,3.64,0.7c1.061,0.47,1.95,1.07,2.68,1.8L284.07,516.35z"/>
			<path d="M319.24,533.84h-4.221c-0.47,0-0.85-0.109-1.129-0.34c-0.281-0.22-0.461-0.53-0.531-0.9l-1.26-6.34h-11.32l-2.81,6.34
				c-0.149,0.32-0.409,0.61-0.76,0.86s-0.74,0.38-1.181,0.38h-4.289l14.68-30.37H312L319.24,533.84z M302.49,522.42h8.84
				l-2.061-10.4c-0.109-0.5-0.22-1.04-0.34-1.6c-0.109-0.56-0.22-1.19-0.31-1.89c-0.271,0.699-0.53,1.35-0.79,1.939
				s-0.5,1.12-0.721,1.561L302.49,522.42z"/>
			<path d="M327.62,522.19l-5-9.891h4.71c0.35,0,0.6,0.05,0.76,0.15c0.15,0.1,0.29,0.27,0.4,0.5l2.96,6.43
				c0.079-0.17,0.18-0.34,0.27-0.51c0.091-0.17,0.21-0.351,0.341-0.54l3.779-5.29c0.17-0.24,0.34-0.42,0.53-0.55
				s0.39-0.19,0.63-0.19h4.7l-7.58,9.91l5.54,11.63h-4.721c-0.35,0-0.629-0.09-0.83-0.28c-0.199-0.189-0.359-0.409-0.469-0.659
				l-3.301-7.561c-0.07,0.15-0.15,0.311-0.23,0.46c-0.08,0.15-0.17,0.29-0.25,0.42l-4.789,6.681c-0.18,0.239-0.381,0.46-0.61,0.649
				c-0.22,0.2-0.5,0.29-0.819,0.29h-4.561L327.62,522.19z"/>
			<path d="M350.6,512.3l-2.58,21.55H342.9l2.58-21.55H350.6z M351.9,506.02c0,0.45-0.101,0.87-0.291,1.261
				c-0.189,0.39-0.43,0.739-0.729,1.029s-0.649,0.53-1.04,0.7c-0.39,0.17-0.8,0.26-1.22,0.26c-0.41,0-0.8-0.09-1.19-0.26
				c-0.39-0.18-0.72-0.41-1.02-0.7c-0.29-0.29-0.53-0.64-0.7-1.029c-0.181-0.391-0.26-0.811-0.26-1.261
				c0-0.449,0.09-0.88,0.27-1.279c0.181-0.41,0.421-0.76,0.71-1.061c0.29-0.3,0.631-0.54,1.02-0.71
				c0.391-0.17,0.781-0.26,1.191-0.26c0.42,0,0.829,0.09,1.219,0.26c0.391,0.181,0.74,0.41,1.041,0.7c0.3,0.29,0.539,0.64,0.72,1.05
				C351.811,505.12,351.9,505.55,351.9,506.02z"/>
			<path d="M367.54,516.35c-0.149,0.221-0.3,0.381-0.44,0.471c-0.14,0.09-0.32,0.14-0.55,0.14c-0.239,0-0.479-0.07-0.729-0.21
				s-0.541-0.3-0.87-0.47c-0.33-0.17-0.71-0.33-1.13-0.471c-0.43-0.14-0.94-0.21-1.541-0.21c-1.109,0-1.949,0.25-2.539,0.75
				s-0.881,1.12-0.881,1.86c0,0.43,0.121,0.8,0.371,1.1c0.25,0.301,0.56,0.561,0.959,0.79c0.391,0.221,0.84,0.431,1.34,0.62
				c0.5,0.19,1.021,0.391,1.551,0.61c0.529,0.22,1.05,0.46,1.55,0.74c0.5,0.27,0.95,0.609,1.34,1c0.39,0.39,0.71,0.859,0.96,1.42
				c0.25,0.55,0.37,1.21,0.37,1.989c0,1.04-0.21,2.021-0.62,2.96c-0.41,0.94-1,1.761-1.77,2.471s-1.7,1.27-2.79,1.68
				c-1.091,0.41-2.31,0.62-3.65,0.62c-0.69,0-1.35-0.07-1.979-0.2c-0.641-0.13-1.24-0.32-1.801-0.56
				c-0.56-0.24-1.069-0.521-1.52-0.841c-0.45-0.319-0.84-0.67-1.17-1.05l1.26-1.97c0.15-0.24,0.34-0.42,0.561-0.55
				c0.22-0.13,0.47-0.19,0.77-0.19c0.29,0,0.561,0.09,0.801,0.271c0.239,0.18,0.52,0.38,0.84,0.6c0.319,0.22,0.709,0.42,1.17,0.601
				c0.459,0.18,1.039,0.27,1.75,0.27c0.569,0,1.08-0.08,1.52-0.23c0.439-0.149,0.811-0.359,1.109-0.63
				c0.301-0.27,0.531-0.569,0.681-0.92c0.149-0.35,0.229-0.72,0.229-1.109c0-0.48-0.119-0.87-0.359-1.19s-0.561-0.59-0.96-0.82
				c-0.4-0.229-0.851-0.43-1.36-0.609c-0.5-0.18-1.02-0.36-1.54-0.561c-0.521-0.199-1.04-0.42-1.53-0.67
				c-0.5-0.25-0.949-0.569-1.34-0.96c-0.399-0.38-0.72-0.85-0.959-1.41c-0.24-0.55-0.361-1.229-0.361-2.029
				c0-0.95,0.181-1.88,0.551-2.78c0.359-0.9,0.9-1.7,1.609-2.39c0.711-0.69,1.58-1.25,2.61-1.671c1.03-0.42,2.21-0.63,3.54-0.63
				c1.37,0,2.59,0.23,3.641,0.7c1.06,0.47,1.949,1.07,2.68,1.8L367.54,516.35z"/>
		</g>
		<g display="inline">
			<path fill="#999999" d="M204.24,528.56c0.85,0,1.6-0.069,2.24-0.199s1.19-0.301,1.66-0.511c0.47-0.21,0.87-0.43,1.21-0.659
				c0.34-0.23,0.63-0.45,0.88-0.66s0.48-0.38,0.67-0.511c0.2-0.13,0.39-0.199,0.59-0.199c0.17,0,0.31,0.04,0.42,0.109
				c0.11,0.07,0.2,0.141,0.27,0.21l1.91,2.37c-1.32,1.51-2.86,2.67-4.64,3.48c-1.78,0.8-3.82,1.21-6.13,1.21
				c-1.86,0-3.52-0.33-4.98-1s-2.69-1.59-3.7-2.76c-1.01-1.181-1.77-2.57-2.3-4.181c-0.52-1.609-0.79-3.37-0.79-5.27
				c0-1.75,0.19-3.41,0.57-4.971c0.38-1.56,0.92-3,1.62-4.329c0.7-1.32,1.54-2.511,2.52-3.561s2.07-1.95,3.26-2.689
				c1.19-0.74,2.48-1.311,3.85-1.7c1.38-0.391,2.82-0.59,4.31-0.59c1.11,0,2.12,0.1,3.03,0.3s1.73,0.49,2.48,0.85
				c0.75,0.36,1.41,0.8,2,1.311c0.59,0.51,1.12,1.08,1.6,1.71l-1.89,2.27c-0.14,0.17-0.3,0.311-0.49,0.44s-0.42,0.189-0.7,0.189
				c-0.31,0-0.6-0.13-0.88-0.38c-0.28-0.25-0.63-0.53-1.06-0.83s-0.98-0.58-1.66-0.83c-0.68-0.25-1.57-0.38-2.68-0.38
				c-1.46,0-2.81,0.3-4.05,0.891c-1.25,0.59-2.33,1.449-3.26,2.55c-0.92,1.109-1.65,2.439-2.17,4c-0.53,1.56-0.79,3.31-0.79,5.26
				c0,1.41,0.18,2.68,0.54,3.8c0.36,1.12,0.85,2.07,1.48,2.851c0.63,0.779,1.38,1.369,2.25,1.789
				C202.27,528.35,203.22,528.56,204.24,528.56z"/>
			<path fill="#999999" d="M216.44,532.84l2.63-21.57h2.63c0.5,0,0.92,0.11,1.24,0.341c0.32,0.22,0.48,0.58,0.48,1.069
				c0,0.101-0.01,0.271-0.02,0.5c-0.01,0.24-0.03,0.61-0.04,1.12c-0.01,0.51-0.04,1.23-0.08,2.15c0.88-1.69,1.85-3,2.9-3.931
				c1.05-0.92,2.14-1.39,3.28-1.39c0.57,0,1.15,0.13,1.74,0.38l-0.95,4.96c-0.7-0.29-1.36-0.439-1.99-0.439
				c-1.25,0-2.34,0.59-3.28,1.79c-0.94,1.189-1.71,3.05-2.31,5.59l-1.13,9.43H216.44z"/>
			<path fill="#999999" d="M238.97,533.16c-1.19,0-2.29-0.2-3.31-0.601c-1.02-0.399-1.89-0.979-2.63-1.75
				c-0.73-0.77-1.31-1.71-1.73-2.829c-0.42-1.12-0.63-2.4-0.63-3.841c0-1.859,0.3-3.6,0.89-5.21c0.59-1.609,1.41-3,2.44-4.18
				s2.23-2.1,3.6-2.771c1.37-0.67,2.83-1.01,4.39-1.01c1.19,0,2.29,0.2,3.31,0.601c1.02,0.399,1.89,0.979,2.64,1.75
				c0.74,0.77,1.32,1.72,1.74,2.83c0.42,1.119,0.63,2.399,0.63,3.84c0,1.85-0.3,3.569-0.9,5.18c-0.6,1.6-1.42,3-2.45,4.18
				c-1.03,1.181-2.23,2.11-3.6,2.79C241.99,532.82,240.53,533.16,238.97,533.16z M239.43,529.17c0.87,0,1.65-0.25,2.35-0.75
				c0.7-0.5,1.3-1.16,1.8-1.99s0.88-1.8,1.14-2.91c0.27-1.109,0.4-2.27,0.4-3.489c0-1.75-0.3-3.04-0.89-3.86s-1.49-1.24-2.7-1.24
				c-0.87,0-1.65,0.25-2.35,0.74c-0.7,0.49-1.29,1.15-1.79,2c-0.49,0.84-0.87,1.811-1.13,2.92c-0.27,1.11-0.4,2.271-0.4,3.51
				c0,1.75,0.29,3.03,0.88,3.851C237.33,528.76,238.23,529.17,239.43,529.17z"/>
			<path fill="#999999" d="M266.59,515.35c-0.15,0.221-0.3,0.381-0.439,0.471c-0.141,0.09-0.32,0.14-0.551,0.14
				c-0.24,0-0.479-0.07-0.729-0.21s-0.54-0.3-0.87-0.47s-0.71-0.33-1.13-0.471c-0.431-0.14-0.94-0.21-1.54-0.21
				c-1.11,0-1.95,0.25-2.54,0.75s-0.88,1.12-0.88,1.86c0,0.43,0.12,0.8,0.37,1.1c0.25,0.301,0.56,0.561,0.96,0.79
				c0.39,0.221,0.84,0.431,1.34,0.62c0.5,0.19,1.02,0.391,1.55,0.61s1.05,0.46,1.55,0.74c0.5,0.27,0.95,0.609,1.34,1
				c0.391,0.39,0.711,0.859,0.961,1.42c0.25,0.55,0.369,1.21,0.369,1.989c0,1.04-0.209,2.021-0.619,2.96
				c-0.41,0.94-1,1.761-1.771,2.471s-1.7,1.27-2.79,1.68s-2.31,0.62-3.65,0.62c-0.69,0-1.35-0.07-1.98-0.2
				c-0.64-0.13-1.24-0.32-1.8-0.56c-0.56-0.24-1.07-0.521-1.52-0.841c-0.45-0.319-0.84-0.67-1.17-1.05l1.26-1.97
				c0.15-0.24,0.34-0.42,0.56-0.55c0.22-0.13,0.47-0.19,0.77-0.19c0.29,0,0.56,0.09,0.8,0.271c0.24,0.18,0.52,0.38,0.84,0.6
				c0.32,0.22,0.71,0.42,1.17,0.601c0.46,0.18,1.04,0.27,1.75,0.27c0.57,0,1.08-0.08,1.52-0.23c0.44-0.149,0.81-0.359,1.11-0.63
				c0.3-0.27,0.529-0.569,0.68-0.92c0.15-0.35,0.23-0.72,0.23-1.109c0-0.48-0.12-0.87-0.36-1.19c-0.239-0.32-0.56-0.59-0.96-0.82
				c-0.4-0.229-0.85-0.43-1.36-0.609c-0.5-0.18-1.02-0.36-1.54-0.561c-0.52-0.199-1.04-0.42-1.53-0.67
				c-0.5-0.25-0.95-0.569-1.34-0.96c-0.4-0.38-0.72-0.85-0.96-1.41c-0.24-0.55-0.36-1.229-0.36-2.029c0-0.95,0.18-1.88,0.55-2.78
				c0.36-0.9,0.9-1.7,1.61-2.39c0.71-0.69,1.58-1.25,2.61-1.671c1.03-0.42,2.21-0.63,3.541-0.63c1.369,0,2.59,0.23,3.639,0.7
				c1.061,0.47,1.951,1.07,2.681,1.8L266.59,515.35z"/>
			<path fill="#999999" d="M283.07,515.35c-0.15,0.221-0.301,0.381-0.44,0.471s-0.319,0.14-0.55,0.14c-0.24,0-0.48-0.07-0.73-0.21
				s-0.539-0.3-0.869-0.47s-0.711-0.33-1.131-0.471c-0.43-0.14-0.939-0.21-1.539-0.21c-1.11,0-1.951,0.25-2.541,0.75
				s-0.879,1.12-0.879,1.86c0,0.43,0.119,0.8,0.369,1.1c0.25,0.301,0.561,0.561,0.96,0.79c0.39,0.221,0.841,0.431,1.341,0.62
				c0.5,0.19,1.02,0.391,1.549,0.61c0.531,0.22,1.051,0.46,1.551,0.74c0.5,0.27,0.949,0.609,1.34,1c0.391,0.39,0.71,0.859,0.96,1.42
				c0.25,0.55,0.37,1.21,0.37,1.989c0,1.04-0.21,2.021-0.62,2.96c-0.41,0.94-1,1.761-1.771,2.471c-0.77,0.71-1.699,1.27-2.789,1.68
				s-2.311,0.62-3.65,0.62c-0.689,0-1.35-0.07-1.98-0.2c-0.64-0.13-1.24-0.32-1.8-0.56c-0.56-0.24-1.069-0.521-1.52-0.841
				c-0.45-0.319-0.841-0.67-1.171-1.05l1.261-1.97c0.149-0.24,0.34-0.42,0.56-0.55c0.221-0.13,0.471-0.19,0.771-0.19
				c0.29,0,0.56,0.09,0.8,0.271c0.24,0.18,0.52,0.38,0.84,0.6s0.71,0.42,1.17,0.601c0.461,0.18,1.04,0.27,1.75,0.27
				c0.57,0,1.08-0.08,1.52-0.23c0.441-0.149,0.811-0.359,1.111-0.63c0.299-0.27,0.529-0.569,0.68-0.92
				c0.149-0.35,0.229-0.72,0.229-1.109c0-0.48-0.12-0.87-0.36-1.19c-0.239-0.32-0.56-0.59-0.959-0.82
				c-0.4-0.229-0.851-0.43-1.36-0.609c-0.5-0.18-1.021-0.36-1.54-0.561c-0.52-0.199-1.04-0.42-1.53-0.67
				c-0.5-0.25-0.95-0.569-1.34-0.96c-0.399-0.38-0.72-0.85-0.96-1.41c-0.24-0.55-0.359-1.229-0.359-2.029
				c0-0.95,0.18-1.88,0.549-2.78c0.36-0.9,0.9-1.7,1.61-2.39c0.71-0.69,1.58-1.25,2.61-1.671c1.029-0.42,2.21-0.63,3.54-0.63
				c1.37,0,2.59,0.23,3.64,0.7c1.061,0.47,1.95,1.07,2.68,1.8L283.07,515.35z"/>
			<path fill="#999999" d="M318.24,532.84h-4.221c-0.47,0-0.85-0.109-1.129-0.34c-0.281-0.22-0.461-0.53-0.531-0.9l-1.26-6.34
				h-11.32l-2.81,6.34c-0.149,0.32-0.409,0.61-0.76,0.86s-0.74,0.38-1.181,0.38h-4.289l14.68-30.37H311L318.24,532.84z
				 M301.49,521.42h8.84l-2.061-10.4c-0.109-0.5-0.22-1.039-0.34-1.6c-0.109-0.56-0.22-1.189-0.31-1.89
				c-0.271,0.7-0.53,1.35-0.79,1.939s-0.5,1.12-0.721,1.561L301.49,521.42z"/>
			<path fill="#999999" d="M326.62,521.19l-5-9.891h4.71c0.35,0,0.6,0.05,0.76,0.15c0.15,0.1,0.29,0.27,0.4,0.5l2.96,6.43
				c0.079-0.17,0.18-0.34,0.27-0.51c0.091-0.17,0.21-0.351,0.341-0.54l3.779-5.29c0.17-0.24,0.34-0.42,0.53-0.55
				s0.39-0.19,0.63-0.19h4.7l-7.58,9.91l5.54,11.63h-4.721c-0.35,0-0.629-0.09-0.83-0.28c-0.199-0.189-0.359-0.409-0.469-0.659
				l-3.301-7.561c-0.07,0.15-0.15,0.311-0.23,0.46c-0.08,0.15-0.17,0.29-0.25,0.42l-4.789,6.681c-0.18,0.239-0.381,0.46-0.61,0.649
				c-0.22,0.2-0.5,0.29-0.819,0.29h-4.561L326.62,521.19z"/>
			<path fill="#999999" d="M349.6,511.3l-2.58,21.55H341.9l2.58-21.55H349.6z M350.9,505.02c0,0.45-0.101,0.87-0.291,1.261
				c-0.189,0.39-0.43,0.739-0.729,1.029s-0.649,0.53-1.04,0.7c-0.39,0.17-0.8,0.26-1.22,0.26c-0.41,0-0.8-0.09-1.19-0.26
				c-0.39-0.18-0.72-0.41-1.02-0.7c-0.29-0.29-0.53-0.64-0.7-1.029c-0.181-0.391-0.26-0.811-0.26-1.261
				c0-0.449,0.09-0.88,0.27-1.279c0.181-0.41,0.421-0.76,0.71-1.061c0.29-0.3,0.631-0.54,1.02-0.71
				c0.391-0.17,0.781-0.26,1.191-0.26c0.42,0,0.829,0.09,1.219,0.26c0.391,0.181,0.74,0.41,1.041,0.7c0.3,0.29,0.539,0.64,0.72,1.05
				C350.811,504.12,350.9,504.55,350.9,505.02z"/>
			<path fill="#999999" d="M366.54,515.35c-0.149,0.221-0.3,0.381-0.44,0.471c-0.14,0.09-0.32,0.14-0.55,0.14
				c-0.239,0-0.479-0.07-0.729-0.21s-0.541-0.3-0.87-0.47c-0.33-0.17-0.71-0.33-1.13-0.471c-0.43-0.14-0.94-0.21-1.541-0.21
				c-1.109,0-1.949,0.25-2.539,0.75s-0.881,1.12-0.881,1.86c0,0.43,0.121,0.8,0.371,1.1c0.25,0.301,0.56,0.561,0.959,0.79
				c0.391,0.221,0.84,0.431,1.34,0.62c0.5,0.19,1.021,0.391,1.551,0.61c0.529,0.22,1.05,0.46,1.55,0.74c0.5,0.27,0.95,0.609,1.34,1
				c0.39,0.39,0.71,0.859,0.96,1.42c0.25,0.55,0.37,1.21,0.37,1.989c0,1.04-0.21,2.021-0.62,2.96c-0.41,0.94-1,1.761-1.77,2.471
				s-1.7,1.27-2.79,1.68c-1.091,0.41-2.31,0.62-3.65,0.62c-0.69,0-1.35-0.07-1.979-0.2c-0.641-0.13-1.24-0.32-1.801-0.56
				c-0.56-0.24-1.069-0.521-1.52-0.841c-0.45-0.319-0.84-0.67-1.17-1.05l1.26-1.97c0.15-0.24,0.34-0.42,0.561-0.55
				c0.22-0.13,0.47-0.19,0.77-0.19c0.29,0,0.561,0.09,0.801,0.271c0.239,0.18,0.52,0.38,0.84,0.6c0.319,0.22,0.709,0.42,1.17,0.601
				c0.459,0.18,1.039,0.27,1.75,0.27c0.569,0,1.08-0.08,1.52-0.23c0.439-0.149,0.811-0.359,1.109-0.63
				c0.301-0.27,0.531-0.569,0.681-0.92c0.149-0.35,0.229-0.72,0.229-1.109c0-0.48-0.119-0.87-0.359-1.19s-0.561-0.59-0.96-0.82
				c-0.4-0.229-0.851-0.43-1.36-0.609c-0.5-0.18-1.02-0.36-1.54-0.561c-0.521-0.199-1.04-0.42-1.53-0.67
				c-0.5-0.25-0.949-0.569-1.34-0.96c-0.399-0.38-0.72-0.85-0.959-1.41c-0.24-0.55-0.361-1.229-0.361-2.029
				c0-0.95,0.181-1.88,0.551-2.78c0.359-0.9,0.9-1.7,1.609-2.39c0.711-0.69,1.58-1.25,2.61-1.671c1.03-0.42,2.21-0.63,3.54-0.63
				c1.37,0,2.59,0.23,3.641,0.7c1.06,0.47,1.949,1.07,2.68,1.8L366.54,515.35z"/>
		</g>
		<g display="inline">
			<path d="M24.53,171.21c-0.38,0.1-0.76,0.2-1.16,0.29c0.39,0.17,0.78,0.35,1.16,0.55c0.38,0.2,0.75,0.41,1.11,0.63l17.35,10.54
				c0.21,0.13,0.37,0.26,0.49,0.39c0.12,0.13,0.21,0.27,0.26,0.42c0.06,0.15,0.09,0.31,0.1,0.49c0.01,0.18,0.02,0.39,0.02,0.63v4.14
				l-30.37-3.74v-4.79l19.78,2.44c0.36,0.04,0.76,0.1,1.2,0.19c0.43,0.08,0.88,0.17,1.32,0.27l-17.35-10.44
				c-0.39-0.24-0.69-0.54-0.88-0.89c-0.2-0.36-0.29-0.75-0.29-1.17v-0.76c0-0.42,0.1-0.79,0.29-1.1c0.2-0.32,0.49-0.54,0.88-0.68
				l17.28-6.26c-0.43-0.01-0.85-0.03-1.26-0.05s-0.78-0.05-1.11-0.09l-19.87-2.39v-4.81l30.37,3.74v4.09c0,0.24-0.01,0.45-0.02,0.63
				c-0.01,0.18-0.05,0.34-0.1,0.48c-0.06,0.14-0.14,0.26-0.26,0.36c-0.12,0.1-0.28,0.19-0.49,0.27l-17.35,6.28
				C25.27,171,24.9,171.11,24.53,171.21z"/>
			<path d="M13.5,207.58v-2.73c0-0.63,0.15-1.07,0.44-1.32s0.66-0.38,1.11-0.38l2.94,0.17c-1.48-0.95-2.66-2.02-3.52-3.21
				c-0.86-1.19-1.29-2.5-1.29-3.93c0-0.81,0.16-1.57,0.48-2.28c0.32-0.71,0.8-1.32,1.44-1.85c0.64-0.52,1.43-0.94,2.39-1.24
				c0.96-0.3,2.08-0.45,3.37-0.45s2.54,0.16,3.76,0.48c1.22,0.32,2.36,0.78,3.43,1.38c1.07,0.6,2.05,1.31,2.95,2.15
				c0.9,0.84,1.67,1.78,2.31,2.83c0.64,1.04,1.14,2.17,1.5,3.38s0.54,2.49,0.54,3.83c0,0.97-0.07,1.94-0.21,2.91
				c-0.14,0.97-0.39,1.93-0.76,2.87L13.5,207.58z M17.43,198.21c0,0.57,0.2,1.14,0.59,1.69c0.39,0.55,0.93,1.07,1.63,1.56
				c0.69,0.49,1.51,0.94,2.45,1.37c0.94,0.42,1.95,0.78,3.02,1.09l6.51,0.82c0.04-0.38,0.06-0.73,0.06-1.05
				c0-1.16-0.27-2.24-0.8-3.23c-0.53-1-1.25-1.86-2.15-2.58c-0.9-0.73-1.95-1.3-3.15-1.71c-1.2-0.41-2.46-0.62-3.79-0.62
				c-1.51,0-2.62,0.24-3.32,0.71C17.78,196.74,17.43,197.39,17.43,198.21z"/>
			<path d="M35.05,220.56l-21.55-2.58v-5.12l21.55,2.58V220.56z M41.32,221.86c-0.45,0-0.87-0.09-1.26-0.28s-0.73-0.43-1.03-0.73
				c-0.29-0.3-0.53-0.65-0.7-1.04s-0.26-0.8-0.26-1.22c0-0.41,0.09-0.8,0.26-1.19s0.41-0.72,0.7-1.02c0.29-0.29,0.64-0.53,1.03-0.7
				c0.39-0.18,0.81-0.26,1.26-0.26c0.45,0,0.87,0.09,1.28,0.27c0.41,0.18,0.76,0.42,1.06,0.71c0.3,0.29,0.54,0.63,0.71,1.02
				c0.17,0.39,0.26,0.78,0.26,1.19c0,0.42-0.09,0.83-0.26,1.22c-0.18,0.39-0.41,0.74-0.7,1.04c-0.29,0.3-0.64,0.54-1.05,0.72
				C42.22,221.77,41.79,221.86,41.32,221.86z"/>
			<path d="M13.5,223.2l21.57,2.58v2.65c0,0.55-0.13,0.97-0.4,1.27c-0.27,0.3-0.69,0.45-1.28,0.45L30.6,230
				c1.61,1.09,2.81,2.3,3.6,3.63s1.19,2.7,1.19,4.12c0,0.8-0.14,1.52-0.43,2.17s-0.71,1.21-1.26,1.67
				c-0.55,0.46-1.23,0.82-2.04,1.07s-1.73,0.38-2.78,0.38c-0.27,0-0.54-0.01-0.81-0.03c-0.27-0.02-0.56-0.04-0.85-0.07l-13.71-1.62
				v-5.19c2.37,0.28,4.37,0.52,6.02,0.71c1.64,0.2,3.01,0.36,4.11,0.48c1.1,0.12,1.95,0.22,2.57,0.29c0.62,0.07,1.1,0.12,1.42,0.16
				c0.32,0.03,0.54,0.06,0.64,0.06c0.1,0.01,0.19,0.01,0.26,0.01c0.92,0,1.59-0.17,2.01-0.5s0.62-0.86,0.62-1.58
				c0-0.57-0.17-1.17-0.5-1.79c-0.33-0.62-0.81-1.2-1.43-1.76s-1.36-1.07-2.23-1.53s-1.83-0.84-2.9-1.13l-10.58-1.18v-5.17H13.5z"/>
			<path d="M13.5,278.811v-4.221c0-0.48,0.11-0.85,0.34-1.13s0.53-0.46,0.9-0.53l6.34-1.26v-11.32l-6.34-2.81
				c-0.32-0.15-0.61-0.41-0.86-0.76c-0.25-0.35-0.38-0.74-0.38-1.18v-4.28L43.87,266v5.57L13.5,278.811z M24.92,262.05v8.84
				l10.4-2.06c0.5-0.11,1.04-0.22,1.6-0.34c0.56-0.11,1.19-0.22,1.89-0.32c-0.7-0.27-1.35-0.53-1.94-0.79
				c-0.59-0.26-1.12-0.5-1.56-0.72L24.92,262.05z"/>
			<path d="M25.16,287.189l9.89-5v4.701c0,0.35-0.05,0.6-0.15,0.76c-0.1,0.149-0.27,0.289-0.5,0.399l-6.43,2.96
				c0.17,0.08,0.34,0.17,0.51,0.27c0.17,0.101,0.35,0.211,0.54,0.341l5.29,3.78c0.24,0.17,0.42,0.34,0.55,0.529
				c0.13,0.18,0.19,0.391,0.19,0.631v4.699l-9.91-7.58l-11.63,5.541v-4.73c0-0.35,0.09-0.631,0.28-0.83
				c0.19-0.2,0.41-0.36,0.66-0.471l7.56-3.299c-0.15-0.07-0.31-0.15-0.46-0.23c-0.15-0.08-0.29-0.17-0.42-0.25l-6.68-4.79
				c-0.24-0.181-0.46-0.38-0.65-0.61c-0.2-0.22-0.29-0.5-0.29-0.82v-4.56L25.16,287.189z"/>
			<path d="M35.05,310.16l-21.55-2.58v-5.12l21.55,2.58V310.16z M41.32,311.46c-0.45,0-0.87-0.09-1.26-0.28
				c-0.39-0.189-0.73-0.43-1.03-0.729c-0.29-0.3-0.53-0.65-0.7-1.04c-0.17-0.391-0.26-0.8-0.26-1.22c0-0.41,0.09-0.801,0.26-1.19
				s0.41-0.72,0.7-1.02c0.29-0.291,0.64-0.53,1.03-0.701c0.39-0.18,0.81-0.26,1.26-0.26c0.45,0,0.87,0.09,1.28,0.271
				c0.41,0.18,0.76,0.42,1.06,0.71c0.3,0.29,0.54,0.63,0.71,1.02c0.17,0.391,0.26,0.78,0.26,1.19c0,0.42-0.09,0.83-0.26,1.22
				c-0.18,0.391-0.41,0.74-0.7,1.04s-0.64,0.54-1.05,0.72C42.22,311.37,41.79,311.46,41.32,311.46z"/>
			<path d="M30.99,327.11c-0.22-0.15-0.38-0.301-0.47-0.44s-0.14-0.32-0.14-0.55c0-0.24,0.07-0.48,0.21-0.74
				c0.14-0.26,0.3-0.54,0.47-0.87s0.33-0.71,0.47-1.13c0.14-0.43,0.21-0.939,0.21-1.54c0-1.109-0.25-1.95-0.75-2.54
				s-1.12-0.88-1.86-0.88c-0.43,0-0.8,0.12-1.1,0.37c-0.3,0.25-0.56,0.56-0.79,0.96c-0.22,0.39-0.43,0.84-0.62,1.34
				s-0.39,1.021-0.61,1.55c-0.22,0.53-0.46,1.05-0.74,1.55c-0.27,0.5-0.61,0.95-1,1.341c-0.39,0.39-0.86,0.71-1.42,0.96
				c-0.55,0.25-1.21,0.37-1.99,0.37c-1.04,0-2.02-0.21-2.96-0.62s-1.76-1-2.47-1.771c-0.71-0.77-1.27-1.7-1.68-2.79
				s-0.62-2.31-0.62-3.649c0-0.69,0.07-1.351,0.2-1.98c0.13-0.64,0.32-1.24,0.56-1.8c0.24-0.561,0.52-1.07,0.84-1.521
				c0.32-0.449,0.67-0.84,1.05-1.17l1.97,1.261c0.24,0.149,0.42,0.34,0.55,0.56c0.13,0.22,0.19,0.47,0.19,0.771
				c0,0.3-0.09,0.56-0.27,0.8c-0.18,0.239-0.38,0.52-0.6,0.84c-0.22,0.32-0.42,0.71-0.6,1.17c-0.18,0.45-0.27,1.04-0.27,1.75
				c0,0.57,0.08,1.08,0.23,1.52c0.15,0.44,0.36,0.811,0.63,1.11s0.57,0.53,0.92,0.68c0.35,0.15,0.72,0.23,1.11,0.23
				c0.48,0,0.87-0.12,1.19-0.36c0.32-0.239,0.59-0.56,0.82-0.96c0.23-0.399,0.43-0.85,0.61-1.359c0.18-0.5,0.36-1.021,0.56-1.54
				c0.2-0.521,0.42-1.04,0.67-1.53s0.57-0.95,0.96-1.34c0.38-0.4,0.85-0.721,1.41-0.96c0.55-0.24,1.23-0.36,2.03-0.36
				c0.95,0,1.88,0.18,2.78,0.55s1.7,0.9,2.39,1.61s1.25,1.58,1.67,2.6c0.42,1.03,0.63,2.21,0.63,3.54c0,1.37-0.23,2.59-0.7,3.641
				c-0.47,1.06-1.07,1.95-1.8,2.68L30.99,327.11z"/>
		</g>
		<g display="inline">
			<path fill="#FFFFFF" d="M23.53,170.21c-0.38,0.1-0.76,0.2-1.16,0.29c0.39,0.17,0.78,0.35,1.16,0.55c0.38,0.2,0.75,0.41,1.11,0.63
				l17.35,10.54c0.21,0.13,0.37,0.26,0.49,0.39c0.12,0.13,0.21,0.27,0.26,0.42c0.06,0.15,0.09,0.31,0.1,0.49
				c0.01,0.18,0.02,0.39,0.02,0.63v4.14l-30.37-3.74v-4.79l19.78,2.44c0.36,0.04,0.76,0.1,1.2,0.19c0.43,0.08,0.88,0.17,1.32,0.27
				l-17.35-10.44c-0.39-0.24-0.69-0.54-0.88-0.89c-0.2-0.36-0.29-0.75-0.29-1.17v-0.76c0-0.42,0.1-0.79,0.29-1.1
				c0.2-0.32,0.49-0.54,0.88-0.68l17.28-6.26c-0.43-0.01-0.85-0.03-1.26-0.05s-0.78-0.05-1.11-0.09l-19.87-2.39v-4.81l30.37,3.74
				v4.09c0,0.24-0.01,0.45-0.02,0.63c-0.01,0.18-0.05,0.34-0.1,0.48c-0.06,0.14-0.14,0.26-0.26,0.36c-0.12,0.1-0.28,0.19-0.49,0.27
				l-17.35,6.28C24.27,170,23.9,170.11,23.53,170.21z"/>
			<path fill="#FFFFFF" d="M12.5,206.58v-2.73c0-0.63,0.15-1.07,0.44-1.32s0.66-0.38,1.11-0.38l2.94,0.17
				c-1.48-0.95-2.66-2.02-3.52-3.21c-0.86-1.19-1.29-2.5-1.29-3.93c0-0.81,0.16-1.57,0.48-2.28c0.32-0.71,0.8-1.32,1.44-1.85
				c0.64-0.52,1.43-0.94,2.39-1.24c0.96-0.3,2.08-0.45,3.37-0.45s2.54,0.16,3.76,0.48c1.22,0.32,2.36,0.78,3.43,1.38
				c1.07,0.6,2.05,1.31,2.95,2.15c0.9,0.84,1.67,1.78,2.31,2.83c0.64,1.04,1.14,2.17,1.5,3.38s0.54,2.49,0.54,3.83
				c0,0.97-0.07,1.94-0.21,2.91c-0.14,0.97-0.39,1.93-0.76,2.87L12.5,206.58z M16.43,197.21c0,0.57,0.2,1.14,0.59,1.69
				c0.39,0.55,0.93,1.07,1.63,1.56c0.69,0.49,1.51,0.94,2.45,1.37c0.94,0.42,1.95,0.78,3.02,1.09l6.51,0.82
				c0.04-0.38,0.06-0.73,0.06-1.05c0-1.16-0.27-2.24-0.8-3.23c-0.53-1-1.25-1.86-2.15-2.58c-0.9-0.73-1.95-1.3-3.15-1.71
				c-1.2-0.41-2.46-0.62-3.79-0.62c-1.51,0-2.62,0.24-3.32,0.71C16.78,195.74,16.43,196.39,16.43,197.21z"/>
			<path fill="#FFFFFF" d="M34.05,219.56l-21.55-2.58v-5.12l21.55,2.58V219.56z M40.32,220.86c-0.45,0-0.87-0.09-1.26-0.28
				s-0.73-0.43-1.03-0.73c-0.29-0.3-0.53-0.65-0.7-1.04s-0.26-0.8-0.26-1.22c0-0.41,0.09-0.8,0.26-1.19s0.41-0.72,0.7-1.02
				c0.29-0.29,0.64-0.53,1.03-0.7c0.39-0.18,0.81-0.26,1.26-0.26c0.45,0,0.87,0.09,1.28,0.27c0.41,0.18,0.76,0.42,1.06,0.71
				c0.3,0.29,0.54,0.63,0.71,1.02c0.17,0.39,0.26,0.78,0.26,1.19c0,0.42-0.09,0.83-0.26,1.22c-0.18,0.39-0.41,0.74-0.7,1.04
				c-0.29,0.3-0.64,0.54-1.05,0.72C41.22,220.77,40.79,220.86,40.32,220.86z"/>
			<path fill="#FFFFFF" d="M12.5,222.2l21.57,2.58v2.65c0,0.55-0.13,0.97-0.4,1.27c-0.27,0.3-0.69,0.45-1.28,0.45L29.6,229
				c1.61,1.09,2.81,2.3,3.6,3.63s1.19,2.7,1.19,4.12c0,0.8-0.14,1.52-0.43,2.17s-0.71,1.21-1.26,1.67
				c-0.55,0.46-1.23,0.82-2.04,1.07s-1.73,0.38-2.78,0.38c-0.27,0-0.54-0.01-0.81-0.03c-0.27-0.02-0.56-0.04-0.85-0.07l-13.71-1.62
				v-5.19c2.37,0.28,4.37,0.52,6.02,0.71c1.64,0.2,3.01,0.36,4.11,0.48c1.1,0.12,1.95,0.22,2.57,0.29c0.62,0.07,1.1,0.12,1.42,0.16
				c0.32,0.03,0.54,0.06,0.64,0.06c0.1,0.01,0.19,0.01,0.26,0.01c0.92,0,1.59-0.17,2.01-0.5s0.62-0.86,0.62-1.58
				c0-0.57-0.17-1.17-0.5-1.79c-0.33-0.62-0.81-1.2-1.43-1.76s-1.36-1.07-2.23-1.53s-1.83-0.84-2.9-1.13l-10.58-1.18v-5.17H12.5z"/>
			<path fill="#FFFFFF" d="M12.5,277.811v-4.221c0-0.48,0.11-0.85,0.34-1.13c0.23-0.28,0.53-0.46,0.9-0.53l6.34-1.26v-11.32
				l-6.34-2.81c-0.32-0.15-0.61-0.41-0.86-0.76c-0.25-0.35-0.38-0.74-0.38-1.18v-4.28L42.87,265v5.57L12.5,277.811z M23.92,261.05
				v8.84l10.4-2.06c0.5-0.11,1.04-0.22,1.6-0.34c0.56-0.11,1.19-0.22,1.89-0.32c-0.7-0.27-1.35-0.53-1.94-0.79
				c-0.59-0.26-1.12-0.5-1.56-0.72L23.92,261.05z"/>
			<path fill="#FFFFFF" d="M24.16,286.189l9.89-5v4.701c0,0.35-0.05,0.6-0.15,0.76c-0.1,0.149-0.27,0.289-0.5,0.399l-6.43,2.96
				c0.17,0.08,0.34,0.17,0.51,0.27c0.17,0.101,0.35,0.211,0.54,0.341l5.29,3.78c0.24,0.17,0.42,0.34,0.55,0.529
				c0.13,0.18,0.19,0.391,0.19,0.631v4.699l-9.91-7.58l-11.63,5.541v-4.73c0-0.35,0.09-0.631,0.28-0.83
				c0.19-0.2,0.41-0.36,0.66-0.471l7.56-3.299c-0.15-0.07-0.31-0.15-0.46-0.23c-0.15-0.08-0.29-0.17-0.42-0.25l-6.68-4.79
				c-0.24-0.181-0.46-0.38-0.65-0.61c-0.2-0.22-0.29-0.5-0.29-0.82v-4.56L24.16,286.189z"/>
			<path fill="#FFFFFF" d="M34.05,309.16l-21.55-2.58v-5.12l21.55,2.58V309.16z M40.32,310.47c-0.45,0-0.87-0.09-1.26-0.279
				c-0.39-0.19-0.73-0.431-1.03-0.73c-0.29-0.3-0.53-0.65-0.7-1.04s-0.26-0.8-0.26-1.22c0-0.41,0.09-0.8,0.26-1.19
				c0.17-0.39,0.41-0.72,0.7-1.02c0.29-0.29,0.64-0.53,1.03-0.7c0.39-0.181,0.81-0.261,1.26-0.261c0.45,0,0.87,0.091,1.28,0.271
				c0.41,0.181,0.76,0.42,1.06,0.71c0.3,0.29,0.54,0.631,0.71,1.021s0.26,0.779,0.26,1.189c0,0.42-0.09,0.83-0.26,1.22
				c-0.18,0.391-0.41,0.74-0.7,1.04c-0.29,0.301-0.64,0.54-1.05,0.721C41.22,310.37,40.79,310.47,40.32,310.47z"/>
			<path fill="#FFFFFF" d="M29.99,326.11c-0.22-0.15-0.38-0.301-0.47-0.44s-0.14-0.32-0.14-0.55c0-0.24,0.07-0.48,0.21-0.74
				c0.14-0.26,0.3-0.54,0.47-0.87s0.33-0.71,0.47-1.13c0.14-0.43,0.21-0.939,0.21-1.54c0-1.109-0.25-1.95-0.75-2.54
				s-1.12-0.88-1.86-0.88c-0.43,0-0.8,0.12-1.1,0.37c-0.3,0.25-0.56,0.56-0.79,0.96c-0.22,0.39-0.43,0.84-0.62,1.34
				s-0.39,1.021-0.61,1.55c-0.22,0.53-0.46,1.05-0.74,1.55c-0.27,0.5-0.61,0.95-1,1.341c-0.39,0.39-0.86,0.71-1.42,0.96
				c-0.55,0.25-1.21,0.37-1.99,0.37c-1.04,0-2.02-0.21-2.96-0.62s-1.76-1-2.47-1.771c-0.71-0.77-1.27-1.7-1.68-2.79
				s-0.62-2.31-0.62-3.649c0-0.69,0.07-1.351,0.2-1.98c0.13-0.64,0.32-1.24,0.56-1.8c0.24-0.561,0.52-1.07,0.84-1.521
				c0.32-0.449,0.67-0.84,1.05-1.17l1.97,1.261c0.24,0.149,0.42,0.34,0.55,0.56c0.13,0.22,0.19,0.47,0.19,0.771
				c0,0.3-0.09,0.56-0.27,0.8c-0.18,0.239-0.38,0.52-0.6,0.84c-0.22,0.32-0.42,0.71-0.6,1.17c-0.18,0.45-0.27,1.04-0.27,1.75
				c0,0.57,0.08,1.08,0.23,1.52c0.15,0.44,0.36,0.811,0.63,1.11s0.57,0.53,0.92,0.68c0.35,0.15,0.72,0.23,1.11,0.23
				c0.48,0,0.87-0.12,1.19-0.36c0.32-0.239,0.59-0.56,0.82-0.96c0.23-0.399,0.43-0.85,0.61-1.359c0.18-0.5,0.36-1.021,0.56-1.54
				c0.2-0.521,0.42-1.04,0.67-1.53s0.57-0.95,0.96-1.34c0.38-0.4,0.85-0.721,1.41-0.96c0.55-0.24,1.23-0.36,2.03-0.36
				c0.95,0,1.88,0.18,2.78,0.55s1.7,0.9,2.39,1.61s1.25,1.58,1.67,2.6c0.42,1.03,0.63,2.21,0.63,3.54c0,1.37-0.23,2.59-0.7,3.641
				c-0.47,1.06-1.07,1.95-1.8,2.68L29.99,326.11z"/>
		</g>
		<g display="inline">
			<line fill="none" x1="26" y1="354" x2="26" y2="488"/>
			<g>
				<line fill="none" stroke="#000000" stroke-width="6" stroke-miterlimit="10" x1="26" y1="354" x2="26" y2="453"/>
				<g>
					<polygon points="3.78,435.68 26,445.12 48.22,435.68 26,488.35 					"/>
				</g>
			</g>
		</g>
		<g display="inline">
			<line fill="none" x1="25" y1="353" x2="25" y2="487"/>
			<g>
				<line fill="none" stroke="#FFFFFF" stroke-width="6" stroke-miterlimit="10" x1="25" y1="353" x2="25" y2="452"/>
				<g>
					<polygon fill="#FFFFFF" points="2.78,434.68 25,444.12 47.22,434.68 25,487.35 					"/>
				</g>
			</g>
		</g>
		<line display="inline" fill="none" stroke="#000000" stroke-width="6" stroke-miterlimit="10" x1="26" y1="11" x2="26" y2="134"/>
		<line display="inline" fill="none" stroke="#FFFFFF" stroke-width="6" stroke-miterlimit="10" x1="25" y1="10" x2="25" y2="132"/>
		<g display="inline">
			<line fill="none" stroke="#000000" stroke-width="6" stroke-miterlimit="10" x1="386" y1="521" x2="475" y2="521"/>
			<g>
				<polygon points="458.05,543.22 467.49,521 458.05,498.78 510.72,521 				"/>
			</g>
		</g>
		<g display="inline">
			<line fill="none" x1="385" y1="520" x2="510" y2="520"/>
			<g>
				<line fill="none" stroke="#999999" stroke-width="6" stroke-miterlimit="10" x1="385" y1="520" x2="474" y2="520"/>
				<g>
					<polygon fill="#999999" points="457.05,542.22 466.49,520 457.05,497.78 509.72,520 					"/>
				</g>
			</g>
		</g>
		
			<line display="inline" fill="none" stroke="#000000" stroke-width="6" stroke-miterlimit="10" x1="61" y1="521" x2="176" y2="521"/>
		
			<line display="inline" fill="none" stroke="#999999" stroke-width="6" stroke-miterlimit="10" x1="60" y1="520" x2="175" y2="520"/>
	</g>
	<g id="Row_Rev_1_">
		<g>
			<path d="M17.78,166.29c0,0.85,0.07,1.6,0.2,2.24c0.13,0.64,0.3,1.19,0.51,1.66c0.21,0.47,0.43,0.87,0.66,1.21
				c0.23,0.34,0.45,0.63,0.66,0.88s0.38,0.479,0.51,0.67c0.13,0.2,0.2,0.39,0.2,0.59c0,0.17-0.04,0.31-0.11,0.42
				c-0.07,0.11-0.14,0.2-0.21,0.27l-2.37,1.91c-1.51-1.32-2.67-2.86-3.48-4.64c-0.8-1.78-1.21-3.82-1.21-6.13
				c0-1.86,0.33-3.52,1-4.98s1.59-2.69,2.76-3.7c1.17-1.01,2.57-1.77,4.18-2.3c1.61-0.52,3.37-0.79,5.27-0.79
				c1.75,0,3.41,0.19,4.97,0.57s3,0.92,4.33,1.62c1.32,0.7,2.51,1.54,3.56,2.52s1.95,2.07,2.69,3.26c0.74,1.19,1.31,2.47,1.7,3.85
				s0.59,2.82,0.59,4.31c0,1.11-0.1,2.12-0.3,3.03c-0.2,0.91-0.49,1.73-0.85,2.48s-0.8,1.41-1.31,2c-0.51,0.59-1.08,1.12-1.71,1.6
				l-2.27-1.89c-0.17-0.14-0.31-0.3-0.44-0.49s-0.19-0.42-0.19-0.7c0-0.31,0.13-0.6,0.38-0.88c0.25-0.28,0.53-0.63,0.83-1.06
				c0.3-0.43,0.58-0.98,0.83-1.66c0.25-0.68,0.38-1.57,0.38-2.68c0-1.46-0.3-2.81-0.89-4.05c-0.59-1.25-1.45-2.33-2.55-3.26
				c-1.11-0.92-2.44-1.65-4-2.17c-1.56-0.53-3.31-0.79-5.26-0.79c-1.41,0-2.68,0.18-3.8,0.54s-2.07,0.85-2.85,1.48
				c-0.78,0.63-1.37,1.38-1.79,2.25C17.99,164.33,17.78,165.27,17.78,166.29z"/>
			<path d="M13.5,178.49l21.57,2.63v2.63c0,0.5-0.11,0.92-0.34,1.24c-0.22,0.32-0.58,0.48-1.07,0.48c-0.1,0-0.27-0.01-0.5-0.02
				c-0.24-0.01-0.61-0.03-1.12-0.04c-0.51-0.01-1.23-0.04-2.15-0.08c1.69,0.88,3,1.85,3.93,2.9c0.92,1.05,1.39,2.14,1.39,3.28
				c0,0.57-0.13,1.16-0.38,1.74l-4.96-0.95c0.29-0.7,0.44-1.36,0.44-2c0-1.25-0.59-2.34-1.79-3.28c-1.19-0.94-3.05-1.71-5.59-2.31
				l-9.43-1.13V178.49z"/>
			<path d="M13.18,201.03c0-1.19,0.2-2.29,0.6-3.31c0.4-1.02,0.98-1.89,1.75-2.63c0.77-0.74,1.71-1.31,2.83-1.73
				c1.12-0.42,2.4-0.63,3.84-0.63c1.86,0,3.6,0.3,5.21,0.89c1.61,0.59,3,1.41,4.18,2.44c1.18,1.03,2.1,2.23,2.77,3.6
				s1.01,2.83,1.01,4.39c0,1.19-0.2,2.29-0.6,3.31c-0.4,1.01-0.98,1.89-1.75,2.64c-0.77,0.74-1.72,1.32-2.83,1.74
				c-1.12,0.42-2.4,0.63-3.84,0.63c-1.85,0-3.57-0.3-5.18-0.9c-1.6-0.6-3-1.42-4.18-2.45c-1.18-1.03-2.11-2.23-2.79-3.6
				C13.52,204.04,13.18,202.58,13.18,201.03z M17.17,201.49c0,0.87,0.25,1.65,0.75,2.35c0.5,0.7,1.16,1.3,1.99,1.8
				s1.8,0.88,2.91,1.14c1.11,0.27,2.27,0.4,3.49,0.4c1.75,0,3.04-0.3,3.86-0.89c0.83-0.6,1.24-1.5,1.24-2.7
				c0-0.87-0.25-1.65-0.74-2.35c-0.49-0.7-1.15-1.29-2-1.79c-0.84-0.49-1.81-0.87-2.92-1.13c-1.11-0.27-2.27-0.4-3.51-0.4
				c-1.75,0-3.03,0.29-3.85,0.88C17.58,199.39,17.17,200.29,17.17,201.49z"/>
			<path d="M30.99,228.64c-0.22-0.15-0.38-0.3-0.47-0.44c-0.09-0.14-0.14-0.32-0.14-0.55c0-0.24,0.07-0.48,0.21-0.74
				c0.14-0.26,0.3-0.54,0.47-0.87s0.33-0.71,0.47-1.13c0.14-0.43,0.21-0.94,0.21-1.54c0-1.11-0.25-1.95-0.75-2.54
				s-1.12-0.88-1.86-0.88c-0.43,0-0.8,0.12-1.1,0.37c-0.3,0.25-0.56,0.56-0.79,0.96c-0.22,0.39-0.43,0.84-0.62,1.34
				s-0.39,1.02-0.61,1.55c-0.22,0.53-0.46,1.05-0.74,1.55c-0.27,0.5-0.61,0.95-1,1.34s-0.86,0.71-1.42,0.96
				c-0.55,0.25-1.21,0.37-1.99,0.37c-1.04,0-2.02-0.21-2.96-0.62s-1.76-1-2.47-1.77s-1.27-1.7-1.68-2.79s-0.62-2.31-0.62-3.65
				c0-0.69,0.07-1.35,0.2-1.98c0.13-0.64,0.32-1.24,0.56-1.8c0.24-0.56,0.52-1.07,0.84-1.521c0.32-0.45,0.67-0.84,1.05-1.17
				l1.97,1.26c0.24,0.15,0.42,0.34,0.55,0.56c0.13,0.22,0.19,0.47,0.19,0.77c0,0.3-0.09,0.56-0.27,0.8
				c-0.18,0.24-0.38,0.52-0.6,0.84c-0.22,0.32-0.42,0.71-0.6,1.17c-0.18,0.45-0.27,1.04-0.27,1.75c0,0.57,0.08,1.08,0.23,1.52
				c0.15,0.44,0.36,0.81,0.63,1.11c0.27,0.3,0.57,0.53,0.92,0.68c0.35,0.15,0.72,0.23,1.11,0.23c0.48,0,0.87-0.12,1.19-0.36
				c0.32-0.24,0.59-0.56,0.82-0.96s0.43-0.85,0.61-1.36c0.18-0.5,0.36-1.02,0.56-1.54c0.2-0.52,0.42-1.04,0.67-1.53
				c0.25-0.49,0.57-0.95,0.96-1.34c0.38-0.4,0.85-0.72,1.41-0.96c0.55-0.24,1.23-0.36,2.03-0.36c0.95,0,1.88,0.18,2.78,0.55
				s1.7,0.9,2.39,1.61c0.69,0.71,1.25,1.58,1.67,2.6c0.42,1.03,0.63,2.21,0.63,3.54c0,1.37-0.23,2.59-0.7,3.64
				c-0.47,1.06-1.07,1.95-1.8,2.68L30.99,228.64z"/>
			<path d="M30.99,245.13c-0.22-0.15-0.38-0.3-0.47-0.44s-0.14-0.32-0.14-0.55c0-0.24,0.07-0.48,0.21-0.74
				c0.14-0.26,0.3-0.54,0.47-0.87c0.17-0.33,0.33-0.71,0.47-1.13c0.14-0.43,0.21-0.94,0.21-1.54c0-1.11-0.25-1.95-0.75-2.54
				c-0.5-0.59-1.12-0.88-1.86-0.88c-0.43,0-0.8,0.12-1.1,0.37c-0.3,0.25-0.56,0.56-0.79,0.96c-0.22,0.39-0.43,0.84-0.62,1.34
				s-0.39,1.02-0.61,1.55c-0.22,0.53-0.46,1.05-0.74,1.55c-0.27,0.5-0.61,0.95-1,1.34c-0.39,0.39-0.86,0.71-1.42,0.96
				c-0.55,0.25-1.21,0.37-1.99,0.37c-1.04,0-2.02-0.21-2.96-0.62c-0.94-0.41-1.76-1-2.47-1.77c-0.71-0.77-1.27-1.7-1.68-2.79
				c-0.41-1.09-0.62-2.31-0.62-3.65c0-0.69,0.07-1.35,0.2-1.98c0.13-0.64,0.32-1.24,0.56-1.8c0.24-0.56,0.52-1.07,0.84-1.52
				s0.67-0.84,1.05-1.17l1.97,1.26c0.24,0.15,0.42,0.34,0.55,0.56c0.13,0.22,0.19,0.47,0.19,0.77c0,0.3-0.09,0.56-0.27,0.8
				c-0.18,0.24-0.38,0.52-0.6,0.84c-0.22,0.32-0.42,0.71-0.6,1.17c-0.18,0.45-0.27,1.04-0.27,1.75c0,0.57,0.08,1.08,0.23,1.52
				s0.36,0.81,0.63,1.11c0.27,0.3,0.57,0.53,0.92,0.68c0.35,0.15,0.72,0.23,1.11,0.23c0.48,0,0.87-0.12,1.19-0.36
				c0.32-0.24,0.59-0.56,0.82-0.96c0.23-0.4,0.43-0.85,0.61-1.36c0.18-0.5,0.36-1.02,0.56-1.54c0.2-0.52,0.42-1.04,0.67-1.53
				c0.25-0.49,0.57-0.95,0.96-1.34c0.38-0.4,0.85-0.72,1.41-0.96c0.55-0.24,1.23-0.36,2.03-0.36c0.95,0,1.88,0.18,2.78,0.55
				s1.7,0.9,2.39,1.61s1.25,1.58,1.67,2.6c0.42,1.03,0.63,2.21,0.63,3.54c0,1.37-0.23,2.59-0.7,3.64c-0.47,1.06-1.07,1.95-1.8,2.68
				L30.99,245.13z"/>
			<path d="M13.5,280.3v-4.22c0-0.48,0.11-0.85,0.34-1.13s0.53-0.46,0.9-0.53l6.34-1.26v-11.32l-6.34-2.81
				c-0.32-0.15-0.61-0.41-0.86-0.76s-0.38-0.74-0.38-1.18v-4.28l30.37,14.68v5.571L13.5,280.3z M24.92,263.54v8.84l10.4-2.06
				c0.5-0.11,1.04-0.22,1.6-0.34c0.56-0.11,1.19-0.22,1.89-0.32c-0.7-0.27-1.35-0.53-1.94-0.79c-0.59-0.26-1.12-0.5-1.56-0.72
				L24.92,263.54z"/>
			<path d="M25.16,288.68l9.89-5v4.7c0,0.351-0.05,0.601-0.15,0.761c-0.1,0.149-0.27,0.289-0.5,0.399l-6.43,2.96
				c0.17,0.08,0.34,0.17,0.51,0.27c0.17,0.101,0.35,0.211,0.54,0.34l5.29,3.781c0.24,0.17,0.42,0.34,0.55,0.529
				c0.13,0.18,0.19,0.391,0.19,0.63v4.7l-9.91-7.58l-11.63,5.54v-4.729c0-0.351,0.09-0.631,0.28-0.83c0.19-0.2,0.41-0.36,0.66-0.471
				l7.56-3.3c-0.15-0.069-0.31-0.149-0.46-0.229c-0.15-0.08-0.29-0.17-0.42-0.25l-6.68-4.791c-0.24-0.18-0.46-0.379-0.65-0.609
				c-0.2-0.22-0.29-0.5-0.29-0.82v-4.56L25.16,288.68z"/>
			<path d="M35.05,311.65l-21.55-2.58v-5.12l21.55,2.58V311.65z M41.33,312.96c-0.45,0-0.87-0.09-1.26-0.28
				c-0.39-0.189-0.74-0.43-1.03-0.729s-0.53-0.65-0.7-1.04c-0.17-0.391-0.26-0.8-0.26-1.22c0-0.41,0.09-0.801,0.26-1.19
				c0.18-0.39,0.41-0.72,0.7-1.02c0.29-0.301,0.64-0.53,1.03-0.7c0.39-0.181,0.81-0.261,1.26-0.261c0.45,0,0.88,0.091,1.28,0.271
				c0.41,0.18,0.76,0.42,1.06,0.71c0.3,0.29,0.54,0.63,0.71,1.02c0.17,0.391,0.26,0.78,0.26,1.19c0,0.42-0.09,0.83-0.26,1.22
				c-0.18,0.391-0.41,0.74-0.7,1.04s-0.64,0.54-1.05,0.72C42.22,312.86,41.79,312.96,41.33,312.96z"/>
			<path d="M30.99,328.6c-0.22-0.149-0.38-0.3-0.47-0.439c-0.09-0.141-0.14-0.32-0.14-0.55c0-0.24,0.07-0.48,0.21-0.74
				c0.14-0.26,0.3-0.54,0.47-0.87s0.33-0.71,0.47-1.13c0.14-0.43,0.21-0.94,0.21-1.54c0-1.11-0.25-1.95-0.75-2.54
				s-1.12-0.88-1.86-0.88c-0.43,0-0.8,0.12-1.1,0.37c-0.3,0.25-0.56,0.56-0.79,0.96c-0.22,0.39-0.43,0.84-0.62,1.34
				s-0.39,1.02-0.61,1.55c-0.22,0.53-0.46,1.05-0.74,1.55c-0.27,0.5-0.61,0.95-1,1.34c-0.39,0.391-0.86,0.71-1.42,0.96
				c-0.55,0.25-1.21,0.37-1.99,0.37c-1.04,0-2.02-0.21-2.96-0.62c-0.94-0.409-1.76-1-2.47-1.77s-1.27-1.7-1.68-2.79
				s-0.62-2.31-0.62-3.65c0-0.689,0.07-1.35,0.2-1.979c0.13-0.64,0.32-1.24,0.56-1.8c0.24-0.561,0.52-1.07,0.84-1.521
				s0.67-0.84,1.05-1.17l1.97,1.26c0.24,0.15,0.42,0.341,0.55,0.561c0.13,0.22,0.19,0.47,0.19,0.77s-0.09,0.561-0.27,0.8
				c-0.18,0.24-0.38,0.521-0.6,0.841c-0.22,0.319-0.42,0.71-0.6,1.17c-0.18,0.45-0.27,1.04-0.27,1.75c0,0.569,0.08,1.08,0.23,1.52
				c0.15,0.44,0.36,0.811,0.63,1.11s0.57,0.53,0.92,0.68c0.35,0.15,0.72,0.23,1.11,0.23c0.48,0,0.87-0.12,1.19-0.36
				c0.32-0.24,0.59-0.56,0.82-0.96s0.43-0.85,0.61-1.36c0.18-0.5,0.36-1.02,0.56-1.54c0.2-0.52,0.42-1.04,0.67-1.529
				c0.25-0.49,0.57-0.95,0.96-1.34c0.38-0.4,0.85-0.721,1.41-0.96c0.55-0.24,1.23-0.36,2.03-0.36c0.95,0,1.88,0.18,2.78,0.55
				s1.7,0.9,2.39,1.61s1.25,1.58,1.67,2.6c0.42,1.03,0.63,2.21,0.63,3.54c0,1.37-0.23,2.59-0.7,3.64
				c-0.47,1.061-1.07,1.95-1.8,2.681L30.99,328.6z"/>
		</g>
		<g>
			<path fill="#999999" d="M16.88,165.29c0,0.85,0.07,1.6,0.2,2.24c0.13,0.64,0.31,1.19,0.52,1.66c0.21,0.47,0.43,0.87,0.67,1.21
				c0.23,0.34,0.45,0.63,0.67,0.88c0.22,0.25,0.38,0.479,0.52,0.67c0.13,0.2,0.2,0.39,0.2,0.59c0,0.17-0.04,0.31-0.11,0.42
				c-0.07,0.11-0.14,0.2-0.21,0.27l-2.39,1.91c-1.52-1.32-2.69-2.86-3.5-4.64c-0.81-1.78-1.22-3.82-1.22-6.13
				c0-1.86,0.33-3.52,1-4.98s1.6-2.69,2.78-3.7c1.18-1.01,2.59-1.77,4.21-2.3c1.62-0.52,3.39-0.79,5.31-0.79
				c1.76,0,3.43,0.19,5,0.57c1.57,0.38,3.02,0.92,4.36,1.62c1.33,0.7,2.53,1.54,3.58,2.52c1.05,0.98,1.96,2.06,2.71,3.26
				c0.75,1.19,1.32,2.47,1.71,3.85c0.39,1.38,0.59,2.82,0.59,4.32c0,1.11-0.1,2.11-0.31,3.02c-0.2,0.91-0.49,1.74-0.86,2.48
				c-0.37,0.74-0.81,1.41-1.32,2c-0.51,0.59-1.09,1.12-1.72,1.6l-2.28-1.89c-0.17-0.14-0.32-0.3-0.44-0.49
				c-0.13-0.19-0.19-0.42-0.19-0.7c0-0.31,0.13-0.6,0.38-0.88c0.25-0.28,0.53-0.63,0.84-1.06c0.3-0.43,0.58-0.98,0.83-1.66
				c0.25-0.68,0.38-1.57,0.38-2.68c0-1.46-0.3-2.81-0.9-4.05c-0.6-1.24-1.46-2.33-2.57-3.25c-1.11-0.92-2.46-1.65-4.03-2.17
				c-1.57-0.53-3.34-0.79-5.3-0.79c-1.42,0-2.7,0.18-3.83,0.54c-1.13,0.36-2.08,0.85-2.86,1.48c-0.78,0.63-1.38,1.38-1.8,2.25
				C17.09,163.33,16.88,164.27,16.88,165.29z"/>
			<path fill="#999999" d="M12.57,177.49l21.71,2.63v2.63c0,0.5-0.11,0.92-0.34,1.24c-0.23,0.32-0.59,0.48-1.08,0.48
				c-0.1,0-0.27-0.01-0.51-0.02c-0.24-0.01-0.62-0.03-1.13-0.04c-0.51-0.01-1.24-0.04-2.17-0.08c1.71,0.88,3.02,1.85,3.95,2.9
				c0.93,1.05,1.4,2.14,1.4,3.28c0,0.57-0.13,1.16-0.38,1.74l-4.99-0.94c0.3-0.7,0.44-1.37,0.44-2c0-1.25-0.6-2.34-1.8-3.28
				c-1.2-0.94-3.07-1.71-5.62-2.31l-9.49-1.13v-5.1H12.57z"/>
			<path fill="#999999" d="M12.25,200.03c0-1.19,0.2-2.29,0.6-3.31s0.99-1.89,1.77-2.63c0.77-0.74,1.73-1.31,2.85-1.73
				c1.13-0.42,2.42-0.63,3.87-0.63c1.87,0,3.62,0.3,5.24,0.89c1.62,0.6,3.02,1.41,4.21,2.44c1.18,1.03,2.11,2.23,2.79,3.6
				c0.68,1.37,1.01,2.83,1.01,4.39c0,1.19-0.2,2.29-0.6,3.31c-0.4,1.02-0.99,1.89-1.77,2.64c-0.78,0.75-1.73,1.32-2.85,1.74
				c-1.13,0.42-2.42,0.63-3.87,0.63c-1.86,0-3.6-0.3-5.21-0.9c-1.61-0.6-3.02-1.42-4.21-2.45s-2.13-2.23-2.81-3.6
				C12.6,203.04,12.25,201.58,12.25,200.03z M16.27,200.49c0,0.87,0.25,1.65,0.75,2.35c0.5,0.7,1.17,1.3,2.01,1.8
				c0.84,0.5,1.81,0.88,2.93,1.14c1.11,0.27,2.28,0.4,3.51,0.4c1.76,0,3.06-0.3,3.89-0.89c0.83-0.6,1.25-1.5,1.25-2.7
				c0-0.87-0.25-1.65-0.74-2.35c-0.49-0.7-1.16-1.3-2.01-1.79c-0.85-0.49-1.83-0.87-2.94-1.13c-1.11-0.26-2.29-0.4-3.53-0.4
				c-1.76,0-3.06,0.29-3.88,0.88C16.68,198.39,16.27,199.29,16.27,200.49z"/>
			<path fill="#999999" d="M30.18,227.64c-0.23-0.15-0.38-0.3-0.48-0.44c-0.09-0.14-0.14-0.32-0.14-0.55c0-0.24,0.07-0.48,0.21-0.74
				c0.14-0.25,0.3-0.54,0.48-0.87s0.33-0.71,0.48-1.13c0.14-0.43,0.21-0.94,0.21-1.54c0-1.11-0.25-1.95-0.75-2.54
				s-1.12-0.88-1.87-0.88c-0.44,0-0.81,0.12-1.11,0.37s-0.57,0.56-0.79,0.96c-0.23,0.39-0.43,0.84-0.62,1.34
				c-0.19,0.5-0.39,1.02-0.61,1.55c-0.22,0.53-0.47,1.05-0.74,1.55s-0.61,0.95-1,1.34c-0.39,0.39-0.87,0.71-1.43,0.96
				s-1.22,0.37-2,0.37c-1.04,0-2.04-0.21-2.98-0.62s-1.77-1-2.48-1.77s-1.28-1.7-1.69-2.79c-0.42-1.09-0.62-2.31-0.62-3.65
				c0-0.69,0.07-1.35,0.2-1.98c0.13-0.63,0.32-1.24,0.56-1.8c0.24-0.56,0.52-1.07,0.85-1.521c0.33-0.45,0.68-0.84,1.06-1.17
				l1.99,1.26c0.24,0.15,0.42,0.34,0.55,0.56c0.13,0.22,0.19,0.47,0.19,0.77c0,0.3-0.09,0.56-0.27,0.8
				c-0.18,0.24-0.38,0.52-0.6,0.84c-0.22,0.32-0.42,0.71-0.6,1.17c-0.18,0.45-0.27,1.04-0.27,1.75c0,0.57,0.08,1.08,0.23,1.52
				c0.15,0.44,0.37,0.81,0.63,1.11c0.27,0.3,0.58,0.53,0.93,0.68c0.35,0.15,0.73,0.23,1.12,0.23c0.48,0,0.88-0.12,1.19-0.36
				c0.32-0.24,0.59-0.56,0.82-0.96s0.44-0.85,0.61-1.36c0.18-0.5,0.36-1.02,0.56-1.54c0.2-0.53,0.42-1.04,0.68-1.53
				c0.25-0.5,0.57-0.95,0.96-1.34c0.39-0.4,0.86-0.72,1.42-0.96c0.56-0.24,1.24-0.36,2.04-0.36c0.96,0,1.89,0.18,2.8,0.55
				c0.91,0.37,1.71,0.9,2.41,1.61c0.7,0.71,1.26,1.58,1.68,2.6c0.42,1.03,0.63,2.21,0.63,3.54c0,1.37-0.24,2.59-0.71,3.64
				c-0.47,1.06-1.07,1.95-1.81,2.68L30.18,227.64z"/>
			<path fill="#999999" d="M30.18,244.13c-0.23-0.15-0.38-0.3-0.48-0.44c-0.09-0.14-0.14-0.32-0.14-0.55c0-0.24,0.07-0.48,0.21-0.74
				c0.14-0.25,0.3-0.54,0.48-0.87c0.18-0.33,0.33-0.71,0.48-1.13c0.14-0.43,0.21-0.94,0.21-1.54c0-1.11-0.25-1.95-0.75-2.54
				c-0.5-0.59-1.12-0.88-1.87-0.88c-0.44,0-0.81,0.12-1.11,0.37s-0.57,0.56-0.79,0.96c-0.23,0.39-0.43,0.84-0.62,1.34
				c-0.19,0.5-0.39,1.02-0.61,1.55c-0.22,0.53-0.47,1.05-0.74,1.55s-0.61,0.95-1,1.34c-0.39,0.39-0.87,0.71-1.43,0.96
				s-1.22,0.37-2,0.37c-1.04,0-2.04-0.21-2.98-0.62c-0.94-0.41-1.77-1-2.48-1.77c-0.71-0.77-1.28-1.7-1.69-2.79
				c-0.42-1.09-0.62-2.31-0.62-3.65c0-0.69,0.07-1.35,0.2-1.98c0.13-0.63,0.32-1.24,0.56-1.8c0.24-0.56,0.52-1.07,0.85-1.52
				s0.68-0.84,1.06-1.17l1.99,1.26c0.24,0.15,0.42,0.34,0.55,0.56c0.13,0.22,0.19,0.47,0.19,0.77c0,0.3-0.09,0.56-0.27,0.8
				c-0.18,0.24-0.38,0.52-0.6,0.84c-0.22,0.32-0.42,0.71-0.6,1.17c-0.18,0.45-0.27,1.04-0.27,1.75c0,0.57,0.08,1.08,0.23,1.52
				s0.37,0.81,0.63,1.11c0.27,0.3,0.58,0.53,0.93,0.68c0.35,0.15,0.73,0.23,1.12,0.23c0.48,0,0.88-0.12,1.19-0.36
				c0.32-0.24,0.59-0.56,0.82-0.96c0.23-0.4,0.44-0.85,0.61-1.36c0.18-0.5,0.36-1.02,0.56-1.54c0.2-0.53,0.42-1.04,0.68-1.53
				c0.25-0.5,0.57-0.95,0.96-1.34c0.39-0.4,0.86-0.72,1.42-0.96c0.56-0.24,1.24-0.36,2.04-0.36c0.96,0,1.89,0.18,2.8,0.55
				c0.91,0.37,1.71,0.9,2.41,1.61c0.7,0.71,1.26,1.58,1.68,2.6c0.42,1.03,0.63,2.21,0.63,3.54c0,1.37-0.24,2.59-0.71,3.64
				c-0.47,1.06-1.07,1.95-1.81,2.68L30.18,244.13z"/>
			<path fill="#999999" d="M12.57,279.3v-4.22c0-0.48,0.11-0.85,0.34-1.13s0.53-0.46,0.91-0.53l6.38-1.26v-11.32l-6.38-2.81
				c-0.32-0.15-0.61-0.41-0.87-0.76c-0.25-0.35-0.38-0.74-0.38-1.18v-4.28l30.57,14.68v5.57L12.57,279.3z M24.07,262.54v8.84
				l10.47-2.06c0.51-0.11,1.04-0.22,1.61-0.34c0.56-0.11,1.2-0.22,1.9-0.32c-0.71-0.27-1.36-0.53-1.96-0.79
				c-0.6-0.26-1.12-0.5-1.58-0.72L24.07,262.54z"/>
			<path fill="#999999" d="M24.31,287.68l9.96-5v4.7c0,0.351-0.05,0.601-0.15,0.761c-0.1,0.159-0.27,0.289-0.51,0.399l-6.47,2.96
				c0.17,0.08,0.34,0.17,0.52,0.27c0.18,0.101,0.36,0.211,0.54,0.34l5.33,3.781c0.24,0.17,0.42,0.34,0.55,0.529
				c0.13,0.18,0.19,0.391,0.19,0.63v4.7l-9.98-7.58l-11.71,5.54v-4.729c0-0.351,0.1-0.631,0.29-0.83c0.19-0.2,0.41-0.36,0.67-0.471
				l7.61-3.3c-0.16-0.069-0.31-0.149-0.47-0.229c-0.16-0.08-0.3-0.17-0.42-0.25l-6.72-4.791c-0.24-0.18-0.46-0.379-0.66-0.609
				c-0.2-0.22-0.3-0.5-0.3-0.82v-4.56L24.31,287.68z"/>
			<path fill="#999999" d="M34.26,310.65l-21.69-2.58v-5.12l21.69,2.579V310.65z M40.59,311.96c-0.45,0-0.87-0.09-1.27-0.28
				c-0.39-0.189-0.74-0.43-1.04-0.729c-0.3-0.3-0.53-0.65-0.71-1.04c-0.18-0.391-0.26-0.8-0.26-1.22c0-0.41,0.09-0.801,0.26-1.19
				c0.18-0.39,0.41-0.72,0.71-1.02c0.3-0.301,0.64-0.53,1.04-0.701c0.39-0.18,0.82-0.26,1.27-0.26c0.45,0,0.88,0.09,1.29,0.271
				c0.41,0.18,0.76,0.42,1.07,0.71c0.3,0.29,0.54,0.63,0.72,1.02c0.18,0.391,0.26,0.78,0.26,1.19c0,0.42-0.09,0.83-0.26,1.22
				c-0.18,0.391-0.41,0.74-0.71,1.04s-0.65,0.54-1.06,0.72C41.49,311.86,41.05,311.96,40.59,311.96z"/>
			<path fill="#999999" d="M30.18,327.6c-0.23-0.149-0.38-0.3-0.48-0.439c-0.09-0.141-0.14-0.32-0.14-0.55
				c0-0.24,0.07-0.48,0.21-0.74c0.14-0.25,0.3-0.54,0.48-0.87s0.33-0.71,0.48-1.13c0.14-0.43,0.21-0.94,0.21-1.54
				c0-1.11-0.25-1.95-0.75-2.54s-1.12-0.88-1.87-0.88c-0.44,0-0.81,0.12-1.11,0.37s-0.57,0.56-0.79,0.96
				c-0.23,0.39-0.43,0.84-0.62,1.34c-0.19,0.5-0.39,1.02-0.61,1.55c-0.22,0.53-0.47,1.05-0.74,1.55s-0.61,0.95-1,1.34
				c-0.39,0.391-0.87,0.71-1.43,0.96s-1.22,0.37-2,0.37c-1.04,0-2.04-0.21-2.98-0.62c-0.94-0.409-1.77-1-2.48-1.77
				s-1.28-1.7-1.69-2.79c-0.42-1.09-0.62-2.31-0.62-3.65c0-0.689,0.07-1.35,0.2-1.979c0.13-0.63,0.32-1.24,0.56-1.8
				c0.24-0.561,0.52-1.07,0.85-1.521s0.68-0.84,1.06-1.17l1.99,1.26c0.24,0.15,0.42,0.341,0.55,0.561s0.19,0.47,0.19,0.77
				s-0.09,0.561-0.27,0.8c-0.18,0.24-0.38,0.521-0.6,0.841c-0.22,0.319-0.42,0.71-0.6,1.17c-0.18,0.45-0.27,1.04-0.27,1.75
				c0,0.569,0.08,1.08,0.23,1.52c0.15,0.44,0.37,0.811,0.63,1.11c0.27,0.3,0.58,0.53,0.93,0.68c0.35,0.15,0.73,0.23,1.12,0.23
				c0.48,0,0.88-0.12,1.19-0.36c0.32-0.24,0.59-0.56,0.82-0.96s0.44-0.85,0.61-1.36c0.18-0.5,0.36-1.02,0.56-1.54
				c0.2-0.529,0.42-1.04,0.68-1.529c0.25-0.5,0.57-0.95,0.96-1.34c0.39-0.4,0.86-0.721,1.42-0.96c0.56-0.24,1.24-0.36,2.04-0.36
				c0.96,0,1.89,0.18,2.8,0.55c0.91,0.37,1.71,0.9,2.41,1.61c0.7,0.71,1.26,1.58,1.68,2.6c0.42,1.03,0.63,2.21,0.63,3.54
				c0,1.37-0.24,2.59-0.71,3.64c-0.47,1.061-1.07,1.95-1.81,2.681L30.18,327.6z"/>
		</g>
		<line fill="none" stroke="#000000" stroke-width="6" stroke-miterlimit="10" x1="386" y1="521" x2="511" y2="521"/>
		<line fill="none" stroke="#FFFFFF" stroke-width="6" stroke-miterlimit="10" x1="385" y1="520" x2="510" y2="520"/>
		<g>
			<line fill="none" stroke="#000000" stroke-width="6" stroke-miterlimit="10" x1="97" y1="521" x2="176" y2="521"/>
			<g>
				<polygon points="113.67,543.22 104.23,521 113.67,498.78 61,521 				"/>
			</g>
		</g>
		<g>
			<line fill="none" x1="60" y1="520" x2="175" y2="520"/>
			<g>
				<line fill="none" stroke="#FFFFFF" stroke-width="6" stroke-miterlimit="10" x1="96" y1="520" x2="175" y2="520"/>
				<g>
					<polygon fill="#FFFFFF" points="112.67,542.22 103.23,520 112.67,497.78 60,520 					"/>
				</g>
			</g>
		</g>
		<g>
			<path d="M208.66,522.82c0.1,0.38,0.2,0.76,0.29,1.149c0.17-0.39,0.35-0.779,0.55-1.149c0.2-0.38,0.41-0.75,0.63-1.11l10.54-17.35
				c0.13-0.21,0.25-0.38,0.39-0.49c0.13-0.12,0.27-0.21,0.42-0.26c0.15-0.061,0.31-0.091,0.49-0.11c0.18-0.02,0.39-0.02,0.63-0.02
				h4.14L223,533.84h-4.79l2.44-19.78c0.04-0.359,0.11-0.76,0.19-1.199c0.08-0.44,0.17-0.88,0.27-1.32l-10.44,17.35
				c-0.24,0.391-0.54,0.69-0.89,0.88c-0.36,0.2-0.75,0.29-1.17,0.29h-0.76c-0.42,0-0.79-0.1-1.1-0.29
				c-0.32-0.199-0.54-0.489-0.68-0.88l-6.26-17.279c-0.01,0.439-0.03,0.859-0.05,1.26c-0.02,0.399-0.05,0.78-0.09,1.109l-2.39,19.87
				h-4.81l3.74-30.37h4.09c0.24,0,0.45,0.011,0.63,0.021c0.18,0.01,0.34,0.05,0.48,0.11c0.14,0.06,0.26,0.14,0.36,0.26
				s0.19,0.28,0.27,0.49l6.28,17.35C208.45,522.07,208.56,522.44,208.66,522.82z"/>
			<path d="M245.03,533.84h-2.73c-0.63,0-1.07-0.149-1.32-0.439s-0.38-0.66-0.38-1.11l0.17-2.94c-0.95,1.48-2.02,2.66-3.21,3.521
				s-2.5,1.29-3.93,1.29c-0.81,0-1.57-0.16-2.28-0.48c-0.71-0.319-1.32-0.8-1.85-1.439c-0.52-0.641-0.94-1.43-1.24-2.391
				c-0.3-0.96-0.45-2.08-0.45-3.369c0-1.29,0.16-2.54,0.48-3.761c0.32-1.22,0.78-2.359,1.38-3.43c0.59-1.07,1.31-2.05,2.15-2.95
				c0.84-0.899,1.78-1.67,2.82-2.31c1.04-0.641,2.17-1.141,3.38-1.5c1.21-0.36,2.49-0.54,3.83-0.54c0.97,0,1.93,0.069,2.91,0.21
				c0.97,0.14,1.93,0.39,2.87,0.76L245.03,533.84z M235.67,529.91c0.57,0,1.14-0.2,1.69-0.59c0.55-0.391,1.07-0.931,1.56-1.631
				c0.49-0.699,0.95-1.51,1.37-2.449c0.42-0.94,0.78-1.95,1.09-3.021l0.82-6.51c-0.38-0.04-0.73-0.06-1.05-0.06
				c-1.16,0-2.24,0.27-3.23,0.8c-0.99,0.529-1.86,1.25-2.58,2.149c-0.73,0.9-1.3,1.95-1.71,3.15c-0.41,1.2-0.62,2.46-0.62,3.79
				c0,1.51,0.24,2.62,0.71,3.32C234.19,529.56,234.84,529.91,235.67,529.91z"/>
			<path d="M258.01,512.29l-2.58,21.55h-5.12l2.58-21.55H258.01z M259.31,506.02c0,0.45-0.09,0.87-0.28,1.261
				c-0.19,0.39-0.43,0.739-0.73,1.029c-0.3,0.29-0.65,0.53-1.04,0.71c-0.39,0.171-0.8,0.261-1.22,0.261c-0.41,0-0.8-0.09-1.19-0.261
				c-0.38-0.18-0.72-0.409-1.02-0.71c-0.29-0.29-0.53-0.64-0.7-1.029c-0.18-0.391-0.26-0.811-0.26-1.261
				c0-0.449,0.09-0.869,0.27-1.279c0.18-0.41,0.42-0.76,0.71-1.061c0.29-0.3,0.63-0.54,1.02-0.71c0.38-0.17,0.78-0.26,1.19-0.26
				c0.42,0,0.83,0.09,1.22,0.26c0.39,0.181,0.74,0.41,1.04,0.7c0.3,0.29,0.54,0.64,0.72,1.05S259.31,505.55,259.31,506.02z"/>
			<path d="M260.66,533.84l2.58-21.57h2.65c0.549,0,0.969,0.131,1.27,0.4c0.3,0.271,0.449,0.69,0.449,1.28l-0.149,2.79
				c1.09-1.61,2.3-2.811,3.63-3.601s2.7-1.189,4.12-1.189c0.8,0,1.521,0.14,2.17,0.43c0.65,0.29,1.21,0.71,1.67,1.26
				c0.46,0.551,0.82,1.23,1.07,2.04c0.25,0.811,0.38,1.73,0.38,2.78c0,0.271-0.01,0.54-0.029,0.811
				c-0.021,0.27-0.041,0.56-0.07,0.85l-1.62,13.71h-5.19c0.28-2.37,0.52-4.37,0.71-6.02c0.2-1.641,0.36-3.011,0.48-4.11
				c0.13-1.09,0.22-1.95,0.29-2.57s0.119-1.1,0.16-1.42c0.039-0.32,0.06-0.54,0.06-0.64c0.01-0.101,0.01-0.19,0.01-0.26
				c0-0.921-0.17-1.591-0.5-2.011c-0.34-0.41-0.86-0.62-1.579-0.62c-0.57,0-1.171,0.17-1.791,0.5
				c-0.619,0.341-1.199,0.811-1.76,1.431s-1.07,1.359-1.529,2.229c-0.461,0.87-0.841,1.83-1.131,2.9l-1.18,10.58h-5.17V533.84z"/>
			<path d="M316.26,533.84h-4.22c-0.479,0-0.851-0.109-1.13-0.34c-0.28-0.22-0.46-0.53-0.53-0.9l-1.26-6.34H297.8l-2.81,6.34
				c-0.15,0.32-0.41,0.61-0.76,0.86c-0.351,0.25-0.74,0.38-1.181,0.38h-4.28l14.681-30.37h5.569L316.26,533.84z M299.51,522.42h8.84
				l-2.06-10.4c-0.11-0.5-0.22-1.04-0.34-1.6c-0.11-0.56-0.22-1.19-0.32-1.89c-0.271,0.699-0.53,1.35-0.79,1.939
				c-0.26,0.601-0.5,1.12-0.72,1.561L299.51,522.42z"/>
			<path d="M324.641,522.19l-5-9.891h4.699c0.35,0,0.6,0.05,0.76,0.15c0.15,0.1,0.291,0.27,0.4,0.51l2.96,6.43
				c0.08-0.17,0.17-0.34,0.271-0.52c0.1-0.17,0.209-0.351,0.34-0.54l3.779-5.29c0.17-0.24,0.34-0.42,0.53-0.55
				c0.181-0.13,0.39-0.19,0.63-0.19h4.7l-7.58,9.91l5.54,11.63h-4.73c-0.35,0-0.629-0.1-0.83-0.28
				c-0.199-0.189-0.359-0.409-0.469-0.659l-3.301-7.561c-0.07,0.15-0.15,0.311-0.23,0.46c-0.079,0.15-0.17,0.29-0.25,0.42
				l-4.789,6.681c-0.18,0.239-0.381,0.46-0.61,0.649c-0.22,0.2-0.5,0.29-0.819,0.29h-4.561L324.641,522.19z"/>
			<path d="M347.62,512.29l-2.58,21.55h-5.12l2.58-21.55H347.62z M348.92,506.02c0,0.45-0.09,0.87-0.279,1.261
				c-0.19,0.39-0.431,0.739-0.73,1.029c-0.301,0.29-0.65,0.53-1.04,0.71c-0.39,0.171-0.8,0.261-1.22,0.261
				c-0.41,0-0.801-0.09-1.19-0.261c-0.39-0.18-0.72-0.409-1.021-0.71c-0.289-0.29-0.529-0.64-0.699-1.029
				c-0.18-0.391-0.26-0.811-0.26-1.261c0-0.449,0.09-0.869,0.27-1.279s0.42-0.76,0.71-1.061c0.29-0.3,0.63-0.54,1.021-0.71
				c0.39-0.17,0.779-0.26,1.189-0.26c0.42,0,0.83,0.09,1.221,0.26c0.389,0.181,0.739,0.41,1.039,0.7
				c0.301,0.29,0.54,0.64,0.721,1.05C348.83,505.12,348.92,505.55,348.92,506.02z"/>
			<path d="M364.561,516.35c-0.15,0.221-0.301,0.381-0.44,0.471s-0.32,0.14-0.55,0.14c-0.24,0-0.48-0.07-0.74-0.21
				c-0.25-0.14-0.54-0.3-0.87-0.47c-0.33-0.181-0.71-0.33-1.13-0.471c-0.43-0.14-0.939-0.21-1.54-0.21c-1.11,0-1.95,0.25-2.54,0.75
				s-0.88,1.12-0.88,1.86c0,0.43,0.12,0.8,0.37,1.1c0.25,0.301,0.56,0.561,0.96,0.79c0.39,0.221,0.84,0.431,1.34,0.62
				c0.5,0.19,1.021,0.391,1.55,0.61c0.53,0.22,1.051,0.46,1.551,0.74c0.5,0.27,0.949,0.609,1.34,1c0.39,0.39,0.709,0.869,0.959,1.42
				c0.25,0.55,0.371,1.21,0.371,1.979c0,1.04-0.211,2.021-0.621,2.96c-0.41,0.94-1,1.76-1.77,2.47s-1.7,1.271-2.79,1.681
				s-2.31,0.62-3.649,0.62c-0.69,0-1.351-0.07-1.98-0.2c-0.641-0.13-1.24-0.32-1.8-0.561c-0.56-0.239-1.07-0.52-1.521-0.84
				c-0.449-0.32-0.84-0.67-1.17-1.05l1.26-1.97c0.15-0.24,0.34-0.42,0.561-0.54c0.22-0.13,0.47-0.19,0.77-0.19
				c0.301,0,0.561,0.09,0.801,0.271c0.24,0.18,0.52,0.38,0.84,0.6s0.709,0.42,1.17,0.601c0.449,0.18,1.04,0.27,1.75,0.27
				c0.57,0,1.08-0.08,1.52-0.23c0.44-0.149,0.811-0.359,1.11-0.63c0.3-0.27,0.53-0.569,0.68-0.92c0.15-0.35,0.229-0.72,0.229-1.109
				c0-0.48-0.119-0.87-0.359-1.19s-0.561-0.59-0.96-0.82c-0.399-0.229-0.851-0.43-1.36-0.609c-0.5-0.18-1.02-0.36-1.539-0.561
				c-0.53-0.199-1.041-0.42-1.53-0.67c-0.49-0.25-0.95-0.569-1.341-0.96c-0.399-0.38-0.719-0.85-0.959-1.41
				c-0.24-0.55-0.36-1.229-0.36-2.029c0-0.95,0.18-1.88,0.55-2.78c0.36-0.9,0.9-1.7,1.61-2.39c0.71-0.69,1.579-1.25,2.6-1.671
				c1.03-0.42,2.21-0.63,3.54-0.63c1.37,0,2.59,0.23,3.641,0.7c1.06,0.47,1.949,1.07,2.68,1.8L364.561,516.35z"/>
		</g>
		<g>
			<path fill="#FFFFFF" d="M207.66,521.82c0.1,0.38,0.2,0.76,0.29,1.149c0.17-0.39,0.35-0.779,0.55-1.149
				c0.2-0.38,0.41-0.75,0.63-1.11l10.54-17.35c0.13-0.21,0.25-0.38,0.39-0.49c0.13-0.12,0.27-0.21,0.42-0.26
				c0.15-0.061,0.31-0.091,0.49-0.11c0.18-0.02,0.39-0.02,0.63-0.02h4.14L222,532.84h-4.79l2.44-19.78
				c0.04-0.359,0.11-0.76,0.19-1.199c0.08-0.44,0.17-0.88,0.27-1.32l-10.44,17.35c-0.24,0.391-0.54,0.69-0.89,0.88
				c-0.36,0.2-0.75,0.29-1.17,0.29h-0.76c-0.42,0-0.79-0.1-1.1-0.29c-0.32-0.199-0.54-0.489-0.68-0.88l-6.26-17.279
				c-0.01,0.439-0.03,0.859-0.05,1.26c-0.02,0.399-0.05,0.78-0.09,1.11l-2.39,19.869h-4.81l3.74-30.369h4.09
				c0.24,0,0.45,0.01,0.63,0.02c0.18,0.01,0.34,0.05,0.48,0.11c0.14,0.06,0.26,0.14,0.36,0.26s0.19,0.28,0.27,0.49l6.28,17.35
				C207.45,521.07,207.56,521.44,207.66,521.82z"/>
			<path fill="#FFFFFF" d="M244.03,532.84h-2.73c-0.63,0-1.07-0.149-1.32-0.439s-0.38-0.66-0.38-1.11l0.17-2.94
				c-0.95,1.48-2.02,2.66-3.21,3.521s-2.5,1.29-3.93,1.29c-0.81,0-1.57-0.16-2.28-0.48c-0.71-0.319-1.32-0.8-1.85-1.439
				c-0.52-0.641-0.94-1.43-1.24-2.391c-0.3-0.96-0.45-2.08-0.45-3.369c0-1.29,0.16-2.54,0.48-3.761c0.32-1.22,0.78-2.359,1.38-3.43
				c0.59-1.07,1.31-2.05,2.15-2.95c0.84-0.899,1.78-1.67,2.82-2.31c1.04-0.641,2.17-1.141,3.38-1.5c1.21-0.36,2.49-0.54,3.83-0.54
				c0.97,0,1.93,0.069,2.91,0.21c0.97,0.14,1.93,0.39,2.87,0.76L244.03,532.84z M234.67,528.91c0.57,0,1.14-0.2,1.69-0.59
				c0.55-0.391,1.07-0.931,1.56-1.631c0.49-0.699,0.95-1.51,1.37-2.449c0.42-0.94,0.78-1.95,1.09-3.021l0.82-6.51
				c-0.38-0.04-0.73-0.06-1.05-0.06c-1.16,0-2.24,0.27-3.23,0.8c-0.99,0.529-1.86,1.25-2.58,2.149c-0.73,0.9-1.3,1.95-1.71,3.15
				c-0.41,1.2-0.62,2.46-0.62,3.79c0,1.51,0.24,2.62,0.71,3.32C233.19,528.56,233.84,528.91,234.67,528.91z"/>
			<path fill="#FFFFFF" d="M257.01,511.29l-2.58,21.55h-5.12l2.58-21.55H257.01L257.01,511.29z M258.31,505.02
				c0,0.45-0.09,0.87-0.28,1.261c-0.19,0.39-0.43,0.739-0.73,1.029c-0.3,0.29-0.65,0.53-1.04,0.71c-0.39,0.171-0.8,0.261-1.22,0.261
				c-0.41,0-0.8-0.09-1.19-0.261c-0.38-0.18-0.72-0.409-1.02-0.71c-0.29-0.29-0.53-0.64-0.7-1.029
				c-0.18-0.391-0.26-0.811-0.26-1.261c0-0.449,0.09-0.869,0.27-1.279c0.18-0.41,0.42-0.76,0.71-1.061c0.29-0.3,0.63-0.54,1.02-0.71
				c0.38-0.17,0.78-0.26,1.19-0.26c0.42,0,0.83,0.09,1.22,0.26c0.39,0.181,0.74,0.41,1.04,0.7c0.3,0.29,0.54,0.64,0.72,1.05
				S258.31,504.55,258.31,505.02z"/>
			<path fill="#FFFFFF" d="M259.66,532.84l2.58-21.57h2.65c0.549,0,0.969,0.131,1.27,0.4c0.3,0.271,0.449,0.69,0.449,1.28
				l-0.149,2.79c1.09-1.61,2.3-2.811,3.63-3.601s2.7-1.189,4.12-1.189c0.8,0,1.521,0.14,2.17,0.43c0.65,0.29,1.21,0.71,1.67,1.26
				c0.46,0.551,0.82,1.23,1.07,2.04c0.25,0.811,0.38,1.73,0.38,2.78c0,0.271-0.01,0.54-0.029,0.81
				c-0.021,0.271-0.041,0.561-0.07,0.851l-1.62,13.71h-5.19c0.28-2.37,0.52-4.37,0.71-6.021c0.2-1.64,0.36-3.01,0.48-4.109
				c0.13-1.09,0.22-1.95,0.29-2.57s0.119-1.1,0.16-1.42c0.039-0.32,0.06-0.54,0.06-0.64c0.01-0.101,0.01-0.19,0.01-0.261
				c0-0.92-0.17-1.59-0.5-2.01c-0.34-0.41-0.86-0.62-1.579-0.62c-0.57,0-1.171,0.17-1.791,0.5c-0.619,0.34-1.199,0.811-1.76,1.431
				s-1.07,1.359-1.529,2.229c-0.461,0.87-0.841,1.83-1.131,2.9l-1.18,10.58h-5.17V532.84z"/>
			<path fill="#FFFFFF" d="M315.26,532.84h-4.22c-0.479,0-0.851-0.109-1.13-0.34c-0.28-0.22-0.46-0.53-0.53-0.9l-1.26-6.34H296.8
				l-2.81,6.34c-0.15,0.32-0.41,0.61-0.76,0.86c-0.351,0.25-0.74,0.38-1.181,0.38h-4.28l14.681-30.37h5.569L315.26,532.84z
				 M298.51,521.42h8.84l-2.06-10.4c-0.11-0.5-0.22-1.039-0.34-1.6c-0.11-0.56-0.22-1.189-0.32-1.89
				c-0.271,0.7-0.53,1.35-0.79,1.939c-0.26,0.601-0.5,1.12-0.72,1.561L298.51,521.42z"/>
			<path fill="#FFFFFF" d="M323.641,521.19l-5-9.891h4.699c0.35,0,0.6,0.05,0.76,0.15c0.15,0.1,0.291,0.27,0.4,0.51l2.96,6.43
				c0.08-0.17,0.17-0.34,0.271-0.52c0.1-0.17,0.209-0.351,0.34-0.54l3.779-5.29c0.17-0.24,0.34-0.42,0.53-0.55
				c0.181-0.13,0.39-0.19,0.63-0.19h4.7l-7.58,9.91l5.54,11.63h-4.73c-0.35,0-0.629-0.1-0.83-0.28
				c-0.199-0.189-0.359-0.409-0.469-0.659l-3.301-7.561c-0.07,0.15-0.15,0.311-0.23,0.46c-0.079,0.15-0.17,0.29-0.25,0.42
				l-4.789,6.681c-0.18,0.239-0.381,0.46-0.61,0.649c-0.22,0.2-0.5,0.29-0.819,0.29h-4.561L323.641,521.19z"/>
			<path fill="#FFFFFF" d="M346.62,511.29l-2.58,21.55h-5.12l2.58-21.55H346.62L346.62,511.29z M347.92,505.02
				c0,0.45-0.09,0.87-0.279,1.261c-0.19,0.39-0.431,0.739-0.73,1.029c-0.301,0.29-0.65,0.53-1.04,0.71
				c-0.39,0.171-0.8,0.261-1.22,0.261c-0.41,0-0.801-0.09-1.19-0.261c-0.39-0.18-0.72-0.409-1.021-0.71
				c-0.289-0.29-0.529-0.64-0.699-1.029c-0.18-0.391-0.26-0.811-0.26-1.261c0-0.449,0.09-0.869,0.27-1.279s0.42-0.76,0.71-1.061
				c0.29-0.3,0.63-0.54,1.021-0.71c0.39-0.17,0.779-0.26,1.189-0.26c0.42,0,0.83,0.09,1.221,0.26c0.389,0.181,0.739,0.41,1.039,0.7
				c0.301,0.29,0.54,0.64,0.721,1.05C347.83,504.12,347.92,504.55,347.92,505.02z"/>
			<path fill="#FFFFFF" d="M363.561,515.35c-0.15,0.221-0.301,0.381-0.44,0.471s-0.32,0.14-0.55,0.14c-0.24,0-0.48-0.07-0.74-0.21
				c-0.25-0.14-0.54-0.3-0.87-0.47c-0.33-0.181-0.71-0.33-1.13-0.471c-0.43-0.14-0.939-0.21-1.54-0.21c-1.11,0-1.95,0.25-2.54,0.75
				s-0.88,1.12-0.88,1.86c0,0.43,0.12,0.8,0.37,1.1c0.25,0.301,0.56,0.561,0.96,0.79c0.39,0.221,0.84,0.431,1.34,0.62
				c0.5,0.19,1.021,0.391,1.55,0.61c0.53,0.22,1.051,0.46,1.551,0.74c0.5,0.27,0.949,0.609,1.34,1c0.39,0.39,0.709,0.869,0.959,1.42
				c0.25,0.55,0.371,1.21,0.371,1.979c0,1.04-0.211,2.021-0.621,2.96c-0.41,0.94-1,1.76-1.77,2.47s-1.7,1.271-2.79,1.681
				s-2.31,0.62-3.649,0.62c-0.69,0-1.351-0.07-1.98-0.2c-0.641-0.13-1.24-0.32-1.8-0.561c-0.56-0.239-1.07-0.52-1.521-0.84
				c-0.449-0.32-0.84-0.67-1.17-1.05l1.26-1.97c0.15-0.24,0.34-0.42,0.561-0.54c0.22-0.13,0.47-0.19,0.77-0.19
				c0.301,0,0.561,0.09,0.801,0.271c0.24,0.18,0.52,0.38,0.84,0.6s0.709,0.42,1.17,0.601c0.449,0.18,1.04,0.27,1.75,0.27
				c0.57,0,1.08-0.08,1.52-0.23c0.44-0.149,0.811-0.359,1.11-0.63c0.3-0.27,0.53-0.569,0.68-0.92c0.15-0.35,0.229-0.72,0.229-1.109
				c0-0.48-0.119-0.87-0.359-1.19s-0.561-0.59-0.96-0.82c-0.399-0.229-0.851-0.43-1.36-0.609c-0.5-0.18-1.02-0.36-1.539-0.561
				c-0.53-0.199-1.041-0.42-1.53-0.67c-0.49-0.25-0.95-0.569-1.341-0.96c-0.399-0.38-0.719-0.85-0.959-1.41
				c-0.24-0.55-0.36-1.229-0.36-2.029c0-0.95,0.18-1.88,0.55-2.78c0.36-0.9,0.9-1.7,1.61-2.39c0.71-0.69,1.579-1.25,2.6-1.671
				c1.03-0.42,2.21-0.63,3.54-0.63c1.37,0,2.59,0.23,3.641,0.7c1.06,0.47,1.949,1.07,2.68,1.8L363.561,515.35z"/>
		</g>
	</g>
	<g id="Row" display="none">
		<g display="inline">
			<path d="M17.78,166.29c0,0.85,0.07,1.6,0.2,2.24c0.13,0.64,0.3,1.19,0.51,1.66c0.21,0.47,0.43,0.87,0.66,1.21
				c0.23,0.34,0.45,0.63,0.66,0.88s0.38,0.479,0.51,0.67c0.13,0.2,0.2,0.39,0.2,0.59c0,0.17-0.04,0.31-0.11,0.42
				c-0.07,0.11-0.14,0.2-0.21,0.27l-2.37,1.91c-1.51-1.32-2.67-2.86-3.48-4.64c-0.8-1.78-1.21-3.82-1.21-6.13
				c0-1.86,0.33-3.52,1-4.98s1.59-2.69,2.76-3.7c1.17-1.01,2.57-1.77,4.18-2.3c1.61-0.52,3.37-0.79,5.27-0.79
				c1.75,0,3.41,0.19,4.97,0.57s3,0.92,4.33,1.62c1.32,0.7,2.51,1.54,3.56,2.52s1.95,2.07,2.69,3.26c0.74,1.19,1.31,2.47,1.7,3.85
				s0.59,2.82,0.59,4.31c0,1.11-0.1,2.12-0.3,3.03c-0.2,0.91-0.49,1.73-0.85,2.48s-0.8,1.41-1.31,2c-0.51,0.59-1.08,1.12-1.71,1.6
				l-2.27-1.89c-0.17-0.14-0.31-0.3-0.44-0.49s-0.19-0.42-0.19-0.7c0-0.31,0.13-0.6,0.38-0.88c0.25-0.28,0.53-0.63,0.83-1.06
				c0.3-0.43,0.58-0.98,0.83-1.66c0.25-0.68,0.38-1.57,0.38-2.68c0-1.46-0.3-2.81-0.89-4.05c-0.59-1.25-1.45-2.33-2.55-3.26
				c-1.11-0.92-2.44-1.65-4-2.17c-1.56-0.53-3.31-0.79-5.26-0.79c-1.41,0-2.68,0.18-3.8,0.54s-2.07,0.85-2.85,1.48
				c-0.78,0.63-1.37,1.38-1.79,2.25C17.99,164.33,17.78,165.27,17.78,166.29z"/>
			<path d="M13.5,178.49l21.57,2.63v2.63c0,0.5-0.11,0.92-0.34,1.24c-0.22,0.32-0.58,0.48-1.07,0.48c-0.1,0-0.27-0.01-0.5-0.02
				c-0.24-0.01-0.61-0.03-1.12-0.04c-0.51-0.01-1.23-0.04-2.15-0.08c1.69,0.88,3,1.85,3.93,2.9c0.92,1.05,1.39,2.14,1.39,3.28
				c0,0.57-0.13,1.16-0.38,1.74l-4.96-0.95c0.29-0.7,0.44-1.36,0.44-2c0-1.25-0.59-2.34-1.79-3.28c-1.19-0.94-3.05-1.71-5.59-2.31
				l-9.43-1.13V178.49z"/>
			<path d="M13.18,201.03c0-1.19,0.2-2.29,0.6-3.31c0.4-1.02,0.98-1.89,1.75-2.63c0.77-0.74,1.71-1.31,2.83-1.73
				c1.12-0.42,2.4-0.63,3.84-0.63c1.86,0,3.6,0.3,5.21,0.89c1.61,0.59,3,1.41,4.18,2.44c1.18,1.03,2.1,2.23,2.77,3.6
				s1.01,2.83,1.01,4.39c0,1.19-0.2,2.29-0.6,3.31c-0.4,1.01-0.98,1.89-1.75,2.64c-0.77,0.74-1.72,1.32-2.83,1.74
				c-1.12,0.42-2.4,0.63-3.84,0.63c-1.85,0-3.57-0.3-5.18-0.9c-1.6-0.6-3-1.42-4.18-2.45c-1.18-1.03-2.11-2.23-2.79-3.6
				C13.52,204.04,13.18,202.58,13.18,201.03z M17.17,201.49c0,0.87,0.25,1.65,0.75,2.35c0.5,0.7,1.16,1.3,1.99,1.8
				s1.8,0.88,2.91,1.14c1.11,0.27,2.27,0.4,3.49,0.4c1.75,0,3.04-0.3,3.86-0.89c0.83-0.6,1.24-1.5,1.24-2.7
				c0-0.87-0.25-1.65-0.74-2.35c-0.49-0.7-1.15-1.29-2-1.79c-0.84-0.49-1.81-0.87-2.92-1.13c-1.11-0.27-2.27-0.4-3.51-0.4
				c-1.75,0-3.03,0.29-3.85,0.88C17.58,199.39,17.17,200.29,17.17,201.49z"/>
			<path d="M30.99,228.64c-0.22-0.15-0.38-0.3-0.47-0.44c-0.09-0.14-0.14-0.32-0.14-0.55c0-0.24,0.07-0.48,0.21-0.74
				c0.14-0.26,0.3-0.54,0.47-0.87s0.33-0.71,0.47-1.13c0.14-0.43,0.21-0.94,0.21-1.54c0-1.11-0.25-1.95-0.75-2.54
				s-1.12-0.88-1.86-0.88c-0.43,0-0.8,0.12-1.1,0.37c-0.3,0.25-0.56,0.56-0.79,0.96c-0.22,0.39-0.43,0.84-0.62,1.34
				s-0.39,1.02-0.61,1.55c-0.22,0.53-0.46,1.05-0.74,1.55c-0.27,0.5-0.61,0.95-1,1.34s-0.86,0.71-1.42,0.96
				c-0.55,0.25-1.21,0.37-1.99,0.37c-1.04,0-2.02-0.21-2.96-0.62s-1.76-1-2.47-1.77s-1.27-1.7-1.68-2.79s-0.62-2.31-0.62-3.65
				c0-0.69,0.07-1.35,0.2-1.98c0.13-0.64,0.32-1.24,0.56-1.8c0.24-0.56,0.52-1.07,0.84-1.521c0.32-0.45,0.67-0.84,1.05-1.17
				l1.97,1.26c0.24,0.15,0.42,0.34,0.55,0.56c0.13,0.22,0.19,0.47,0.19,0.77c0,0.3-0.09,0.56-0.27,0.8
				c-0.18,0.24-0.38,0.52-0.6,0.84c-0.22,0.32-0.42,0.71-0.6,1.17c-0.18,0.45-0.27,1.04-0.27,1.75c0,0.57,0.08,1.08,0.23,1.52
				c0.15,0.44,0.36,0.81,0.63,1.11c0.27,0.3,0.57,0.53,0.92,0.68c0.35,0.15,0.72,0.23,1.11,0.23c0.48,0,0.87-0.12,1.19-0.36
				c0.32-0.24,0.59-0.56,0.82-0.96s0.43-0.85,0.61-1.36c0.18-0.5,0.36-1.02,0.56-1.54c0.2-0.52,0.42-1.04,0.67-1.53
				c0.25-0.49,0.57-0.95,0.96-1.34c0.38-0.4,0.85-0.72,1.41-0.96c0.55-0.24,1.23-0.36,2.03-0.36c0.95,0,1.88,0.18,2.78,0.55
				s1.7,0.9,2.39,1.61c0.69,0.71,1.25,1.58,1.67,2.6c0.42,1.03,0.63,2.21,0.63,3.54c0,1.37-0.23,2.59-0.7,3.64
				c-0.47,1.06-1.07,1.95-1.8,2.68L30.99,228.64z"/>
			<path d="M30.99,245.13c-0.22-0.15-0.38-0.3-0.47-0.44s-0.14-0.32-0.14-0.55c0-0.24,0.07-0.48,0.21-0.74
				c0.14-0.26,0.3-0.54,0.47-0.87c0.17-0.33,0.33-0.71,0.47-1.13c0.14-0.43,0.21-0.94,0.21-1.54c0-1.11-0.25-1.95-0.75-2.54
				c-0.5-0.59-1.12-0.88-1.86-0.88c-0.43,0-0.8,0.12-1.1,0.37c-0.3,0.25-0.56,0.56-0.79,0.96c-0.22,0.39-0.43,0.84-0.62,1.34
				s-0.39,1.02-0.61,1.55c-0.22,0.53-0.46,1.05-0.74,1.55c-0.27,0.5-0.61,0.95-1,1.34c-0.39,0.39-0.86,0.71-1.42,0.96
				c-0.55,0.25-1.21,0.37-1.99,0.37c-1.04,0-2.02-0.21-2.96-0.62c-0.94-0.41-1.76-1-2.47-1.77c-0.71-0.77-1.27-1.7-1.68-2.79
				c-0.41-1.09-0.62-2.31-0.62-3.65c0-0.69,0.07-1.35,0.2-1.98c0.13-0.64,0.32-1.24,0.56-1.8c0.24-0.56,0.52-1.07,0.84-1.52
				s0.67-0.84,1.05-1.17l1.97,1.26c0.24,0.15,0.42,0.34,0.55,0.56c0.13,0.22,0.19,0.47,0.19,0.77c0,0.3-0.09,0.56-0.27,0.8
				c-0.18,0.24-0.38,0.52-0.6,0.84c-0.22,0.32-0.42,0.71-0.6,1.17c-0.18,0.45-0.27,1.04-0.27,1.75c0,0.57,0.08,1.08,0.23,1.52
				s0.36,0.81,0.63,1.11c0.27,0.3,0.57,0.53,0.92,0.68c0.35,0.15,0.72,0.23,1.11,0.23c0.48,0,0.87-0.12,1.19-0.36
				c0.32-0.24,0.59-0.56,0.82-0.96c0.23-0.4,0.43-0.85,0.61-1.36c0.18-0.5,0.36-1.02,0.56-1.54c0.2-0.52,0.42-1.04,0.67-1.53
				c0.25-0.49,0.57-0.95,0.96-1.34c0.38-0.4,0.85-0.72,1.41-0.96c0.55-0.24,1.23-0.36,2.03-0.36c0.95,0,1.88,0.18,2.78,0.55
				s1.7,0.9,2.39,1.61s1.25,1.58,1.67,2.6c0.42,1.03,0.63,2.21,0.63,3.54c0,1.37-0.23,2.59-0.7,3.64c-0.47,1.06-1.07,1.95-1.8,2.68
				L30.99,245.13z"/>
			<path d="M13.5,280.3v-4.22c0-0.48,0.11-0.85,0.34-1.13s0.53-0.46,0.9-0.53l6.34-1.26v-11.32l-6.34-2.81
				c-0.32-0.15-0.61-0.41-0.86-0.76s-0.38-0.74-0.38-1.18v-4.28l30.37,14.68v5.571L13.5,280.3z M24.92,263.54v8.84l10.4-2.06
				c0.5-0.11,1.04-0.22,1.6-0.34c0.56-0.11,1.19-0.22,1.89-0.32c-0.7-0.27-1.35-0.53-1.94-0.79c-0.59-0.26-1.12-0.5-1.56-0.72
				L24.92,263.54z"/>
			<path d="M25.16,288.68l9.89-5v4.7c0,0.351-0.05,0.601-0.15,0.761c-0.1,0.149-0.27,0.289-0.5,0.399l-6.43,2.96
				c0.17,0.08,0.34,0.17,0.51,0.27c0.17,0.101,0.35,0.211,0.54,0.34l5.29,3.781c0.24,0.17,0.42,0.34,0.55,0.529
				c0.13,0.18,0.19,0.391,0.19,0.63v4.7l-9.91-7.58l-11.63,5.54v-4.729c0-0.351,0.09-0.631,0.28-0.83c0.19-0.2,0.41-0.36,0.66-0.471
				l7.56-3.3c-0.15-0.069-0.31-0.149-0.46-0.229c-0.15-0.08-0.29-0.17-0.42-0.25l-6.68-4.791c-0.24-0.18-0.46-0.379-0.65-0.609
				c-0.2-0.22-0.29-0.5-0.29-0.82v-4.56L25.16,288.68z"/>
			<path d="M35.05,311.65l-21.55-2.58v-5.12l21.55,2.58V311.65z M41.33,312.96c-0.45,0-0.87-0.09-1.26-0.28
				c-0.39-0.189-0.74-0.43-1.03-0.729s-0.53-0.65-0.7-1.04c-0.17-0.391-0.26-0.8-0.26-1.22c0-0.41,0.09-0.801,0.26-1.19
				c0.18-0.39,0.41-0.72,0.7-1.02c0.29-0.301,0.64-0.53,1.03-0.7c0.39-0.181,0.81-0.261,1.26-0.261c0.45,0,0.88,0.091,1.28,0.271
				c0.41,0.18,0.76,0.42,1.06,0.71c0.3,0.29,0.54,0.63,0.71,1.02c0.17,0.391,0.26,0.78,0.26,1.19c0,0.42-0.09,0.83-0.26,1.22
				c-0.18,0.391-0.41,0.74-0.7,1.04s-0.64,0.54-1.05,0.72C42.22,312.86,41.79,312.96,41.33,312.96z"/>
			<path d="M30.99,328.6c-0.22-0.149-0.38-0.3-0.47-0.439c-0.09-0.141-0.14-0.32-0.14-0.55c0-0.24,0.07-0.48,0.21-0.74
				c0.14-0.26,0.3-0.54,0.47-0.87s0.33-0.71,0.47-1.13c0.14-0.43,0.21-0.94,0.21-1.54c0-1.11-0.25-1.95-0.75-2.54
				s-1.12-0.88-1.86-0.88c-0.43,0-0.8,0.12-1.1,0.37c-0.3,0.25-0.56,0.56-0.79,0.96c-0.22,0.39-0.43,0.84-0.62,1.34
				s-0.39,1.02-0.61,1.55c-0.22,0.53-0.46,1.05-0.74,1.55c-0.27,0.5-0.61,0.95-1,1.34c-0.39,0.391-0.86,0.71-1.42,0.96
				c-0.55,0.25-1.21,0.37-1.99,0.37c-1.04,0-2.02-0.21-2.96-0.62c-0.94-0.409-1.76-1-2.47-1.77s-1.27-1.7-1.68-2.79
				s-0.62-2.31-0.62-3.65c0-0.689,0.07-1.35,0.2-1.979c0.13-0.64,0.32-1.24,0.56-1.8c0.24-0.561,0.52-1.07,0.84-1.521
				s0.67-0.84,1.05-1.17l1.97,1.26c0.24,0.15,0.42,0.341,0.55,0.561c0.13,0.22,0.19,0.47,0.19,0.77s-0.09,0.561-0.27,0.8
				c-0.18,0.24-0.38,0.521-0.6,0.841c-0.22,0.319-0.42,0.71-0.6,1.17c-0.18,0.45-0.27,1.04-0.27,1.75c0,0.569,0.08,1.08,0.23,1.52
				c0.15,0.44,0.36,0.811,0.63,1.11s0.57,0.53,0.92,0.68c0.35,0.15,0.72,0.23,1.11,0.23c0.48,0,0.87-0.12,1.19-0.36
				c0.32-0.24,0.59-0.56,0.82-0.96s0.43-0.85,0.61-1.36c0.18-0.5,0.36-1.02,0.56-1.54c0.2-0.52,0.42-1.04,0.67-1.529
				c0.25-0.49,0.57-0.95,0.96-1.34c0.38-0.4,0.85-0.721,1.41-0.96c0.55-0.24,1.23-0.36,2.03-0.36c0.95,0,1.88,0.18,2.78,0.55
				s1.7,0.9,2.39,1.61s1.25,1.58,1.67,2.6c0.42,1.03,0.63,2.21,0.63,3.54c0,1.37-0.23,2.59-0.7,3.64
				c-0.47,1.061-1.07,1.95-1.8,2.681L30.99,328.6z"/>
		</g>
		<g display="inline">
			<path fill="#999999" d="M16.88,165.29c0,0.85,0.07,1.6,0.2,2.24c0.13,0.64,0.31,1.19,0.52,1.66c0.21,0.47,0.43,0.87,0.67,1.21
				c0.23,0.34,0.45,0.63,0.67,0.88c0.22,0.25,0.38,0.479,0.52,0.67c0.13,0.2,0.2,0.39,0.2,0.59c0,0.17-0.04,0.31-0.11,0.42
				c-0.07,0.11-0.14,0.2-0.21,0.27l-2.39,1.91c-1.52-1.32-2.69-2.86-3.5-4.64c-0.81-1.78-1.22-3.82-1.22-6.13
				c0-1.86,0.33-3.52,1-4.98s1.6-2.69,2.78-3.7c1.18-1.01,2.59-1.77,4.21-2.3c1.62-0.52,3.39-0.79,5.31-0.79
				c1.76,0,3.43,0.19,5,0.57c1.57,0.38,3.02,0.92,4.36,1.62c1.33,0.7,2.53,1.54,3.58,2.52c1.05,0.98,1.96,2.06,2.71,3.26
				c0.75,1.19,1.32,2.47,1.71,3.85c0.39,1.38,0.59,2.82,0.59,4.32c0,1.11-0.1,2.11-0.31,3.02c-0.2,0.91-0.49,1.74-0.86,2.48
				c-0.37,0.74-0.81,1.41-1.32,2c-0.51,0.59-1.09,1.12-1.72,1.6l-2.28-1.89c-0.17-0.14-0.32-0.3-0.44-0.49
				c-0.13-0.19-0.19-0.42-0.19-0.7c0-0.31,0.13-0.6,0.38-0.88c0.25-0.28,0.53-0.63,0.84-1.06c0.3-0.43,0.58-0.98,0.83-1.66
				c0.25-0.68,0.38-1.57,0.38-2.68c0-1.46-0.3-2.81-0.9-4.05c-0.6-1.24-1.46-2.33-2.57-3.25c-1.11-0.92-2.46-1.65-4.03-2.17
				c-1.57-0.53-3.34-0.79-5.3-0.79c-1.42,0-2.7,0.18-3.83,0.54c-1.13,0.36-2.08,0.85-2.86,1.48c-0.78,0.63-1.38,1.38-1.8,2.25
				C17.09,163.33,16.88,164.27,16.88,165.29z"/>
			<path fill="#999999" d="M12.57,177.49l21.71,2.63v2.63c0,0.5-0.11,0.92-0.34,1.24c-0.23,0.32-0.59,0.48-1.08,0.48
				c-0.1,0-0.27-0.01-0.51-0.02c-0.24-0.01-0.62-0.03-1.13-0.04c-0.51-0.01-1.24-0.04-2.17-0.08c1.71,0.88,3.02,1.85,3.95,2.9
				c0.93,1.05,1.4,2.14,1.4,3.28c0,0.57-0.13,1.16-0.38,1.74l-4.99-0.94c0.3-0.7,0.44-1.37,0.44-2c0-1.25-0.6-2.34-1.8-3.28
				c-1.2-0.94-3.07-1.71-5.62-2.31l-9.49-1.13v-5.1H12.57z"/>
			<path fill="#999999" d="M12.25,200.03c0-1.19,0.2-2.29,0.6-3.31s0.99-1.89,1.77-2.63c0.77-0.74,1.73-1.31,2.85-1.73
				c1.13-0.42,2.42-0.63,3.87-0.63c1.87,0,3.62,0.3,5.24,0.89c1.62,0.6,3.02,1.41,4.21,2.44c1.18,1.03,2.11,2.23,2.79,3.6
				c0.68,1.37,1.01,2.83,1.01,4.39c0,1.19-0.2,2.29-0.6,3.31c-0.4,1.02-0.99,1.89-1.77,2.64c-0.78,0.75-1.73,1.32-2.85,1.74
				c-1.13,0.42-2.42,0.63-3.87,0.63c-1.86,0-3.6-0.3-5.21-0.9c-1.61-0.6-3.02-1.42-4.21-2.45s-2.13-2.23-2.81-3.6
				C12.6,203.04,12.25,201.58,12.25,200.03z M16.27,200.49c0,0.87,0.25,1.65,0.75,2.35c0.5,0.7,1.17,1.3,2.01,1.8
				c0.84,0.5,1.81,0.88,2.93,1.14c1.11,0.27,2.28,0.4,3.51,0.4c1.76,0,3.06-0.3,3.89-0.89c0.83-0.6,1.25-1.5,1.25-2.7
				c0-0.87-0.25-1.65-0.74-2.35c-0.49-0.7-1.16-1.3-2.01-1.79c-0.85-0.49-1.83-0.87-2.94-1.13c-1.11-0.26-2.29-0.4-3.53-0.4
				c-1.76,0-3.06,0.29-3.88,0.88C16.68,198.39,16.27,199.29,16.27,200.49z"/>
			<path fill="#999999" d="M30.18,227.64c-0.23-0.15-0.38-0.3-0.48-0.44c-0.09-0.14-0.14-0.32-0.14-0.55c0-0.24,0.07-0.48,0.21-0.74
				c0.14-0.25,0.3-0.54,0.48-0.87s0.33-0.71,0.48-1.13c0.14-0.43,0.21-0.94,0.21-1.54c0-1.11-0.25-1.95-0.75-2.54
				s-1.12-0.88-1.87-0.88c-0.44,0-0.81,0.12-1.11,0.37s-0.57,0.56-0.79,0.96c-0.23,0.39-0.43,0.84-0.62,1.34
				c-0.19,0.5-0.39,1.02-0.61,1.55c-0.22,0.53-0.47,1.05-0.74,1.55s-0.61,0.95-1,1.34c-0.39,0.39-0.87,0.71-1.43,0.96
				s-1.22,0.37-2,0.37c-1.04,0-2.04-0.21-2.98-0.62s-1.77-1-2.48-1.77s-1.28-1.7-1.69-2.79c-0.42-1.09-0.62-2.31-0.62-3.65
				c0-0.69,0.07-1.35,0.2-1.98c0.13-0.63,0.32-1.24,0.56-1.8c0.24-0.56,0.52-1.07,0.85-1.521c0.33-0.45,0.68-0.84,1.06-1.17
				l1.99,1.26c0.24,0.15,0.42,0.34,0.55,0.56c0.13,0.22,0.19,0.47,0.19,0.77c0,0.3-0.09,0.56-0.27,0.8
				c-0.18,0.24-0.38,0.52-0.6,0.84c-0.22,0.32-0.42,0.71-0.6,1.17c-0.18,0.45-0.27,1.04-0.27,1.75c0,0.57,0.08,1.08,0.23,1.52
				c0.15,0.44,0.37,0.81,0.63,1.11c0.27,0.3,0.58,0.53,0.93,0.68c0.35,0.15,0.73,0.23,1.12,0.23c0.48,0,0.88-0.12,1.19-0.36
				c0.32-0.24,0.59-0.56,0.82-0.96s0.44-0.85,0.61-1.36c0.18-0.5,0.36-1.02,0.56-1.54c0.2-0.53,0.42-1.04,0.68-1.53
				c0.25-0.5,0.57-0.95,0.96-1.34c0.39-0.4,0.86-0.72,1.42-0.96c0.56-0.24,1.24-0.36,2.04-0.36c0.96,0,1.89,0.18,2.8,0.55
				c0.91,0.37,1.71,0.9,2.41,1.61c0.7,0.71,1.26,1.58,1.68,2.6c0.42,1.03,0.63,2.21,0.63,3.54c0,1.37-0.24,2.59-0.71,3.64
				c-0.47,1.06-1.07,1.95-1.81,2.68L30.18,227.64z"/>
			<path fill="#999999" d="M30.18,244.13c-0.23-0.15-0.38-0.3-0.48-0.44c-0.09-0.14-0.14-0.32-0.14-0.55c0-0.24,0.07-0.48,0.21-0.74
				c0.14-0.25,0.3-0.54,0.48-0.87c0.18-0.33,0.33-0.71,0.48-1.13c0.14-0.43,0.21-0.94,0.21-1.54c0-1.11-0.25-1.95-0.75-2.54
				c-0.5-0.59-1.12-0.88-1.87-0.88c-0.44,0-0.81,0.12-1.11,0.37s-0.57,0.56-0.79,0.96c-0.23,0.39-0.43,0.84-0.62,1.34
				c-0.19,0.5-0.39,1.02-0.61,1.55c-0.22,0.53-0.47,1.05-0.74,1.55s-0.61,0.95-1,1.34c-0.39,0.39-0.87,0.71-1.43,0.96
				s-1.22,0.37-2,0.37c-1.04,0-2.04-0.21-2.98-0.62c-0.94-0.41-1.77-1-2.48-1.77c-0.71-0.77-1.28-1.7-1.69-2.79
				c-0.42-1.09-0.62-2.31-0.62-3.65c0-0.69,0.07-1.35,0.2-1.98c0.13-0.63,0.32-1.24,0.56-1.8c0.24-0.56,0.52-1.07,0.85-1.52
				s0.68-0.84,1.06-1.17l1.99,1.26c0.24,0.15,0.42,0.34,0.55,0.56c0.13,0.22,0.19,0.47,0.19,0.77c0,0.3-0.09,0.56-0.27,0.8
				c-0.18,0.24-0.38,0.52-0.6,0.84c-0.22,0.32-0.42,0.71-0.6,1.17c-0.18,0.45-0.27,1.04-0.27,1.75c0,0.57,0.08,1.08,0.23,1.52
				s0.37,0.81,0.63,1.11c0.27,0.3,0.58,0.53,0.93,0.68c0.35,0.15,0.73,0.23,1.12,0.23c0.48,0,0.88-0.12,1.19-0.36
				c0.32-0.24,0.59-0.56,0.82-0.96c0.23-0.4,0.44-0.85,0.61-1.36c0.18-0.5,0.36-1.02,0.56-1.54c0.2-0.53,0.42-1.04,0.68-1.53
				c0.25-0.5,0.57-0.95,0.96-1.34c0.39-0.4,0.86-0.72,1.42-0.96c0.56-0.24,1.24-0.36,2.04-0.36c0.96,0,1.89,0.18,2.8,0.55
				c0.91,0.37,1.71,0.9,2.41,1.61c0.7,0.71,1.26,1.58,1.68,2.6c0.42,1.03,0.63,2.21,0.63,3.54c0,1.37-0.24,2.59-0.71,3.64
				c-0.47,1.06-1.07,1.95-1.81,2.68L30.18,244.13z"/>
			<path fill="#999999" d="M12.57,279.3v-4.22c0-0.48,0.11-0.85,0.34-1.13s0.53-0.46,0.91-0.53l6.38-1.26v-11.32l-6.38-2.81
				c-0.32-0.15-0.61-0.41-0.87-0.76c-0.25-0.35-0.38-0.74-0.38-1.18v-4.28l30.57,14.68v5.57L12.57,279.3z M24.07,262.54v8.84
				l10.47-2.06c0.51-0.11,1.04-0.22,1.61-0.34c0.56-0.11,1.2-0.22,1.9-0.32c-0.71-0.27-1.36-0.53-1.96-0.79
				c-0.6-0.26-1.12-0.5-1.58-0.72L24.07,262.54z"/>
			<path fill="#999999" d="M24.31,287.68l9.96-5v4.7c0,0.351-0.05,0.601-0.15,0.761c-0.1,0.159-0.27,0.289-0.51,0.399l-6.47,2.96
				c0.17,0.08,0.34,0.17,0.52,0.27c0.18,0.101,0.36,0.211,0.54,0.34l5.33,3.781c0.24,0.17,0.42,0.34,0.55,0.529
				c0.13,0.18,0.19,0.391,0.19,0.63v4.7l-9.98-7.58l-11.71,5.54v-4.729c0-0.351,0.1-0.631,0.29-0.83c0.19-0.2,0.41-0.36,0.67-0.471
				l7.61-3.3c-0.16-0.069-0.31-0.149-0.47-0.229c-0.16-0.08-0.3-0.17-0.42-0.25l-6.72-4.791c-0.24-0.18-0.46-0.379-0.66-0.609
				c-0.2-0.22-0.3-0.5-0.3-0.82v-4.56L24.31,287.68z"/>
			<path fill="#999999" d="M34.26,310.65l-21.69-2.58v-5.12l21.69,2.579V310.65z M40.59,311.96c-0.45,0-0.87-0.09-1.27-0.28
				c-0.39-0.189-0.74-0.43-1.04-0.729c-0.3-0.3-0.53-0.65-0.71-1.04c-0.18-0.391-0.26-0.8-0.26-1.22c0-0.41,0.09-0.801,0.26-1.19
				c0.18-0.39,0.41-0.72,0.71-1.02c0.3-0.301,0.64-0.53,1.04-0.701c0.39-0.18,0.82-0.26,1.27-0.26c0.45,0,0.88,0.09,1.29,0.271
				c0.41,0.18,0.76,0.42,1.07,0.71c0.3,0.29,0.54,0.63,0.72,1.02c0.18,0.391,0.26,0.78,0.26,1.19c0,0.42-0.09,0.83-0.26,1.22
				c-0.18,0.391-0.41,0.74-0.71,1.04s-0.65,0.54-1.06,0.72C41.49,311.86,41.05,311.96,40.59,311.96z"/>
			<path fill="#999999" d="M30.18,327.6c-0.23-0.149-0.38-0.3-0.48-0.439c-0.09-0.141-0.14-0.32-0.14-0.55
				c0-0.24,0.07-0.48,0.21-0.74c0.14-0.25,0.3-0.54,0.48-0.87s0.33-0.71,0.48-1.13c0.14-0.43,0.21-0.94,0.21-1.54
				c0-1.11-0.25-1.95-0.75-2.54s-1.12-0.88-1.87-0.88c-0.44,0-0.81,0.12-1.11,0.37s-0.57,0.56-0.79,0.96
				c-0.23,0.39-0.43,0.84-0.62,1.34c-0.19,0.5-0.39,1.02-0.61,1.55c-0.22,0.53-0.47,1.05-0.74,1.55s-0.61,0.95-1,1.34
				c-0.39,0.391-0.87,0.71-1.43,0.96s-1.22,0.37-2,0.37c-1.04,0-2.04-0.21-2.98-0.62c-0.94-0.409-1.77-1-2.48-1.77
				s-1.28-1.7-1.69-2.79c-0.42-1.09-0.62-2.31-0.62-3.65c0-0.689,0.07-1.35,0.2-1.979c0.13-0.63,0.32-1.24,0.56-1.8
				c0.24-0.561,0.52-1.07,0.85-1.521s0.68-0.84,1.06-1.17l1.99,1.26c0.24,0.15,0.42,0.341,0.55,0.561s0.19,0.47,0.19,0.77
				s-0.09,0.561-0.27,0.8c-0.18,0.24-0.38,0.521-0.6,0.841c-0.22,0.319-0.42,0.71-0.6,1.17c-0.18,0.45-0.27,1.04-0.27,1.75
				c0,0.569,0.08,1.08,0.23,1.52c0.15,0.44,0.37,0.811,0.63,1.11c0.27,0.3,0.58,0.53,0.93,0.68c0.35,0.15,0.73,0.23,1.12,0.23
				c0.48,0,0.88-0.12,1.19-0.36c0.32-0.24,0.59-0.56,0.82-0.96s0.44-0.85,0.61-1.36c0.18-0.5,0.36-1.02,0.56-1.54
				c0.2-0.529,0.42-1.04,0.68-1.529c0.25-0.5,0.57-0.95,0.96-1.34c0.39-0.4,0.86-0.721,1.42-0.96c0.56-0.24,1.24-0.36,2.04-0.36
				c0.96,0,1.89,0.18,2.8,0.55c0.91,0.37,1.71,0.9,2.41,1.61c0.7,0.71,1.26,1.58,1.68,2.6c0.42,1.03,0.63,2.21,0.63,3.54
				c0,1.37-0.24,2.59-0.71,3.64c-0.47,1.061-1.07,1.95-1.81,2.681L30.18,327.6z"/>
		</g>
		<g display="inline">
			<line fill="none" x1="26" y1="354" x2="26" y2="488"/>
			<g>
				<line fill="none" stroke="#000000" stroke-width="6" stroke-miterlimit="10" x1="26" y1="354" x2="26" y2="453"/>
				<g>
					<polygon points="3.78,435.68 26,445.12 48.22,435.68 26,488.35 					"/>
				</g>
			</g>
		</g>
		<g display="inline">
			<line fill="none" x1="25" y1="353" x2="25" y2="487"/>
			<g>
				<line fill="none" stroke="#999999" stroke-width="6" stroke-miterlimit="10" x1="25" y1="353" x2="25" y2="452"/>
				<g>
					<polygon fill="#999999" points="2.78,434.68 25,444.12 47.22,434.68 25,487.35 					"/>
				</g>
			</g>
		</g>
		<line display="inline" fill="none" stroke="#000000" stroke-width="6" stroke-miterlimit="10" x1="26" y1="11" x2="26" y2="134"/>
		<line display="inline" fill="none" stroke="#999999" stroke-width="6" stroke-miterlimit="10" x1="25" y1="10" x2="25" y2="132"/>
		<g display="inline">
			<line fill="none" stroke="#000000" stroke-width="6" stroke-miterlimit="10" x1="386" y1="521" x2="475" y2="521"/>
			<g>
				<polygon points="458.05,543.22 467.49,521 458.05,498.78 510.72,521 				"/>
			</g>
		</g>
		<g display="inline">
			<line fill="none" x1="385" y1="520" x2="510" y2="520"/>
			<g>
				<line fill="none" stroke="#FFFFFF" stroke-width="6" stroke-miterlimit="10" x1="385" y1="520" x2="474" y2="520"/>
				<g>
					<polygon fill="#FFFFFF" points="457.05,542.22 466.49,520 457.05,497.78 509.72,520 					"/>
				</g>
			</g>
		</g>
		
			<line display="inline" fill="none" stroke="#000000" stroke-width="6" stroke-miterlimit="10" x1="61" y1="521" x2="176" y2="521"/>
		
			<line display="inline" fill="none" stroke="#FFFFFF" stroke-width="6" stroke-miterlimit="10" x1="60" y1="520" x2="175" y2="520"/>
		<g display="inline">
			<path d="M208.66,522.82c0.1,0.38,0.2,0.76,0.29,1.149c0.17-0.39,0.35-0.779,0.55-1.149c0.2-0.38,0.41-0.75,0.63-1.11l10.54-17.35
				c0.13-0.21,0.25-0.38,0.39-0.49c0.13-0.12,0.27-0.21,0.42-0.26c0.15-0.061,0.31-0.091,0.49-0.11c0.18-0.02,0.39-0.02,0.63-0.02
				h4.14L223,533.84h-4.79l2.44-19.78c0.04-0.359,0.11-0.76,0.19-1.199c0.08-0.44,0.17-0.88,0.27-1.32l-10.44,17.35
				c-0.24,0.391-0.54,0.69-0.89,0.88c-0.36,0.2-0.75,0.29-1.17,0.29h-0.76c-0.42,0-0.79-0.1-1.1-0.29
				c-0.32-0.199-0.54-0.489-0.68-0.88l-6.26-17.279c-0.01,0.439-0.03,0.859-0.05,1.26c-0.02,0.399-0.05,0.78-0.09,1.109l-2.39,19.87
				h-4.81l3.74-30.37h4.09c0.24,0,0.45,0.011,0.63,0.021c0.18,0.01,0.34,0.05,0.48,0.11c0.14,0.06,0.26,0.14,0.36,0.26
				s0.19,0.28,0.27,0.49l6.28,17.35C208.45,522.07,208.56,522.44,208.66,522.82z"/>
			<path d="M245.03,533.84h-2.73c-0.63,0-1.07-0.149-1.32-0.439s-0.38-0.66-0.38-1.11l0.17-2.94c-0.95,1.48-2.02,2.66-3.21,3.521
				s-2.5,1.29-3.93,1.29c-0.81,0-1.57-0.16-2.28-0.48c-0.71-0.319-1.32-0.8-1.85-1.439c-0.52-0.641-0.94-1.43-1.24-2.391
				c-0.3-0.96-0.45-2.08-0.45-3.369c0-1.29,0.16-2.54,0.48-3.761c0.32-1.22,0.78-2.359,1.38-3.43c0.59-1.07,1.31-2.05,2.15-2.95
				c0.84-0.899,1.78-1.67,2.82-2.31c1.04-0.641,2.17-1.141,3.38-1.5c1.21-0.36,2.49-0.54,3.83-0.54c0.97,0,1.93,0.069,2.91,0.21
				c0.97,0.14,1.93,0.39,2.87,0.76L245.03,533.84z M235.67,529.91c0.57,0,1.14-0.2,1.69-0.59c0.55-0.391,1.07-0.931,1.56-1.631
				c0.49-0.699,0.95-1.51,1.37-2.449c0.42-0.94,0.78-1.95,1.09-3.021l0.82-6.51c-0.38-0.04-0.73-0.06-1.05-0.06
				c-1.16,0-2.24,0.27-3.23,0.8c-0.99,0.529-1.86,1.25-2.58,2.149c-0.73,0.9-1.3,1.95-1.71,3.15c-0.41,1.2-0.62,2.46-0.62,3.79
				c0,1.51,0.24,2.62,0.71,3.32C234.19,529.56,234.84,529.91,235.67,529.91z"/>
			<path d="M258.01,512.29l-2.58,21.55h-5.12l2.58-21.55H258.01z M259.31,506.02c0,0.45-0.09,0.87-0.28,1.261
				c-0.19,0.39-0.43,0.739-0.73,1.029c-0.3,0.29-0.65,0.53-1.04,0.71c-0.39,0.171-0.8,0.261-1.22,0.261c-0.41,0-0.8-0.09-1.19-0.261
				c-0.38-0.18-0.72-0.409-1.02-0.71c-0.29-0.29-0.53-0.64-0.7-1.029c-0.18-0.391-0.26-0.811-0.26-1.261
				c0-0.449,0.09-0.869,0.27-1.279c0.18-0.41,0.42-0.76,0.71-1.061c0.29-0.3,0.63-0.54,1.02-0.71c0.38-0.17,0.78-0.26,1.19-0.26
				c0.42,0,0.83,0.09,1.22,0.26c0.39,0.181,0.74,0.41,1.04,0.7c0.3,0.29,0.54,0.64,0.72,1.05S259.31,505.55,259.31,506.02z"/>
			<path d="M260.66,533.84l2.58-21.57h2.65c0.549,0,0.969,0.131,1.27,0.4c0.3,0.271,0.449,0.69,0.449,1.28l-0.149,2.79
				c1.09-1.61,2.3-2.811,3.63-3.601s2.7-1.189,4.12-1.189c0.8,0,1.521,0.14,2.17,0.43c0.65,0.29,1.21,0.71,1.67,1.26
				c0.46,0.551,0.82,1.23,1.07,2.04c0.25,0.811,0.38,1.73,0.38,2.78c0,0.271-0.01,0.54-0.029,0.811
				c-0.021,0.27-0.041,0.56-0.07,0.85l-1.62,13.71h-5.19c0.28-2.37,0.52-4.37,0.71-6.02c0.2-1.641,0.36-3.011,0.48-4.11
				c0.13-1.09,0.22-1.95,0.29-2.57s0.119-1.1,0.16-1.42c0.039-0.32,0.06-0.54,0.06-0.64c0.01-0.101,0.01-0.19,0.01-0.26
				c0-0.921-0.17-1.591-0.5-2.011c-0.34-0.41-0.86-0.62-1.579-0.62c-0.57,0-1.171,0.17-1.791,0.5
				c-0.619,0.341-1.199,0.811-1.76,1.431s-1.07,1.359-1.529,2.229c-0.461,0.87-0.841,1.83-1.131,2.9l-1.18,10.58h-5.17V533.84z"/>
			<path d="M316.26,533.84h-4.22c-0.479,0-0.851-0.109-1.13-0.34c-0.28-0.22-0.46-0.53-0.53-0.9l-1.26-6.34H297.8l-2.81,6.34
				c-0.15,0.32-0.41,0.61-0.76,0.86c-0.351,0.25-0.74,0.38-1.181,0.38h-4.28l14.681-30.37h5.569L316.26,533.84z M299.51,522.42h8.84
				l-2.06-10.4c-0.11-0.5-0.22-1.04-0.34-1.6c-0.11-0.56-0.22-1.19-0.32-1.89c-0.271,0.699-0.53,1.35-0.79,1.939
				c-0.26,0.601-0.5,1.12-0.72,1.561L299.51,522.42z"/>
			<path d="M324.641,522.19l-5-9.891h4.699c0.35,0,0.6,0.05,0.76,0.15c0.15,0.1,0.291,0.27,0.4,0.51l2.96,6.43
				c0.08-0.17,0.17-0.34,0.271-0.52c0.1-0.17,0.209-0.351,0.34-0.54l3.779-5.29c0.17-0.24,0.34-0.42,0.53-0.55
				c0.181-0.13,0.39-0.19,0.63-0.19h4.7l-7.58,9.91l5.54,11.63h-4.73c-0.35,0-0.629-0.1-0.83-0.28
				c-0.199-0.189-0.359-0.409-0.469-0.659l-3.301-7.561c-0.07,0.15-0.15,0.311-0.23,0.46c-0.079,0.15-0.17,0.29-0.25,0.42
				l-4.789,6.681c-0.18,0.239-0.381,0.46-0.61,0.649c-0.22,0.2-0.5,0.29-0.819,0.29h-4.561L324.641,522.19z"/>
			<path d="M347.62,512.29l-2.58,21.55h-5.12l2.58-21.55H347.62z M348.92,506.02c0,0.45-0.09,0.87-0.279,1.261
				c-0.19,0.39-0.431,0.739-0.73,1.029c-0.301,0.29-0.65,0.53-1.04,0.71c-0.39,0.171-0.8,0.261-1.22,0.261
				c-0.41,0-0.801-0.09-1.19-0.261c-0.39-0.18-0.72-0.409-1.021-0.71c-0.289-0.29-0.529-0.64-0.699-1.029
				c-0.18-0.391-0.26-0.811-0.26-1.261c0-0.449,0.09-0.869,0.27-1.279s0.42-0.76,0.71-1.061c0.29-0.3,0.63-0.54,1.021-0.71
				c0.39-0.17,0.779-0.26,1.189-0.26c0.42,0,0.83,0.09,1.221,0.26c0.389,0.181,0.739,0.41,1.039,0.7
				c0.301,0.29,0.54,0.64,0.721,1.05C348.83,505.12,348.92,505.55,348.92,506.02z"/>
			<path d="M364.561,516.35c-0.15,0.221-0.301,0.381-0.44,0.471s-0.32,0.14-0.55,0.14c-0.24,0-0.48-0.07-0.74-0.21
				c-0.25-0.14-0.54-0.3-0.87-0.47c-0.33-0.181-0.71-0.33-1.13-0.471c-0.43-0.14-0.939-0.21-1.54-0.21c-1.11,0-1.95,0.25-2.54,0.75
				s-0.88,1.12-0.88,1.86c0,0.43,0.12,0.8,0.37,1.1c0.25,0.301,0.56,0.561,0.96,0.79c0.39,0.221,0.84,0.431,1.34,0.62
				c0.5,0.19,1.021,0.391,1.55,0.61c0.53,0.22,1.051,0.46,1.551,0.74c0.5,0.27,0.949,0.609,1.34,1c0.39,0.39,0.709,0.869,0.959,1.42
				c0.25,0.55,0.371,1.21,0.371,1.979c0,1.04-0.211,2.021-0.621,2.96c-0.41,0.94-1,1.76-1.77,2.47s-1.7,1.271-2.79,1.681
				s-2.31,0.62-3.649,0.62c-0.69,0-1.351-0.07-1.98-0.2c-0.641-0.13-1.24-0.32-1.8-0.561c-0.56-0.239-1.07-0.52-1.521-0.84
				c-0.449-0.32-0.84-0.67-1.17-1.05l1.26-1.97c0.15-0.24,0.34-0.42,0.561-0.54c0.22-0.13,0.47-0.19,0.77-0.19
				c0.301,0,0.561,0.09,0.801,0.271c0.24,0.18,0.52,0.38,0.84,0.6s0.709,0.42,1.17,0.601c0.449,0.18,1.04,0.27,1.75,0.27
				c0.57,0,1.08-0.08,1.52-0.23c0.44-0.149,0.811-0.359,1.11-0.63c0.3-0.27,0.53-0.569,0.68-0.92c0.15-0.35,0.229-0.72,0.229-1.109
				c0-0.48-0.119-0.87-0.359-1.19s-0.561-0.59-0.96-0.82c-0.399-0.229-0.851-0.43-1.36-0.609c-0.5-0.18-1.02-0.36-1.539-0.561
				c-0.53-0.199-1.041-0.42-1.53-0.67c-0.49-0.25-0.95-0.569-1.341-0.96c-0.399-0.38-0.719-0.85-0.959-1.41
				c-0.24-0.55-0.36-1.229-0.36-2.029c0-0.95,0.18-1.88,0.55-2.78c0.36-0.9,0.9-1.7,1.61-2.39c0.71-0.69,1.579-1.25,2.6-1.671
				c1.03-0.42,2.21-0.63,3.54-0.63c1.37,0,2.59,0.23,3.641,0.7c1.06,0.47,1.949,1.07,2.68,1.8L364.561,516.35z"/>
		</g>
		<g display="inline">
			<path fill="#FFFFFF" d="M207.66,521.82c0.1,0.38,0.2,0.76,0.29,1.149c0.17-0.39,0.35-0.779,0.55-1.149
				c0.2-0.38,0.41-0.75,0.63-1.11l10.54-17.35c0.13-0.21,0.25-0.38,0.39-0.49c0.13-0.12,0.27-0.21,0.42-0.26
				c0.15-0.061,0.31-0.091,0.49-0.11c0.18-0.02,0.39-0.02,0.63-0.02h4.14L222,532.84h-4.79l2.44-19.78
				c0.04-0.359,0.11-0.76,0.19-1.199c0.08-0.44,0.17-0.88,0.27-1.32l-10.44,17.35c-0.24,0.391-0.54,0.69-0.89,0.88
				c-0.36,0.2-0.75,0.29-1.17,0.29h-0.76c-0.42,0-0.79-0.1-1.1-0.29c-0.32-0.199-0.54-0.489-0.68-0.88l-6.26-17.279
				c-0.01,0.439-0.03,0.859-0.05,1.26c-0.02,0.399-0.05,0.78-0.09,1.11l-2.39,19.869h-4.81l3.74-30.369h4.09
				c0.24,0,0.45,0.01,0.63,0.02c0.18,0.01,0.34,0.05,0.48,0.11c0.14,0.06,0.26,0.14,0.36,0.26s0.19,0.28,0.27,0.49l6.28,17.35
				C207.45,521.07,207.56,521.44,207.66,521.82z"/>
			<path fill="#FFFFFF" d="M244.03,532.84h-2.73c-0.63,0-1.07-0.149-1.32-0.439s-0.38-0.66-0.38-1.11l0.17-2.94
				c-0.95,1.48-2.02,2.66-3.21,3.521s-2.5,1.29-3.93,1.29c-0.81,0-1.57-0.16-2.28-0.48c-0.71-0.319-1.32-0.8-1.85-1.439
				c-0.52-0.641-0.94-1.43-1.24-2.391c-0.3-0.96-0.45-2.08-0.45-3.369c0-1.29,0.16-2.54,0.48-3.761c0.32-1.22,0.78-2.359,1.38-3.43
				c0.59-1.07,1.31-2.05,2.15-2.95c0.84-0.899,1.78-1.67,2.82-2.31c1.04-0.641,2.17-1.141,3.38-1.5c1.21-0.36,2.49-0.54,3.83-0.54
				c0.97,0,1.93,0.069,2.91,0.21c0.97,0.14,1.93,0.39,2.87,0.76L244.03,532.84z M234.67,528.91c0.57,0,1.14-0.2,1.69-0.59
				c0.55-0.391,1.07-0.931,1.56-1.631c0.49-0.699,0.95-1.51,1.37-2.449c0.42-0.94,0.78-1.95,1.09-3.021l0.82-6.51
				c-0.38-0.04-0.73-0.06-1.05-0.06c-1.16,0-2.24,0.27-3.23,0.8c-0.99,0.529-1.86,1.25-2.58,2.149c-0.73,0.9-1.3,1.95-1.71,3.15
				c-0.41,1.2-0.62,2.46-0.62,3.79c0,1.51,0.24,2.62,0.71,3.32C233.19,528.56,233.84,528.91,234.67,528.91z"/>
			<path fill="#FFFFFF" d="M257.01,511.29l-2.58,21.55h-5.12l2.58-21.55H257.01L257.01,511.29z M258.31,505.02
				c0,0.45-0.09,0.87-0.28,1.261c-0.19,0.39-0.43,0.739-0.73,1.029c-0.3,0.29-0.65,0.53-1.04,0.71c-0.39,0.171-0.8,0.261-1.22,0.261
				c-0.41,0-0.8-0.09-1.19-0.261c-0.38-0.18-0.72-0.409-1.02-0.71c-0.29-0.29-0.53-0.64-0.7-1.029
				c-0.18-0.391-0.26-0.811-0.26-1.261c0-0.449,0.09-0.869,0.27-1.279c0.18-0.41,0.42-0.76,0.71-1.061c0.29-0.3,0.63-0.54,1.02-0.71
				c0.38-0.17,0.78-0.26,1.19-0.26c0.42,0,0.83,0.09,1.22,0.26c0.39,0.181,0.74,0.41,1.04,0.7c0.3,0.29,0.54,0.64,0.72,1.05
				S258.31,504.55,258.31,505.02z"/>
			<path fill="#FFFFFF" d="M259.66,532.84l2.58-21.57h2.65c0.549,0,0.969,0.131,1.27,0.4c0.3,0.271,0.449,0.69,0.449,1.28
				l-0.149,2.79c1.09-1.61,2.3-2.811,3.63-3.601s2.7-1.189,4.12-1.189c0.8,0,1.521,0.14,2.17,0.43c0.65,0.29,1.21,0.71,1.67,1.26
				c0.46,0.551,0.82,1.23,1.07,2.04c0.25,0.811,0.38,1.73,0.38,2.78c0,0.271-0.01,0.54-0.029,0.81
				c-0.021,0.271-0.041,0.561-0.07,0.851l-1.62,13.71h-5.19c0.28-2.37,0.52-4.37,0.71-6.021c0.2-1.64,0.36-3.01,0.48-4.109
				c0.13-1.09,0.22-1.95,0.29-2.57s0.119-1.1,0.16-1.42c0.039-0.32,0.06-0.54,0.06-0.64c0.01-0.101,0.01-0.19,0.01-0.261
				c0-0.92-0.17-1.59-0.5-2.01c-0.34-0.41-0.86-0.62-1.579-0.62c-0.57,0-1.171,0.17-1.791,0.5c-0.619,0.34-1.199,0.811-1.76,1.431
				s-1.07,1.359-1.529,2.229c-0.461,0.87-0.841,1.83-1.131,2.9l-1.18,10.58h-5.17V532.84z"/>
			<path fill="#FFFFFF" d="M315.26,532.84h-4.22c-0.479,0-0.851-0.109-1.13-0.34c-0.28-0.22-0.46-0.53-0.53-0.9l-1.26-6.34H296.8
				l-2.81,6.34c-0.15,0.32-0.41,0.61-0.76,0.86c-0.351,0.25-0.74,0.38-1.181,0.38h-4.28l14.681-30.37h5.569L315.26,532.84z
				 M298.51,521.42h8.84l-2.06-10.4c-0.11-0.5-0.22-1.039-0.34-1.6c-0.11-0.56-0.22-1.189-0.32-1.89
				c-0.271,0.7-0.53,1.35-0.79,1.939c-0.26,0.601-0.5,1.12-0.72,1.561L298.51,521.42z"/>
			<path fill="#FFFFFF" d="M323.641,521.19l-5-9.891h4.699c0.35,0,0.6,0.05,0.76,0.15c0.15,0.1,0.291,0.27,0.4,0.51l2.96,6.43
				c0.08-0.17,0.17-0.34,0.271-0.52c0.1-0.17,0.209-0.351,0.34-0.54l3.779-5.29c0.17-0.24,0.34-0.42,0.53-0.55
				c0.181-0.13,0.39-0.19,0.63-0.19h4.7l-7.58,9.91l5.54,11.63h-4.73c-0.35,0-0.629-0.1-0.83-0.28
				c-0.199-0.189-0.359-0.409-0.469-0.659l-3.301-7.561c-0.07,0.15-0.15,0.311-0.23,0.46c-0.079,0.15-0.17,0.29-0.25,0.42
				l-4.789,6.681c-0.18,0.239-0.381,0.46-0.61,0.649c-0.22,0.2-0.5,0.29-0.819,0.29h-4.561L323.641,521.19z"/>
			<path fill="#FFFFFF" d="M346.62,511.29l-2.58,21.55h-5.12l2.58-21.55H346.62L346.62,511.29z M347.92,505.02
				c0,0.45-0.09,0.87-0.279,1.261c-0.19,0.39-0.431,0.739-0.73,1.029c-0.301,0.29-0.65,0.53-1.04,0.71
				c-0.39,0.171-0.8,0.261-1.22,0.261c-0.41,0-0.801-0.09-1.19-0.261c-0.39-0.18-0.72-0.409-1.021-0.71
				c-0.289-0.29-0.529-0.64-0.699-1.029c-0.18-0.391-0.26-0.811-0.26-1.261c0-0.449,0.09-0.869,0.27-1.279s0.42-0.76,0.71-1.061
				c0.29-0.3,0.63-0.54,1.021-0.71c0.39-0.17,0.779-0.26,1.189-0.26c0.42,0,0.83,0.09,1.221,0.26c0.389,0.181,0.739,0.41,1.039,0.7
				c0.301,0.29,0.54,0.64,0.721,1.05C347.83,504.12,347.92,504.55,347.92,505.02z"/>
			<path fill="#FFFFFF" d="M363.561,515.35c-0.15,0.221-0.301,0.381-0.44,0.471s-0.32,0.14-0.55,0.14c-0.24,0-0.48-0.07-0.74-0.21
				c-0.25-0.14-0.54-0.3-0.87-0.47c-0.33-0.181-0.71-0.33-1.13-0.471c-0.43-0.14-0.939-0.21-1.54-0.21c-1.11,0-1.95,0.25-2.54,0.75
				s-0.88,1.12-0.88,1.86c0,0.43,0.12,0.8,0.37,1.1c0.25,0.301,0.56,0.561,0.96,0.79c0.39,0.221,0.84,0.431,1.34,0.62
				c0.5,0.19,1.021,0.391,1.55,0.61c0.53,0.22,1.051,0.46,1.551,0.74c0.5,0.27,0.949,0.609,1.34,1c0.39,0.39,0.709,0.869,0.959,1.42
				c0.25,0.55,0.371,1.21,0.371,1.979c0,1.04-0.211,2.021-0.621,2.96c-0.41,0.94-1,1.76-1.77,2.47s-1.7,1.271-2.79,1.681
				s-2.31,0.62-3.649,0.62c-0.69,0-1.351-0.07-1.98-0.2c-0.641-0.13-1.24-0.32-1.8-0.561c-0.56-0.239-1.07-0.52-1.521-0.84
				c-0.449-0.32-0.84-0.67-1.17-1.05l1.26-1.97c0.15-0.24,0.34-0.42,0.561-0.54c0.22-0.13,0.47-0.19,0.77-0.19
				c0.301,0,0.561,0.09,0.801,0.271c0.24,0.18,0.52,0.38,0.84,0.6s0.709,0.42,1.17,0.601c0.449,0.18,1.04,0.27,1.75,0.27
				c0.57,0,1.08-0.08,1.52-0.23c0.44-0.149,0.811-0.359,1.11-0.63c0.3-0.27,0.53-0.569,0.68-0.92c0.15-0.35,0.229-0.72,0.229-1.109
				c0-0.48-0.119-0.87-0.359-1.19s-0.561-0.59-0.96-0.82c-0.399-0.229-0.851-0.43-1.36-0.609c-0.5-0.18-1.02-0.36-1.539-0.561
				c-0.53-0.199-1.041-0.42-1.53-0.67c-0.49-0.25-0.95-0.569-1.341-0.96c-0.399-0.38-0.719-0.85-0.959-1.41
				c-0.24-0.55-0.36-1.229-0.36-2.029c0-0.95,0.18-1.88,0.55-2.78c0.36-0.9,0.9-1.7,1.61-2.39c0.71-0.69,1.579-1.25,2.6-1.671
				c1.03-0.42,2.21-0.63,3.54-0.63c1.37,0,2.59,0.23,3.641,0.7c1.06,0.47,1.949,1.07,2.68,1.8L363.561,515.35z"/>
		</g>
	</g>
</g>
<g id="Layer_2">
	<line fill="none" stroke="#000000" stroke-width="6" stroke-miterlimit="10" x1="26" y1="354" x2="26" y2="488"/>
	<line fill="none" stroke="#999999" stroke-width="6" stroke-miterlimit="10" x1="25" y1="353" x2="25" y2="487"/>
	<g>
		<line fill="none" x1="26" y1="11" x2="26" y2="134"/>
		<g>
			<line fill="none" stroke="#000000" stroke-width="6" stroke-miterlimit="10" x1="26" y1="47" x2="26" y2="134"/>
			<g>
				<polygon points="3.78,63.67 26,54.23 48.22,63.67 26,11 				"/>
			</g>
		</g>
	</g>
	<g>
		<line fill="none" x1="25" y1="10" x2="25" y2="132"/>
		<g>
			<line fill="none" stroke="#999999" stroke-width="6" stroke-miterlimit="10" x1="25" y1="46" x2="25" y2="132"/>
			<g>
				<polygon fill="#999999" points="2.78,62.67 25,53.23 47.22,62.67 25,10 				"/>
			</g>
		</g>
	</g>
</g>
</svg>
