<?xml version="1.0" encoding="utf-8"?>
<!-- Generator: Adobe Illustrator 16.0.0, SVG Export Plug-In . SVG Version: 6.00 Build 0)  -->
<!DOCTYPE svg PUBLIC "-//W3C//DTD SVG 1.1 Basic//EN" "http://www.w3.org/Graphics/SVG/1.1/DTD/svg11-basic.dtd">
<svg version="1.1" baseProfile="basic" xmlns="http://www.w3.org/2000/svg" xmlns:xlink="http://www.w3.org/1999/xlink" x="0px"
	 y="0px" width="520px" height="545px" viewBox="0 0 520 545" xml:space="preserve">
<g id="Layer_7" display="none">
	<rect display="inline" fill="#0071BC" width="520" height="540"/>
</g>
<g id="Col" display="none">
	<g display="inline">
		<path d="M205.24,529.56c0.85,0,1.6-0.07,2.24-0.2s1.19-0.3,1.66-0.51c0.47-0.21,0.87-0.43,1.21-0.66
			c0.34-0.23,0.63-0.45,0.88-0.66s0.48-0.38,0.67-0.51c0.2-0.13,0.39-0.2,0.59-0.2c0.17,0,0.31,0.04,0.42,0.11
			c0.11,0.07,0.2,0.14,0.27,0.21l1.91,2.37c-1.32,1.51-2.86,2.67-4.64,3.48c-1.78,0.8-3.82,1.21-6.13,1.21c-1.86,0-3.52-0.33-4.98-1
			c-1.46-0.67-2.69-1.59-3.7-2.76c-1.01-1.18-1.77-2.57-2.3-4.18c-0.52-1.61-0.79-3.37-0.79-5.27c0-1.75,0.19-3.41,0.57-4.97
			c0.38-1.56,0.92-3,1.62-4.33c0.7-1.32,1.54-2.51,2.52-3.56c0.98-1.05,2.07-1.95,3.26-2.69c1.19-0.74,2.48-1.31,3.85-1.7
			c1.38-0.39,2.82-0.59,4.31-0.59c1.11,0,2.12,0.1,3.03,0.3s1.73,0.49,2.48,0.85s1.41,0.8,2,1.31s1.12,1.08,1.6,1.71l-1.89,2.27
			c-0.14,0.17-0.3,0.31-0.49,0.44c-0.19,0.13-0.42,0.19-0.7,0.19c-0.31,0-0.6-0.13-0.88-0.38c-0.28-0.25-0.63-0.53-1.06-0.83
			c-0.43-0.3-0.98-0.58-1.66-0.83c-0.68-0.25-1.57-0.38-2.68-0.38c-1.46,0-2.81,0.3-4.05,0.89c-1.25,0.59-2.33,1.45-3.26,2.55
			c-0.92,1.11-1.65,2.44-2.17,4c-0.53,1.56-0.79,3.31-0.79,5.26c0,1.41,0.18,2.68,0.54,3.8s0.85,2.07,1.48,2.85
			c0.63,0.78,1.38,1.37,2.25,1.79C203.27,529.35,204.22,529.56,205.24,529.56z"/>
		<path d="M217.44,533.84l2.63-21.57h2.63c0.5,0,0.92,0.11,1.24,0.34c0.32,0.22,0.48,0.58,0.48,1.07c0,0.1-0.01,0.27-0.02,0.5
			c-0.01,0.24-0.03,0.61-0.04,1.12s-0.04,1.23-0.08,2.15c0.88-1.69,1.85-3,2.9-3.93c1.05-0.92,2.14-1.39,3.28-1.39
			c0.57,0,1.15,0.13,1.74,0.38l-0.95,4.96c-0.7-0.29-1.36-0.44-1.99-0.44c-1.25,0-2.34,0.59-3.28,1.79
			c-0.94,1.19-1.71,3.05-2.31,5.59l-1.13,9.43H217.44z"/>
		<path d="M239.97,534.16c-1.19,0-2.29-0.2-3.31-0.6c-1.02-0.4-1.89-0.98-2.63-1.75c-0.73-0.77-1.31-1.71-1.73-2.83
			s-0.63-2.4-0.63-3.84c0-1.86,0.3-3.6,0.89-5.21c0.59-1.61,1.41-3,2.44-4.18c1.03-1.18,2.23-2.1,3.6-2.77
			c1.37-0.67,2.83-1.01,4.39-1.01c1.19,0,2.29,0.2,3.31,0.6c1.02,0.4,1.89,0.98,2.64,1.75c0.74,0.77,1.32,1.72,1.74,2.83
			c0.42,1.12,0.63,2.4,0.63,3.84c0,1.85-0.3,3.57-0.9,5.18c-0.6,1.6-1.42,3-2.45,4.18c-1.03,1.18-2.23,2.11-3.6,2.79
			C242.99,533.82,241.53,534.16,239.97,534.16z M240.43,530.17c0.87,0,1.65-0.25,2.35-0.75c0.7-0.5,1.3-1.16,1.8-1.99
			c0.5-0.83,0.88-1.8,1.14-2.91c0.27-1.11,0.4-2.27,0.4-3.49c0-1.75-0.3-3.04-0.89-3.86s-1.49-1.24-2.7-1.24
			c-0.87,0-1.65,0.25-2.35,0.74s-1.29,1.15-1.79,2c-0.49,0.84-0.87,1.81-1.13,2.92c-0.27,1.11-0.4,2.27-0.4,3.51
			c0,1.75,0.29,3.03,0.88,3.85C238.33,529.76,239.23,530.17,240.43,530.17z"/>
		<path d="M267.59,516.35c-0.15,0.22-0.3,0.38-0.44,0.47c-0.14,0.09-0.32,0.14-0.55,0.14c-0.24,0-0.48-0.07-0.73-0.21
			s-0.54-0.3-0.87-0.47c-0.33-0.17-0.71-0.33-1.13-0.47c-0.43-0.14-0.94-0.21-1.54-0.21c-1.11,0-1.95,0.25-2.54,0.75
			c-0.59,0.5-0.88,1.12-0.88,1.86c0,0.43,0.12,0.8,0.37,1.1c0.25,0.3,0.56,0.56,0.96,0.79c0.39,0.22,0.84,0.43,1.34,0.62
			c0.5,0.19,1.02,0.39,1.55,0.61c0.53,0.22,1.05,0.46,1.55,0.74c0.5,0.27,0.95,0.61,1.34,1s0.71,0.86,0.96,1.42
			c0.25,0.55,0.37,1.21,0.37,1.99c0,1.04-0.21,2.02-0.62,2.96c-0.41,0.94-1,1.76-1.77,2.47c-0.77,0.71-1.7,1.27-2.79,1.68
			c-1.09,0.41-2.31,0.62-3.65,0.62c-0.69,0-1.35-0.07-1.98-0.2c-0.64-0.13-1.24-0.32-1.8-0.56c-0.56-0.24-1.07-0.52-1.52-0.84
			s-0.84-0.67-1.17-1.05l1.26-1.97c0.15-0.24,0.34-0.42,0.56-0.55s0.47-0.19,0.77-0.19c0.29,0,0.56,0.09,0.8,0.27
			c0.24,0.18,0.52,0.38,0.84,0.6s0.71,0.42,1.17,0.6s1.04,0.27,1.75,0.27c0.57,0,1.08-0.08,1.52-0.23c0.44-0.15,0.81-0.36,1.11-0.63
			s0.53-0.57,0.68-0.92c0.15-0.35,0.23-0.72,0.23-1.11c0-0.48-0.12-0.87-0.36-1.19c-0.24-0.32-0.56-0.59-0.96-0.82
			c-0.4-0.23-0.85-0.43-1.36-0.61c-0.5-0.18-1.02-0.36-1.54-0.56s-1.04-0.42-1.53-0.67c-0.5-0.25-0.95-0.57-1.34-0.96
			c-0.4-0.38-0.72-0.85-0.96-1.41c-0.24-0.55-0.36-1.23-0.36-2.03c0-0.95,0.18-1.88,0.55-2.78c0.36-0.9,0.9-1.7,1.61-2.39
			c0.71-0.69,1.58-1.25,2.61-1.67c1.03-0.42,2.21-0.63,3.54-0.63c1.37,0,2.59,0.23,3.64,0.7c1.06,0.47,1.95,1.07,2.68,1.8
			L267.59,516.35z"/>
		<path d="M284.07,516.35c-0.15,0.22-0.3,0.38-0.44,0.47c-0.14,0.09-0.32,0.14-0.55,0.14c-0.24,0-0.48-0.07-0.73-0.21
			s-0.54-0.3-0.87-0.47c-0.33-0.17-0.71-0.33-1.13-0.47c-0.43-0.14-0.94-0.21-1.54-0.21c-1.11,0-1.95,0.25-2.54,0.75
			c-0.59,0.5-0.88,1.12-0.88,1.86c0,0.43,0.12,0.8,0.37,1.1c0.25,0.3,0.56,0.56,0.96,0.79c0.39,0.22,0.84,0.43,1.34,0.62
			c0.5,0.19,1.02,0.39,1.55,0.61c0.53,0.22,1.05,0.46,1.55,0.74c0.5,0.27,0.95,0.61,1.34,1s0.71,0.86,0.96,1.42
			c0.25,0.55,0.37,1.21,0.37,1.99c0,1.04-0.21,2.02-0.62,2.96c-0.41,0.94-1,1.76-1.77,2.47c-0.77,0.71-1.7,1.27-2.79,1.68
			c-1.09,0.41-2.31,0.62-3.65,0.62c-0.69,0-1.35-0.07-1.98-0.2c-0.64-0.13-1.24-0.32-1.8-0.56c-0.56-0.24-1.07-0.52-1.52-0.84
			s-0.84-0.67-1.17-1.05l1.26-1.97c0.15-0.24,0.34-0.42,0.56-0.55s0.47-0.19,0.77-0.19c0.29,0,0.56,0.09,0.8,0.27
			c0.24,0.18,0.52,0.38,0.84,0.6s0.71,0.42,1.17,0.6s1.04,0.27,1.75,0.27c0.57,0,1.08-0.08,1.52-0.23c0.44-0.15,0.81-0.36,1.11-0.63
			s0.53-0.57,0.68-0.92c0.15-0.35,0.23-0.72,0.23-1.11c0-0.48-0.12-0.87-0.36-1.19c-0.24-0.32-0.56-0.59-0.96-0.82
			c-0.4-0.23-0.85-0.43-1.36-0.61c-0.5-0.18-1.02-0.36-1.54-0.56s-1.04-0.42-1.53-0.67c-0.5-0.25-0.95-0.57-1.34-0.96
			c-0.4-0.38-0.72-0.85-0.96-1.41c-0.24-0.55-0.36-1.23-0.36-2.03c0-0.95,0.18-1.88,0.55-2.78c0.36-0.9,0.9-1.7,1.61-2.39
			c0.71-0.69,1.58-1.25,2.61-1.67c1.03-0.42,2.21-0.63,3.54-0.63c1.37,0,2.59,0.23,3.64,0.7c1.06,0.47,1.95,1.07,2.68,1.8
			L284.07,516.35z"/>
		<path d="M319.24,533.84h-4.22c-0.47,0-0.85-0.11-1.13-0.34c-0.28-0.22-0.46-0.53-0.53-0.9l-1.26-6.34h-11.32l-2.81,6.34
			c-0.15,0.32-0.41,0.61-0.76,0.86c-0.35,0.25-0.74,0.38-1.18,0.38h-4.29l14.68-30.37H312L319.24,533.84z M302.49,522.42h8.84
			l-2.06-10.4c-0.11-0.5-0.22-1.04-0.34-1.6c-0.11-0.56-0.22-1.19-0.31-1.89c-0.27,0.7-0.53,1.35-0.79,1.94
			c-0.26,0.59-0.5,1.12-0.72,1.56L302.49,522.42z"/>
		<path d="M327.62,522.19l-5-9.89h4.71c0.35,0,0.6,0.05,0.76,0.15c0.15,0.1,0.29,0.27,0.4,0.5l2.96,6.43
			c0.08-0.17,0.18-0.34,0.27-0.51s0.21-0.35,0.34-0.54l3.78-5.29c0.17-0.24,0.34-0.42,0.53-0.55s0.39-0.19,0.63-0.19h4.7l-7.58,9.91
			l5.54,11.63h-4.72c-0.35,0-0.63-0.09-0.83-0.28c-0.2-0.19-0.36-0.41-0.47-0.66l-3.3-7.56c-0.07,0.15-0.15,0.31-0.23,0.46
			s-0.17,0.29-0.25,0.42l-4.79,6.68c-0.18,0.24-0.38,0.46-0.61,0.65c-0.22,0.2-0.5,0.29-0.82,0.29h-4.56L327.62,522.19z"/>
		<path d="M350.6,512.3l-2.58,21.55h-5.12l2.58-21.55H350.6z M351.9,506.02c0,0.45-0.1,0.87-0.29,1.26
			c-0.19,0.39-0.43,0.74-0.73,1.03s-0.65,0.53-1.04,0.7c-0.39,0.17-0.8,0.26-1.22,0.26c-0.41,0-0.8-0.09-1.19-0.26
			c-0.39-0.18-0.72-0.41-1.02-0.7c-0.29-0.29-0.53-0.64-0.7-1.03c-0.18-0.39-0.26-0.81-0.26-1.26c0-0.45,0.09-0.88,0.27-1.28
			c0.18-0.41,0.42-0.76,0.71-1.06c0.29-0.3,0.63-0.54,1.02-0.71c0.39-0.17,0.78-0.26,1.19-0.26c0.42,0,0.83,0.09,1.22,0.26
			c0.39,0.18,0.74,0.41,1.04,0.7s0.54,0.64,0.72,1.05C351.81,505.12,351.9,505.55,351.9,506.02z"/>
		<path d="M367.54,516.35c-0.15,0.22-0.3,0.38-0.44,0.47c-0.14,0.09-0.32,0.14-0.55,0.14c-0.24,0-0.48-0.07-0.73-0.21
			s-0.54-0.3-0.87-0.47c-0.33-0.17-0.71-0.33-1.13-0.47c-0.43-0.14-0.94-0.21-1.54-0.21c-1.11,0-1.95,0.25-2.54,0.75
			c-0.59,0.5-0.88,1.12-0.88,1.86c0,0.43,0.12,0.8,0.37,1.1c0.25,0.3,0.56,0.56,0.96,0.79c0.39,0.22,0.84,0.43,1.34,0.62
			c0.5,0.19,1.02,0.39,1.55,0.61c0.53,0.22,1.05,0.46,1.55,0.74c0.5,0.27,0.95,0.61,1.34,1s0.71,0.86,0.96,1.42
			c0.25,0.55,0.37,1.21,0.37,1.99c0,1.04-0.21,2.02-0.62,2.96c-0.41,0.94-1,1.76-1.77,2.47c-0.77,0.71-1.7,1.27-2.79,1.68
			c-1.09,0.41-2.31,0.62-3.65,0.62c-0.69,0-1.35-0.07-1.98-0.2c-0.64-0.13-1.24-0.32-1.8-0.56c-0.56-0.24-1.07-0.52-1.52-0.84
			s-0.84-0.67-1.17-1.05l1.26-1.97c0.15-0.24,0.34-0.42,0.56-0.55s0.47-0.19,0.77-0.19c0.29,0,0.56,0.09,0.8,0.27
			c0.24,0.18,0.52,0.38,0.84,0.6s0.71,0.42,1.17,0.6s1.04,0.27,1.75,0.27c0.57,0,1.08-0.08,1.52-0.23c0.44-0.15,0.81-0.36,1.11-0.63
			s0.53-0.57,0.68-0.92c0.15-0.35,0.23-0.72,0.23-1.11c0-0.48-0.12-0.87-0.36-1.19c-0.24-0.32-0.56-0.59-0.96-0.82
			c-0.4-0.23-0.85-0.43-1.36-0.61c-0.5-0.18-1.02-0.36-1.54-0.56s-1.04-0.42-1.53-0.67c-0.5-0.25-0.95-0.57-1.34-0.96
			c-0.4-0.38-0.72-0.85-0.96-1.41c-0.24-0.55-0.36-1.23-0.36-2.03c0-0.95,0.18-1.88,0.55-2.78c0.36-0.9,0.9-1.7,1.61-2.39
			c0.71-0.69,1.58-1.25,2.61-1.67c1.03-0.42,2.21-0.63,3.54-0.63c1.37,0,2.59,0.23,3.64,0.7c1.06,0.47,1.95,1.07,2.68,1.8
			L367.54,516.35z"/>
	</g>
	<g display="inline">
		<path fill="#999999" d="M204.24,528.56c0.85,0,1.6-0.07,2.24-0.2s1.19-0.3,1.66-0.51c0.47-0.21,0.87-0.43,1.21-0.66
			c0.34-0.23,0.63-0.45,0.88-0.66s0.48-0.38,0.67-0.51c0.2-0.13,0.39-0.2,0.59-0.2c0.17,0,0.31,0.04,0.42,0.11
			c0.11,0.07,0.2,0.14,0.27,0.21l1.91,2.37c-1.32,1.51-2.86,2.67-4.64,3.48c-1.78,0.8-3.82,1.21-6.13,1.21c-1.86,0-3.52-0.33-4.98-1
			c-1.46-0.67-2.69-1.59-3.7-2.76c-1.01-1.18-1.77-2.57-2.3-4.18c-0.52-1.61-0.79-3.37-0.79-5.27c0-1.75,0.19-3.41,0.57-4.97
			c0.38-1.56,0.92-3,1.62-4.33c0.7-1.32,1.54-2.51,2.52-3.56c0.98-1.05,2.07-1.95,3.26-2.69s2.48-1.31,3.85-1.7
			c1.38-0.39,2.82-0.59,4.31-0.59c1.11,0,2.12,0.1,3.03,0.3s1.73,0.49,2.48,0.85s1.41,0.8,2,1.31s1.12,1.08,1.6,1.71l-1.89,2.27
			c-0.14,0.17-0.3,0.31-0.49,0.44c-0.19,0.13-0.42,0.19-0.7,0.19c-0.31,0-0.6-0.13-0.88-0.38c-0.28-0.25-0.63-0.53-1.06-0.83
			c-0.43-0.3-0.98-0.58-1.66-0.83c-0.68-0.25-1.57-0.38-2.68-0.38c-1.46,0-2.81,0.3-4.05,0.89c-1.25,0.59-2.33,1.45-3.26,2.55
			c-0.92,1.11-1.65,2.44-2.17,4c-0.53,1.56-0.79,3.31-0.79,5.26c0,1.41,0.18,2.68,0.54,3.8s0.85,2.07,1.48,2.85
			c0.63,0.78,1.38,1.37,2.25,1.79C202.27,528.35,203.22,528.56,204.24,528.56z"/>
		<path fill="#999999" d="M216.44,532.84l2.63-21.57h2.63c0.5,0,0.92,0.11,1.24,0.34c0.32,0.22,0.48,0.58,0.48,1.07
			c0,0.1-0.01,0.27-0.02,0.5c-0.01,0.24-0.03,0.61-0.04,1.12s-0.04,1.23-0.08,2.15c0.88-1.69,1.85-3,2.9-3.93
			c1.05-0.92,2.14-1.39,3.28-1.39c0.57,0,1.15,0.13,1.74,0.38l-0.95,4.96c-0.7-0.29-1.36-0.44-1.99-0.44
			c-1.25,0-2.34,0.59-3.28,1.79c-0.94,1.19-1.71,3.05-2.31,5.59l-1.13,9.43H216.44z"/>
		<path fill="#999999" d="M238.97,533.16c-1.19,0-2.29-0.2-3.31-0.6c-1.02-0.4-1.89-0.98-2.63-1.75c-0.73-0.77-1.31-1.71-1.73-2.83
			s-0.63-2.4-0.63-3.84c0-1.86,0.3-3.6,0.89-5.21c0.59-1.61,1.41-3,2.44-4.18c1.03-1.18,2.23-2.1,3.6-2.77
			c1.37-0.67,2.83-1.01,4.39-1.01c1.19,0,2.29,0.2,3.31,0.6c1.02,0.4,1.89,0.98,2.64,1.75c0.74,0.77,1.32,1.72,1.74,2.83
			c0.42,1.12,0.63,2.4,0.63,3.84c0,1.85-0.3,3.57-0.9,5.18c-0.6,1.6-1.42,3-2.45,4.18c-1.03,1.18-2.23,2.11-3.6,2.79
			C241.99,532.82,240.53,533.16,238.97,533.16z M239.43,529.17c0.87,0,1.65-0.25,2.35-0.75c0.7-0.5,1.3-1.16,1.8-1.99
			c0.5-0.83,0.88-1.8,1.14-2.91c0.27-1.11,0.4-2.27,0.4-3.49c0-1.75-0.3-3.04-0.89-3.86s-1.49-1.24-2.7-1.24
			c-0.87,0-1.65,0.25-2.35,0.74s-1.29,1.15-1.79,2c-0.49,0.84-0.87,1.81-1.13,2.92c-0.27,1.11-0.4,2.27-0.4,3.51
			c0,1.75,0.29,3.03,0.88,3.85C237.33,528.76,238.23,529.17,239.43,529.17z"/>
		<path fill="#999999" d="M266.59,515.35c-0.15,0.22-0.3,0.38-0.44,0.47c-0.14,0.09-0.32,0.14-0.55,0.14
			c-0.24,0-0.48-0.07-0.73-0.21s-0.54-0.3-0.87-0.47c-0.33-0.17-0.71-0.33-1.13-0.47c-0.43-0.14-0.94-0.21-1.54-0.21
			c-1.11,0-1.95,0.25-2.54,0.75c-0.59,0.5-0.88,1.12-0.88,1.86c0,0.43,0.12,0.8,0.37,1.1c0.25,0.3,0.56,0.56,0.96,0.79
			c0.39,0.22,0.84,0.43,1.34,0.62c0.5,0.19,1.02,0.39,1.55,0.61c0.53,0.22,1.05,0.46,1.55,0.74c0.5,0.27,0.95,0.61,1.34,1
			s0.71,0.86,0.96,1.42c0.25,0.55,0.37,1.21,0.37,1.99c0,1.04-0.21,2.02-0.62,2.96c-0.41,0.94-1,1.76-1.77,2.47
			c-0.77,0.71-1.7,1.27-2.79,1.68c-1.09,0.41-2.31,0.62-3.65,0.62c-0.69,0-1.35-0.07-1.98-0.2c-0.64-0.13-1.24-0.32-1.8-0.56
			c-0.56-0.24-1.07-0.52-1.52-0.84s-0.84-0.67-1.17-1.05l1.26-1.97c0.15-0.24,0.34-0.42,0.56-0.55s0.47-0.19,0.77-0.19
			c0.29,0,0.56,0.09,0.8,0.27c0.24,0.18,0.52,0.38,0.84,0.6s0.71,0.42,1.17,0.6s1.04,0.27,1.75,0.27c0.57,0,1.08-0.08,1.52-0.23
			c0.44-0.15,0.81-0.36,1.11-0.63s0.53-0.57,0.68-0.92c0.15-0.35,0.23-0.72,0.23-1.11c0-0.48-0.12-0.87-0.36-1.19
			c-0.24-0.32-0.56-0.59-0.96-0.82c-0.4-0.23-0.85-0.43-1.36-0.61c-0.5-0.18-1.02-0.36-1.54-0.56s-1.04-0.42-1.53-0.67
			c-0.5-0.25-0.95-0.57-1.34-0.96c-0.4-0.38-0.72-0.85-0.96-1.41c-0.24-0.55-0.36-1.23-0.36-2.03c0-0.95,0.18-1.88,0.55-2.78
			c0.36-0.9,0.9-1.7,1.61-2.39c0.71-0.69,1.58-1.25,2.61-1.67c1.03-0.42,2.21-0.63,3.54-0.63c1.37,0,2.59,0.23,3.64,0.7
			c1.06,0.47,1.95,1.07,2.68,1.8L266.59,515.35z"/>
		<path fill="#999999" d="M283.07,515.35c-0.15,0.22-0.3,0.38-0.44,0.47c-0.14,0.09-0.32,0.14-0.55,0.14
			c-0.24,0-0.48-0.07-0.73-0.21s-0.54-0.3-0.87-0.47c-0.33-0.17-0.71-0.33-1.13-0.47c-0.43-0.14-0.94-0.21-1.54-0.21
			c-1.11,0-1.95,0.25-2.54,0.75c-0.59,0.5-0.88,1.12-0.88,1.86c0,0.43,0.12,0.8,0.37,1.1c0.25,0.3,0.56,0.56,0.96,0.79
			c0.39,0.22,0.84,0.43,1.34,0.62c0.5,0.19,1.02,0.39,1.55,0.61c0.53,0.22,1.05,0.46,1.55,0.74c0.5,0.27,0.95,0.61,1.34,1
			s0.71,0.86,0.96,1.42c0.25,0.55,0.37,1.21,0.37,1.99c0,1.04-0.21,2.02-0.62,2.96c-0.41,0.94-1,1.76-1.77,2.47
			c-0.77,0.71-1.7,1.27-2.79,1.68c-1.09,0.41-2.31,0.62-3.65,0.62c-0.69,0-1.35-0.07-1.98-0.2c-0.64-0.13-1.24-0.32-1.8-0.56
			c-0.56-0.24-1.07-0.52-1.52-0.84s-0.84-0.67-1.17-1.05l1.26-1.97c0.15-0.24,0.34-0.42,0.56-0.55s0.47-0.19,0.77-0.19
			c0.29,0,0.56,0.09,0.8,0.27c0.24,0.18,0.52,0.38,0.84,0.6s0.71,0.42,1.17,0.6s1.04,0.27,1.75,0.27c0.57,0,1.08-0.08,1.52-0.23
			c0.44-0.15,0.81-0.36,1.11-0.63s0.53-0.57,0.68-0.92c0.15-0.35,0.23-0.72,0.23-1.11c0-0.48-0.12-0.87-0.36-1.19
			c-0.24-0.32-0.56-0.59-0.96-0.82c-0.4-0.23-0.85-0.43-1.36-0.61c-0.5-0.18-1.02-0.36-1.54-0.56s-1.04-0.42-1.53-0.67
			c-0.5-0.25-0.95-0.57-1.34-0.96c-0.4-0.38-0.72-0.85-0.96-1.41c-0.24-0.55-0.36-1.23-0.36-2.03c0-0.95,0.18-1.88,0.55-2.78
			c0.36-0.9,0.9-1.7,1.61-2.39c0.71-0.69,1.58-1.25,2.61-1.67c1.03-0.42,2.21-0.63,3.54-0.63c1.37,0,2.59,0.23,3.64,0.7
			c1.06,0.47,1.95,1.07,2.68,1.8L283.07,515.35z"/>
		<path fill="#999999" d="M318.24,532.84h-4.22c-0.47,0-0.85-0.11-1.13-0.34c-0.28-0.22-0.46-0.53-0.53-0.9l-1.26-6.34h-11.32
			l-2.81,6.34c-0.15,0.32-0.41,0.61-0.76,0.86c-0.35,0.25-0.74,0.38-1.18,0.38h-4.29l14.68-30.37H311L318.24,532.84z M301.49,521.42
			h8.84l-2.06-10.4c-0.11-0.5-0.22-1.04-0.34-1.6c-0.11-0.56-0.22-1.19-0.31-1.89c-0.27,0.7-0.53,1.35-0.79,1.94
			c-0.26,0.59-0.5,1.12-0.72,1.56L301.49,521.42z"/>
		<path fill="#999999" d="M326.62,521.19l-5-9.89h4.71c0.35,0,0.6,0.05,0.76,0.15c0.15,0.1,0.29,0.27,0.4,0.5l2.96,6.43
			c0.08-0.17,0.18-0.34,0.27-0.51s0.21-0.35,0.34-0.54l3.78-5.29c0.17-0.24,0.34-0.42,0.53-0.55s0.39-0.19,0.63-0.19h4.7l-7.58,9.91
			l5.54,11.63h-4.72c-0.35,0-0.63-0.09-0.83-0.28c-0.2-0.19-0.36-0.41-0.47-0.66l-3.3-7.56c-0.07,0.15-0.15,0.31-0.23,0.46
			s-0.17,0.29-0.25,0.42l-4.79,6.68c-0.18,0.24-0.38,0.46-0.61,0.65c-0.22,0.2-0.5,0.29-0.82,0.29h-4.56L326.62,521.19z"/>
		<path fill="#999999" d="M349.6,511.3l-2.58,21.55h-5.12l2.58-21.55H349.6z M350.9,505.02c0,0.45-0.1,0.87-0.29,1.26
			c-0.19,0.39-0.43,0.74-0.73,1.03s-0.65,0.53-1.04,0.7c-0.39,0.17-0.8,0.26-1.22,0.26c-0.41,0-0.8-0.09-1.19-0.26
			c-0.39-0.18-0.72-0.41-1.02-0.7c-0.29-0.29-0.53-0.64-0.7-1.03c-0.18-0.39-0.26-0.81-0.26-1.26c0-0.45,0.09-0.88,0.27-1.28
			c0.18-0.41,0.42-0.76,0.71-1.06c0.29-0.3,0.63-0.54,1.02-0.71c0.39-0.17,0.78-0.26,1.19-0.26c0.42,0,0.83,0.09,1.22,0.26
			c0.39,0.18,0.74,0.41,1.04,0.7s0.54,0.64,0.72,1.05C350.81,504.12,350.9,504.55,350.9,505.02z"/>
		<path fill="#999999" d="M366.54,515.35c-0.15,0.22-0.3,0.38-0.44,0.47c-0.14,0.09-0.32,0.14-0.55,0.14
			c-0.24,0-0.48-0.07-0.73-0.21s-0.54-0.3-0.87-0.47c-0.33-0.17-0.71-0.33-1.13-0.47c-0.43-0.14-0.94-0.21-1.54-0.21
			c-1.11,0-1.95,0.25-2.54,0.75c-0.59,0.5-0.88,1.12-0.88,1.86c0,0.43,0.12,0.8,0.37,1.1c0.25,0.3,0.56,0.56,0.96,0.79
			c0.39,0.22,0.84,0.43,1.34,0.62c0.5,0.19,1.02,0.39,1.55,0.61c0.53,0.22,1.05,0.46,1.55,0.74c0.5,0.27,0.95,0.61,1.34,1
			s0.71,0.86,0.96,1.42c0.25,0.55,0.37,1.21,0.37,1.99c0,1.04-0.21,2.02-0.62,2.96c-0.41,0.94-1,1.76-1.77,2.47
			c-0.77,0.71-1.7,1.27-2.79,1.68c-1.09,0.41-2.31,0.62-3.65,0.62c-0.69,0-1.35-0.07-1.98-0.2c-0.64-0.13-1.24-0.32-1.8-0.56
			c-0.56-0.24-1.07-0.52-1.52-0.84s-0.84-0.67-1.17-1.05l1.26-1.97c0.15-0.24,0.34-0.42,0.56-0.55s0.47-0.19,0.77-0.19
			c0.29,0,0.56,0.09,0.8,0.27c0.24,0.18,0.52,0.38,0.84,0.6s0.71,0.42,1.17,0.6s1.04,0.27,1.75,0.27c0.57,0,1.08-0.08,1.52-0.23
			c0.44-0.15,0.81-0.36,1.11-0.63s0.53-0.57,0.68-0.92c0.15-0.35,0.23-0.72,0.23-1.11c0-0.48-0.12-0.87-0.36-1.19
			c-0.24-0.32-0.56-0.59-0.96-0.82c-0.4-0.23-0.85-0.43-1.36-0.61c-0.5-0.18-1.02-0.36-1.54-0.56s-1.04-0.42-1.53-0.67
			c-0.5-0.25-0.95-0.57-1.34-0.96c-0.4-0.38-0.72-0.85-0.96-1.41c-0.24-0.55-0.36-1.23-0.36-2.03c0-0.95,0.18-1.88,0.55-2.78
			c0.36-0.9,0.9-1.7,1.61-2.39c0.71-0.69,1.58-1.25,2.61-1.67c1.03-0.42,2.21-0.63,3.54-0.63c1.37,0,2.59,0.23,3.64,0.7
			c1.06,0.47,1.95,1.07,2.68,1.8L366.54,515.35z"/>
	</g>
	<g display="inline">
		<path d="M24.53,171.21c-0.38,0.1-0.76,0.2-1.16,0.29c0.39,0.17,0.78,0.35,1.16,0.55s0.75,0.41,1.11,0.63l17.35,10.54
			c0.21,0.13,0.37,0.26,0.49,0.39c0.12,0.13,0.21,0.27,0.26,0.42c0.06,0.15,0.09,0.31,0.1,0.49c0.01,0.18,0.02,0.39,0.02,0.63v4.14
			l-30.37-3.74v-4.79l19.78,2.44c0.36,0.04,0.76,0.1,1.2,0.19c0.43,0.08,0.88,0.17,1.32,0.27l-17.35-10.44
			c-0.39-0.24-0.69-0.54-0.88-0.89c-0.2-0.36-0.29-0.75-0.29-1.17v-0.76c0-0.42,0.1-0.79,0.29-1.1c0.2-0.32,0.49-0.54,0.88-0.68
			l17.28-6.26c-0.43-0.01-0.85-0.03-1.26-0.05c-0.41-0.02-0.78-0.05-1.11-0.09l-19.87-2.39v-4.81l30.37,3.74v4.09
			c0,0.24-0.01,0.45-0.02,0.63c-0.01,0.18-0.05,0.34-0.1,0.48c-0.06,0.14-0.14,0.26-0.26,0.36c-0.12,0.1-0.28,0.19-0.49,0.27
			l-17.35,6.28C25.27,171,24.9,171.11,24.53,171.21z"/>
		<path d="M13.5,207.58v-2.73c0-0.63,0.15-1.07,0.44-1.32s0.66-0.38,1.11-0.38l2.94,0.17c-1.48-0.95-2.66-2.02-3.52-3.21
			c-0.86-1.19-1.29-2.5-1.29-3.93c0-0.81,0.16-1.57,0.48-2.28c0.32-0.71,0.8-1.32,1.44-1.85c0.64-0.52,1.43-0.94,2.39-1.24
			c0.96-0.3,2.08-0.45,3.37-0.45s2.54,0.16,3.76,0.48c1.22,0.32,2.36,0.78,3.43,1.38s2.05,1.31,2.95,2.15
			c0.9,0.84,1.67,1.78,2.31,2.83c0.64,1.04,1.14,2.17,1.5,3.38c0.36,1.21,0.54,2.49,0.54,3.83c0,0.97-0.07,1.94-0.21,2.91
			c-0.14,0.97-0.39,1.93-0.76,2.87L13.5,207.58z M17.43,198.21c0,0.57,0.2,1.14,0.59,1.69c0.39,0.55,0.93,1.07,1.63,1.56
			c0.69,0.49,1.51,0.94,2.45,1.37c0.94,0.42,1.95,0.78,3.02,1.09l6.51,0.82c0.04-0.38,0.06-0.73,0.06-1.05
			c0-1.16-0.27-2.24-0.8-3.23c-0.53-1-1.25-1.86-2.15-2.58c-0.9-0.73-1.95-1.3-3.15-1.71c-1.2-0.41-2.46-0.62-3.79-0.62
			c-1.51,0-2.62,0.24-3.32,0.71C17.78,196.74,17.43,197.39,17.43,198.21z"/>
		<path d="M35.05,220.56l-21.55-2.58v-5.12l21.55,2.58V220.56z M41.32,221.86c-0.45,0-0.87-0.09-1.26-0.28
			c-0.39-0.19-0.73-0.43-1.03-0.73c-0.29-0.3-0.53-0.65-0.7-1.04s-0.26-0.8-0.26-1.22c0-0.41,0.09-0.8,0.26-1.19
			c0.17-0.39,0.41-0.72,0.7-1.02c0.29-0.29,0.64-0.53,1.03-0.7c0.39-0.18,0.81-0.26,1.26-0.26c0.45,0,0.87,0.09,1.28,0.27
			c0.41,0.18,0.76,0.42,1.06,0.71c0.3,0.29,0.54,0.63,0.71,1.02c0.17,0.39,0.26,0.78,0.26,1.19c0,0.42-0.09,0.83-0.26,1.22
			c-0.18,0.39-0.41,0.74-0.7,1.04c-0.29,0.3-0.64,0.54-1.05,0.72C42.22,221.77,41.79,221.86,41.32,221.86z"/>
		<path d="M13.5,223.2l21.57,2.58v2.65c0,0.55-0.13,0.97-0.4,1.27c-0.27,0.3-0.69,0.45-1.28,0.45l-2.79-0.15
			c1.61,1.09,2.81,2.3,3.6,3.63s1.19,2.7,1.19,4.12c0,0.8-0.14,1.52-0.43,2.17c-0.29,0.65-0.71,1.21-1.26,1.67s-1.23,0.82-2.04,1.07
			s-1.73,0.38-2.78,0.38c-0.27,0-0.54-0.01-0.81-0.03c-0.27-0.02-0.56-0.04-0.85-0.07l-13.71-1.62v-5.19
			c2.37,0.28,4.37,0.52,6.02,0.71c1.64,0.2,3.01,0.36,4.11,0.48s1.95,0.22,2.57,0.29c0.62,0.07,1.1,0.12,1.42,0.16
			c0.32,0.03,0.54,0.06,0.64,0.06c0.1,0.01,0.19,0.01,0.26,0.01c0.92,0,1.59-0.17,2.01-0.5s0.62-0.86,0.62-1.58
			c0-0.57-0.17-1.17-0.5-1.79s-0.81-1.2-1.43-1.76c-0.62-0.56-1.36-1.07-2.23-1.53c-0.87-0.46-1.83-0.84-2.9-1.13l-10.58-1.18V223.2
			z"/>
		<path d="M13.5,278.81v-4.22c0-0.48,0.11-0.85,0.34-1.13s0.53-0.46,0.9-0.53l6.34-1.26v-11.32l-6.34-2.81
			c-0.32-0.15-0.61-0.41-0.86-0.76c-0.25-0.35-0.38-0.74-0.38-1.18v-4.28L43.87,266v5.57L13.5,278.81z M24.92,262.05v8.84l10.4-2.06
			c0.5-0.11,1.04-0.22,1.6-0.34c0.56-0.11,1.19-0.22,1.89-0.32c-0.7-0.27-1.35-0.53-1.94-0.79s-1.12-0.5-1.56-0.72L24.92,262.05z"/>
		<path d="M25.16,287.19l9.89-5v4.7c0,0.35-0.05,0.6-0.15,0.76c-0.1,0.15-0.27,0.29-0.5,0.4l-6.43,2.96
			c0.17,0.08,0.34,0.17,0.51,0.27s0.35,0.21,0.54,0.34l5.29,3.78c0.24,0.17,0.42,0.34,0.55,0.53c0.13,0.18,0.19,0.39,0.19,0.63v4.7
			l-9.91-7.58l-11.63,5.54v-4.73c0-0.35,0.09-0.63,0.28-0.83c0.19-0.2,0.41-0.36,0.66-0.47l7.56-3.3c-0.15-0.07-0.31-0.15-0.46-0.23
			s-0.29-0.17-0.42-0.25l-6.68-4.79c-0.24-0.18-0.46-0.38-0.65-0.61c-0.2-0.22-0.29-0.5-0.29-0.82v-4.56L25.16,287.19z"/>
		<path d="M35.05,310.16l-21.55-2.58v-5.12l21.55,2.58V310.16z M41.32,311.46c-0.45,0-0.87-0.09-1.26-0.28
			c-0.39-0.19-0.73-0.43-1.03-0.73c-0.29-0.3-0.53-0.65-0.7-1.04s-0.26-0.8-0.26-1.22c0-0.41,0.09-0.8,0.26-1.19
			c0.17-0.39,0.41-0.72,0.7-1.02c0.29-0.29,0.64-0.53,1.03-0.7c0.39-0.18,0.81-0.26,1.26-0.26c0.45,0,0.87,0.09,1.28,0.27
			c0.41,0.18,0.76,0.42,1.06,0.71c0.3,0.29,0.54,0.63,0.71,1.02c0.17,0.39,0.26,0.78,0.26,1.19c0,0.42-0.09,0.83-0.26,1.22
			c-0.18,0.39-0.41,0.74-0.7,1.04c-0.29,0.3-0.64,0.54-1.05,0.72C42.22,311.37,41.79,311.46,41.32,311.46z"/>
		<path d="M30.99,327.11c-0.22-0.15-0.38-0.3-0.47-0.44c-0.09-0.14-0.14-0.32-0.14-0.55c0-0.24,0.07-0.48,0.21-0.74
			s0.3-0.54,0.47-0.87c0.17-0.33,0.33-0.71,0.47-1.13c0.14-0.43,0.21-0.94,0.21-1.54c0-1.11-0.25-1.95-0.75-2.54
			c-0.5-0.59-1.12-0.88-1.86-0.88c-0.43,0-0.8,0.12-1.1,0.37c-0.3,0.25-0.56,0.56-0.79,0.96c-0.22,0.39-0.43,0.84-0.62,1.34
			c-0.19,0.5-0.39,1.02-0.61,1.55s-0.46,1.05-0.74,1.55c-0.27,0.5-0.61,0.95-1,1.34c-0.39,0.39-0.86,0.71-1.42,0.96
			c-0.55,0.25-1.21,0.37-1.99,0.37c-1.04,0-2.02-0.21-2.96-0.62c-0.94-0.41-1.76-1-2.47-1.77c-0.71-0.77-1.27-1.7-1.68-2.79
			c-0.41-1.09-0.62-2.31-0.62-3.65c0-0.69,0.07-1.35,0.2-1.98c0.13-0.64,0.32-1.24,0.56-1.8c0.24-0.56,0.52-1.07,0.84-1.52
			s0.67-0.84,1.05-1.17l1.97,1.26c0.24,0.15,0.42,0.34,0.55,0.56s0.19,0.47,0.19,0.77s-0.09,0.56-0.27,0.8
			c-0.18,0.24-0.38,0.52-0.6,0.84s-0.42,0.71-0.6,1.17c-0.18,0.45-0.27,1.04-0.27,1.75c0,0.57,0.08,1.08,0.23,1.52
			c0.15,0.44,0.36,0.81,0.63,1.11s0.57,0.53,0.92,0.68c0.35,0.15,0.72,0.23,1.11,0.23c0.48,0,0.87-0.12,1.19-0.36
			c0.32-0.24,0.59-0.56,0.82-0.96c0.23-0.4,0.43-0.85,0.61-1.36c0.18-0.5,0.36-1.02,0.56-1.54s0.42-1.04,0.67-1.53
			s0.57-0.95,0.96-1.34c0.38-0.4,0.85-0.72,1.41-0.96c0.55-0.24,1.23-0.36,2.03-0.36c0.95,0,1.88,0.18,2.78,0.55s1.7,0.9,2.39,1.61
			c0.69,0.71,1.25,1.58,1.67,2.6c0.42,1.03,0.63,2.21,0.63,3.54c0,1.37-0.23,2.59-0.7,3.64c-0.47,1.06-1.07,1.95-1.8,2.68
			L30.99,327.11z"/>
	</g>
	<g display="inline">
		<path fill="#FFFFFF" d="M23.53,170.21c-0.38,0.1-0.76,0.2-1.16,0.29c0.39,0.17,0.78,0.35,1.16,0.55s0.75,0.41,1.11,0.63
			l17.35,10.54c0.21,0.13,0.37,0.26,0.49,0.39c0.12,0.13,0.21,0.27,0.26,0.42c0.06,0.15,0.09,0.31,0.1,0.49
			c0.01,0.18,0.02,0.39,0.02,0.63v4.14l-30.37-3.74v-4.79l19.78,2.44c0.36,0.04,0.76,0.1,1.2,0.19c0.43,0.08,0.88,0.17,1.32,0.27
			l-17.35-10.44c-0.39-0.24-0.69-0.54-0.88-0.89c-0.2-0.36-0.29-0.75-0.29-1.17v-0.76c0-0.42,0.1-0.79,0.29-1.1
			c0.2-0.32,0.49-0.54,0.88-0.68l17.28-6.26c-0.43-0.01-0.85-0.03-1.26-0.05c-0.41-0.02-0.78-0.05-1.11-0.09l-19.87-2.39v-4.81
			l30.37,3.74v4.09c0,0.24-0.01,0.45-0.02,0.63c-0.01,0.18-0.05,0.34-0.1,0.48c-0.06,0.14-0.14,0.26-0.26,0.36
			c-0.12,0.1-0.28,0.19-0.49,0.27l-17.35,6.28C24.27,170,23.9,170.11,23.53,170.21z"/>
		<path fill="#FFFFFF" d="M12.5,206.58v-2.73c0-0.63,0.15-1.07,0.44-1.32s0.66-0.38,1.11-0.38l2.94,0.17
			c-1.48-0.95-2.66-2.02-3.52-3.21c-0.86-1.19-1.29-2.5-1.29-3.93c0-0.81,0.16-1.57,0.48-2.28c0.32-0.71,0.8-1.32,1.44-1.85
			c0.64-0.52,1.43-0.94,2.39-1.24c0.96-0.3,2.08-0.45,3.37-0.45s2.54,0.16,3.76,0.48c1.22,0.32,2.36,0.78,3.43,1.38
			s2.05,1.31,2.95,2.15c0.9,0.84,1.67,1.78,2.31,2.83c0.64,1.04,1.14,2.17,1.5,3.38c0.36,1.21,0.54,2.49,0.54,3.83
			c0,0.97-0.07,1.94-0.21,2.91c-0.14,0.97-0.39,1.93-0.76,2.87L12.5,206.58z M16.43,197.21c0,0.57,0.2,1.14,0.59,1.69
			c0.39,0.55,0.93,1.07,1.63,1.56c0.69,0.49,1.51,0.94,2.45,1.37c0.94,0.42,1.95,0.78,3.02,1.09l6.51,0.82
			c0.04-0.38,0.06-0.73,0.06-1.05c0-1.16-0.27-2.24-0.8-3.23c-0.53-1-1.25-1.86-2.15-2.58c-0.9-0.73-1.95-1.3-3.15-1.71
			c-1.2-0.41-2.46-0.62-3.79-0.62c-1.51,0-2.62,0.24-3.32,0.71C16.78,195.74,16.43,196.39,16.43,197.21z"/>
		<path fill="#FFFFFF" d="M34.05,219.56l-21.55-2.58v-5.12l21.55,2.58V219.56z M40.32,220.86c-0.45,0-0.87-0.09-1.26-0.28
			c-0.39-0.19-0.73-0.43-1.03-0.73c-0.29-0.3-0.53-0.65-0.7-1.04s-0.26-0.8-0.26-1.22c0-0.41,0.09-0.8,0.26-1.19
			c0.17-0.39,0.41-0.72,0.7-1.02c0.29-0.29,0.64-0.53,1.03-0.7c0.39-0.18,0.81-0.26,1.26-0.26c0.45,0,0.87,0.09,1.28,0.27
			c0.41,0.18,0.76,0.42,1.06,0.71c0.3,0.29,0.54,0.63,0.71,1.02c0.17,0.39,0.26,0.78,0.26,1.19c0,0.42-0.09,0.83-0.26,1.22
			c-0.18,0.39-0.41,0.74-0.7,1.04c-0.29,0.3-0.64,0.54-1.05,0.72C41.22,220.77,40.79,220.86,40.32,220.86z"/>
		<path fill="#FFFFFF" d="M12.5,222.2l21.57,2.58v2.65c0,0.55-0.13,0.97-0.4,1.27c-0.27,0.3-0.69,0.45-1.28,0.45l-2.79-0.15
			c1.61,1.09,2.81,2.3,3.6,3.63s1.19,2.7,1.19,4.12c0,0.8-0.14,1.52-0.43,2.17c-0.29,0.65-0.71,1.21-1.26,1.67s-1.23,0.82-2.04,1.07
			s-1.73,0.38-2.78,0.38c-0.27,0-0.54-0.01-0.81-0.03c-0.27-0.02-0.56-0.04-0.85-0.07l-13.71-1.62v-5.19
			c2.37,0.28,4.37,0.52,6.02,0.71c1.64,0.2,3.01,0.36,4.11,0.48s1.95,0.22,2.57,0.29c0.62,0.07,1.1,0.12,1.42,0.16
			c0.32,0.03,0.54,0.06,0.64,0.06c0.1,0.01,0.19,0.01,0.26,0.01c0.92,0,1.59-0.17,2.01-0.5s0.62-0.86,0.62-1.58
			c0-0.57-0.17-1.17-0.5-1.79s-0.81-1.2-1.43-1.76c-0.62-0.56-1.36-1.07-2.23-1.53c-0.87-0.46-1.83-0.84-2.9-1.13l-10.58-1.18V222.2
			z"/>
		<path fill="#FFFFFF" d="M12.5,277.81v-4.22c0-0.48,0.11-0.85,0.34-1.13s0.53-0.46,0.9-0.53l6.34-1.26v-11.32l-6.34-2.81
			c-0.32-0.15-0.61-0.41-0.86-0.76c-0.25-0.35-0.38-0.74-0.38-1.18v-4.28L42.87,265v5.57L12.5,277.81z M23.92,261.05v8.84l10.4-2.06
			c0.5-0.11,1.04-0.22,1.6-0.34c0.56-0.11,1.19-0.22,1.89-0.32c-0.7-0.27-1.35-0.53-1.94-0.79s-1.12-0.5-1.56-0.72L23.92,261.05z"/>
		<path fill="#FFFFFF" d="M24.16,286.19l9.89-5v4.7c0,0.35-0.05,0.6-0.15,0.76c-0.1,0.15-0.27,0.29-0.5,0.4l-6.43,2.96
			c0.17,0.08,0.34,0.17,0.51,0.27s0.35,0.21,0.54,0.34l5.29,3.78c0.24,0.17,0.42,0.34,0.55,0.53c0.13,0.18,0.19,0.39,0.19,0.63v4.7
			l-9.91-7.58l-11.63,5.54v-4.73c0-0.35,0.09-0.63,0.28-0.83c0.19-0.2,0.41-0.36,0.66-0.47l7.56-3.3c-0.15-0.07-0.31-0.15-0.46-0.23
			s-0.29-0.17-0.42-0.25l-6.68-4.79c-0.24-0.18-0.46-0.38-0.65-0.61c-0.2-0.22-0.29-0.5-0.29-0.82v-4.56L24.16,286.19z"/>
		<path fill="#FFFFFF" d="M34.05,309.16l-21.55-2.58v-5.12l21.55,2.58V309.16z M40.32,310.47c-0.45,0-0.87-0.09-1.26-0.28
			c-0.39-0.19-0.73-0.43-1.03-0.73c-0.29-0.3-0.53-0.65-0.7-1.04s-0.26-0.8-0.26-1.22c0-0.41,0.09-0.8,0.26-1.19
			c0.17-0.39,0.41-0.72,0.7-1.02c0.29-0.29,0.64-0.53,1.03-0.7c0.39-0.18,0.81-0.26,1.26-0.26c0.45,0,0.87,0.09,1.28,0.27
			c0.41,0.18,0.76,0.42,1.06,0.71c0.3,0.29,0.54,0.63,0.71,1.02c0.17,0.39,0.26,0.78,0.26,1.19c0,0.42-0.09,0.83-0.26,1.22
			c-0.18,0.39-0.41,0.74-0.7,1.04c-0.29,0.3-0.64,0.54-1.05,0.72C41.22,310.37,40.79,310.47,40.32,310.47z"/>
		<path fill="#FFFFFF" d="M29.99,326.11c-0.22-0.15-0.38-0.3-0.47-0.44c-0.09-0.14-0.14-0.32-0.14-0.55c0-0.24,0.07-0.48,0.21-0.74
			s0.3-0.54,0.47-0.87c0.17-0.33,0.33-0.71,0.47-1.13c0.14-0.43,0.21-0.94,0.21-1.54c0-1.11-0.25-1.95-0.75-2.54
			c-0.5-0.59-1.12-0.88-1.86-0.88c-0.43,0-0.8,0.12-1.1,0.37c-0.3,0.25-0.56,0.56-0.79,0.96c-0.22,0.39-0.43,0.84-0.62,1.34
			c-0.19,0.5-0.39,1.02-0.61,1.55s-0.46,1.05-0.74,1.55c-0.27,0.5-0.61,0.95-1,1.34c-0.39,0.39-0.86,0.71-1.42,0.96
			c-0.55,0.25-1.21,0.37-1.99,0.37c-1.04,0-2.02-0.21-2.96-0.62c-0.94-0.41-1.76-1-2.47-1.77c-0.71-0.77-1.27-1.7-1.68-2.79
			c-0.41-1.09-0.62-2.31-0.62-3.65c0-0.69,0.07-1.35,0.2-1.98c0.13-0.64,0.32-1.24,0.56-1.8c0.24-0.56,0.52-1.07,0.84-1.52
			s0.67-0.84,1.05-1.17l1.97,1.26c0.24,0.15,0.42,0.34,0.55,0.56s0.19,0.47,0.19,0.77s-0.09,0.56-0.27,0.8
			c-0.18,0.24-0.38,0.52-0.6,0.84s-0.42,0.71-0.6,1.17c-0.18,0.45-0.27,1.04-0.27,1.75c0,0.57,0.08,1.08,0.23,1.52
			c0.15,0.44,0.36,0.81,0.63,1.11s0.57,0.53,0.92,0.68c0.35,0.15,0.72,0.23,1.11,0.23c0.48,0,0.87-0.12,1.19-0.36
			c0.32-0.24,0.59-0.56,0.82-0.96c0.23-0.4,0.43-0.85,0.61-1.36c0.18-0.5,0.36-1.02,0.56-1.54s0.42-1.04,0.67-1.53
			s0.57-0.95,0.96-1.34c0.38-0.4,0.85-0.72,1.41-0.96c0.55-0.24,1.23-0.36,2.03-0.36c0.95,0,1.88,0.18,2.78,0.55s1.7,0.9,2.39,1.61
			c0.69,0.71,1.25,1.58,1.67,2.6c0.42,1.03,0.63,2.21,0.63,3.54c0,1.37-0.23,2.59-0.7,3.64c-0.47,1.06-1.07,1.95-1.8,2.68
			L29.99,326.11z"/>
	</g>
	<g display="inline">
		<line fill="#FFFFFF" x1="26" y1="354" x2="26" y2="488"/>
		<g>
			<line fill="none" stroke="#000000" stroke-width="6" stroke-miterlimit="10" x1="26" y1="354" x2="26" y2="453"/>
			<g>
				<polygon points="3.78,435.68 26,445.12 48.22,435.68 26,488.35 				"/>
			</g>
		</g>
	</g>
	<g display="inline">
		<line fill="#FFFFFF" x1="25" y1="353" x2="25" y2="487"/>
		<g>
			<line fill="none" stroke="#FFFFFF" stroke-width="6" stroke-miterlimit="10" x1="25" y1="353" x2="25" y2="452"/>
			<g>
				<polygon fill="#FFFFFF" points="2.78,434.68 25,444.12 47.22,434.68 25,487.35 				"/>
			</g>
		</g>
	</g>
	
		<line display="inline" fill="#FFFFFF" stroke="#000000" stroke-width="6" stroke-miterlimit="10" x1="26" y1="11" x2="26" y2="134"/>
	
		<line display="inline" fill="#FFFFFF" stroke="#FFFFFF" stroke-width="6" stroke-miterlimit="10" x1="25" y1="10" x2="25" y2="132"/>
	<g display="inline">
		<line fill="none" stroke="#000000" stroke-width="6" stroke-miterlimit="10" x1="386" y1="521" x2="475" y2="521"/>
		<g>
			<polygon points="458.05,543.22 467.49,521 458.05,498.78 510.72,521 			"/>
		</g>
	</g>
	<g display="inline">
		<line fill="#999999" x1="385" y1="520" x2="510" y2="520"/>
		<g>
			<line fill="none" stroke="#999999" stroke-width="6" stroke-miterlimit="10" x1="385" y1="520" x2="474" y2="520"/>
			<g>
				<polygon fill="#999999" points="457.05,542.22 466.49,520 457.05,497.78 509.72,520 				"/>
			</g>
		</g>
	</g>
	
		<line display="inline" fill="none" stroke="#000000" stroke-width="6" stroke-miterlimit="10" x1="61" y1="521" x2="176" y2="521"/>
	
		<line display="inline" fill="#999999" stroke="#999999" stroke-width="6" stroke-miterlimit="10" x1="60" y1="520" x2="175" y2="520"/>
</g>
<g id="Row_Rev_1_">
	<g>
		<path d="M17.78,166.29c0,0.85,0.07,1.6,0.2,2.24s0.3,1.19,0.51,1.66c0.21,0.47,0.43,0.87,0.66,1.21c0.23,0.34,0.45,0.63,0.66,0.88
			s0.38,0.48,0.51,0.67c0.13,0.2,0.2,0.39,0.2,0.59c0,0.17-0.04,0.31-0.11,0.42c-0.07,0.11-0.14,0.2-0.21,0.27l-2.37,1.91
			c-1.51-1.32-2.67-2.86-3.48-4.64c-0.8-1.78-1.21-3.82-1.21-6.13c0-1.86,0.33-3.52,1-4.98c0.67-1.46,1.59-2.69,2.76-3.7
			s2.57-1.77,4.18-2.3c1.61-0.52,3.37-0.79,5.27-0.79c1.75,0,3.41,0.19,4.97,0.57c1.56,0.38,3,0.92,4.33,1.62
			c1.32,0.7,2.51,1.54,3.56,2.52c1.05,0.98,1.95,2.07,2.69,3.26s1.31,2.47,1.7,3.85c0.39,1.38,0.59,2.82,0.59,4.31
			c0,1.11-0.1,2.12-0.3,3.03s-0.49,1.73-0.85,2.48s-0.8,1.41-1.31,2s-1.08,1.12-1.71,1.6l-2.27-1.89c-0.17-0.14-0.31-0.3-0.44-0.49
			c-0.13-0.19-0.19-0.42-0.19-0.7c0-0.31,0.13-0.6,0.38-0.88c0.25-0.28,0.53-0.63,0.83-1.06c0.3-0.43,0.58-0.98,0.83-1.66
			c0.25-0.68,0.38-1.57,0.38-2.68c0-1.46-0.3-2.81-0.89-4.05c-0.59-1.25-1.45-2.33-2.55-3.26c-1.11-0.92-2.44-1.65-4-2.17
			c-1.56-0.53-3.31-0.79-5.26-0.79c-1.41,0-2.68,0.18-3.8,0.54s-2.07,0.85-2.85,1.48c-0.78,0.63-1.37,1.38-1.79,2.25
			C17.99,164.33,17.78,165.27,17.78,166.29z"/>
		<path d="M13.5,178.49l21.57,2.63v2.63c0,0.5-0.11,0.92-0.34,1.24c-0.22,0.32-0.58,0.48-1.07,0.48c-0.1,0-0.27-0.01-0.5-0.02
			c-0.24-0.01-0.61-0.03-1.12-0.04s-1.23-0.04-2.15-0.08c1.69,0.88,3,1.85,3.93,2.9c0.92,1.05,1.39,2.14,1.39,3.28
			c0,0.57-0.13,1.16-0.38,1.74l-4.96-0.95c0.29-0.7,0.44-1.36,0.44-2c0-1.25-0.59-2.34-1.79-3.28c-1.19-0.94-3.05-1.71-5.59-2.31
			l-9.43-1.13V178.49z"/>
		<path d="M13.18,201.03c0-1.19,0.2-2.29,0.6-3.31c0.4-1.02,0.98-1.89,1.75-2.63c0.77-0.74,1.71-1.31,2.83-1.73s2.4-0.63,3.84-0.63
			c1.86,0,3.6,0.3,5.21,0.89c1.61,0.59,3,1.41,4.18,2.44c1.18,1.03,2.1,2.23,2.77,3.6s1.01,2.83,1.01,4.39c0,1.19-0.2,2.29-0.6,3.31
			c-0.4,1.01-0.98,1.89-1.75,2.64c-0.77,0.74-1.72,1.32-2.83,1.74c-1.12,0.42-2.4,0.63-3.84,0.63c-1.85,0-3.57-0.3-5.18-0.9
			c-1.6-0.6-3-1.42-4.18-2.45c-1.18-1.03-2.11-2.23-2.79-3.6C13.52,204.04,13.18,202.58,13.18,201.03z M17.17,201.49
			c0,0.87,0.25,1.65,0.75,2.35c0.5,0.7,1.16,1.3,1.99,1.8s1.8,0.88,2.91,1.14c1.11,0.27,2.27,0.4,3.49,0.4
			c1.75,0,3.04-0.3,3.86-0.89c0.83-0.6,1.24-1.5,1.24-2.7c0-0.87-0.25-1.65-0.74-2.35c-0.49-0.7-1.15-1.29-2-1.79
			c-0.84-0.49-1.81-0.87-2.92-1.13c-1.11-0.27-2.27-0.4-3.51-0.4c-1.75,0-3.03,0.29-3.85,0.88
			C17.58,199.39,17.17,200.29,17.17,201.49z"/>
		<path d="M30.99,228.64c-0.22-0.15-0.38-0.3-0.47-0.44c-0.09-0.14-0.14-0.32-0.14-0.55c0-0.24,0.07-0.48,0.21-0.74
			s0.3-0.54,0.47-0.87c0.17-0.33,0.33-0.71,0.47-1.13c0.14-0.43,0.21-0.94,0.21-1.54c0-1.11-0.25-1.95-0.75-2.54
			c-0.5-0.59-1.12-0.88-1.86-0.88c-0.43,0-0.8,0.12-1.1,0.37c-0.3,0.25-0.56,0.56-0.79,0.96c-0.22,0.39-0.43,0.84-0.62,1.34
			c-0.19,0.5-0.39,1.02-0.61,1.55s-0.46,1.05-0.74,1.55c-0.27,0.5-0.61,0.95-1,1.34c-0.39,0.39-0.86,0.71-1.42,0.96
			c-0.55,0.25-1.21,0.37-1.99,0.37c-1.04,0-2.02-0.21-2.96-0.62c-0.94-0.41-1.76-1-2.47-1.77c-0.71-0.77-1.27-1.7-1.68-2.79
			c-0.41-1.09-0.62-2.31-0.62-3.65c0-0.69,0.07-1.35,0.2-1.98c0.13-0.64,0.32-1.24,0.56-1.8c0.24-0.56,0.52-1.07,0.84-1.52
			s0.67-0.84,1.05-1.17l1.97,1.26c0.24,0.15,0.42,0.34,0.55,0.56s0.19,0.47,0.19,0.77s-0.09,0.56-0.27,0.8
			c-0.18,0.24-0.38,0.52-0.6,0.84s-0.42,0.71-0.6,1.17c-0.18,0.45-0.27,1.04-0.27,1.75c0,0.57,0.08,1.08,0.23,1.52
			c0.15,0.44,0.36,0.81,0.63,1.11s0.57,0.53,0.92,0.68c0.35,0.15,0.72,0.23,1.11,0.23c0.48,0,0.87-0.12,1.19-0.36
			c0.32-0.24,0.59-0.56,0.82-0.96c0.23-0.4,0.43-0.85,0.61-1.36c0.18-0.5,0.36-1.02,0.56-1.54s0.42-1.04,0.67-1.53
			s0.57-0.95,0.96-1.34c0.38-0.4,0.85-0.72,1.41-0.96c0.55-0.24,1.23-0.36,2.03-0.36c0.95,0,1.88,0.18,2.78,0.55s1.7,0.9,2.39,1.61
			c0.69,0.71,1.25,1.58,1.67,2.6c0.42,1.03,0.63,2.21,0.63,3.54c0,1.37-0.23,2.59-0.7,3.64c-0.47,1.06-1.07,1.95-1.8,2.68
			L30.99,228.64z"/>
		<path d="M30.99,245.13c-0.22-0.15-0.38-0.3-0.47-0.44c-0.09-0.14-0.14-0.32-0.14-0.55c0-0.24,0.07-0.48,0.21-0.74
			s0.3-0.54,0.47-0.87c0.17-0.33,0.33-0.71,0.47-1.13c0.14-0.43,0.21-0.94,0.21-1.54c0-1.11-0.25-1.95-0.75-2.54
			c-0.5-0.59-1.12-0.88-1.86-0.88c-0.43,0-0.8,0.12-1.1,0.37c-0.3,0.25-0.56,0.56-0.79,0.96c-0.22,0.39-0.43,0.84-0.62,1.34
			c-0.19,0.5-0.39,1.02-0.61,1.55s-0.46,1.05-0.74,1.55c-0.27,0.5-0.61,0.95-1,1.34c-0.39,0.39-0.86,0.71-1.42,0.96
			c-0.55,0.25-1.21,0.37-1.99,0.37c-1.04,0-2.02-0.21-2.96-0.62c-0.94-0.41-1.76-1-2.47-1.77c-0.71-0.77-1.27-1.7-1.68-2.79
			c-0.41-1.09-0.62-2.31-0.62-3.65c0-0.69,0.07-1.35,0.2-1.98c0.13-0.64,0.32-1.24,0.56-1.8c0.24-0.56,0.52-1.07,0.84-1.52
			s0.67-0.84,1.05-1.17l1.97,1.26c0.24,0.15,0.42,0.34,0.55,0.56s0.19,0.47,0.19,0.77s-0.09,0.56-0.27,0.8
			c-0.18,0.24-0.38,0.52-0.6,0.84s-0.42,0.71-0.6,1.17c-0.18,0.45-0.27,1.04-0.27,1.75c0,0.57,0.08,1.08,0.23,1.52
			c0.15,0.44,0.36,0.81,0.63,1.11s0.57,0.53,0.92,0.68c0.35,0.15,0.72,0.23,1.11,0.23c0.48,0,0.87-0.12,1.19-0.36
			c0.32-0.24,0.59-0.56,0.82-0.96c0.23-0.4,0.43-0.85,0.61-1.36c0.18-0.5,0.36-1.02,0.56-1.54s0.42-1.04,0.67-1.53
			s0.57-0.95,0.96-1.34c0.38-0.4,0.85-0.72,1.41-0.96c0.55-0.24,1.23-0.36,2.03-0.36c0.95,0,1.88,0.18,2.78,0.55s1.7,0.9,2.39,1.61
			c0.69,0.71,1.25,1.58,1.67,2.6c0.42,1.03,0.63,2.21,0.63,3.54c0,1.37-0.23,2.59-0.7,3.64c-0.47,1.06-1.07,1.95-1.8,2.68
			L30.99,245.13z"/>
		<path d="M13.5,280.3v-4.22c0-0.48,0.11-0.85,0.34-1.13s0.53-0.46,0.9-0.53l6.34-1.26v-11.32l-6.34-2.81
			c-0.32-0.15-0.61-0.41-0.86-0.76c-0.25-0.35-0.38-0.74-0.38-1.18v-4.28l30.37,14.68v5.57L13.5,280.3z M24.92,263.54v8.84
			l10.4-2.06c0.5-0.11,1.04-0.22,1.6-0.34c0.56-0.11,1.19-0.22,1.89-0.32c-0.7-0.27-1.35-0.53-1.94-0.79s-1.12-0.5-1.56-0.72
			L24.92,263.54z"/>
		<path d="M25.16,288.68l9.89-5v4.7c0,0.35-0.05,0.6-0.15,0.76c-0.1,0.15-0.27,0.29-0.5,0.4l-6.43,2.96
			c0.17,0.08,0.34,0.17,0.51,0.27s0.35,0.21,0.54,0.34l5.29,3.78c0.24,0.17,0.42,0.34,0.55,0.53c0.13,0.18,0.19,0.39,0.19,0.63v4.7
			l-9.91-7.58l-11.63,5.54v-4.73c0-0.35,0.09-0.63,0.28-0.83c0.19-0.2,0.41-0.36,0.66-0.47l7.56-3.3c-0.15-0.07-0.31-0.15-0.46-0.23
			s-0.29-0.17-0.42-0.25l-6.68-4.79c-0.24-0.18-0.46-0.38-0.65-0.61c-0.2-0.22-0.29-0.5-0.29-0.82v-4.56L25.16,288.68z"/>
		<path d="M35.05,311.65l-21.55-2.58v-5.12l21.55,2.58V311.65z M41.33,312.96c-0.45,0-0.87-0.09-1.26-0.28
			c-0.39-0.19-0.74-0.43-1.03-0.73c-0.29-0.3-0.53-0.65-0.7-1.04c-0.17-0.39-0.26-0.8-0.26-1.22c0-0.41,0.09-0.8,0.26-1.19
			c0.18-0.39,0.41-0.72,0.7-1.02s0.64-0.53,1.03-0.7c0.39-0.18,0.81-0.26,1.26-0.26c0.45,0,0.88,0.09,1.28,0.27
			c0.41,0.18,0.76,0.42,1.06,0.71c0.3,0.29,0.54,0.63,0.71,1.02c0.17,0.39,0.26,0.78,0.26,1.19c0,0.42-0.09,0.83-0.26,1.22
			c-0.18,0.39-0.41,0.74-0.7,1.04s-0.64,0.54-1.05,0.72C42.22,312.86,41.79,312.96,41.33,312.96z"/>
		<path d="M30.99,328.6c-0.22-0.15-0.38-0.3-0.47-0.44c-0.09-0.14-0.14-0.32-0.14-0.55c0-0.24,0.07-0.48,0.21-0.74
			s0.3-0.54,0.47-0.87c0.17-0.33,0.33-0.71,0.47-1.13c0.14-0.43,0.21-0.94,0.21-1.54c0-1.11-0.25-1.95-0.75-2.54
			c-0.5-0.59-1.12-0.88-1.86-0.88c-0.43,0-0.8,0.12-1.1,0.37c-0.3,0.25-0.56,0.56-0.79,0.96c-0.22,0.39-0.43,0.84-0.62,1.34
			c-0.19,0.5-0.39,1.02-0.61,1.55s-0.46,1.05-0.74,1.55c-0.27,0.5-0.61,0.95-1,1.34c-0.39,0.39-0.86,0.71-1.42,0.96
			c-0.55,0.25-1.21,0.37-1.99,0.37c-1.04,0-2.02-0.21-2.96-0.62c-0.94-0.41-1.76-1-2.47-1.77c-0.71-0.77-1.27-1.7-1.68-2.79
			c-0.41-1.09-0.62-2.31-0.62-3.65c0-0.69,0.07-1.35,0.2-1.98c0.13-0.64,0.32-1.24,0.56-1.8c0.24-0.56,0.52-1.07,0.84-1.52
			s0.67-0.84,1.05-1.17l1.97,1.26c0.24,0.15,0.42,0.34,0.55,0.56s0.19,0.47,0.19,0.77s-0.09,0.56-0.27,0.8
			c-0.18,0.24-0.38,0.52-0.6,0.84s-0.42,0.71-0.6,1.17c-0.18,0.45-0.27,1.04-0.27,1.75c0,0.57,0.08,1.08,0.23,1.52
			c0.15,0.44,0.36,0.81,0.63,1.11s0.57,0.53,0.92,0.68c0.35,0.15,0.72,0.23,1.11,0.23c0.48,0,0.87-0.12,1.19-0.36
			c0.32-0.24,0.59-0.56,0.82-0.96c0.23-0.4,0.43-0.85,0.61-1.36c0.18-0.5,0.36-1.02,0.56-1.54s0.42-1.04,0.67-1.53
			s0.57-0.95,0.96-1.34c0.38-0.4,0.85-0.72,1.41-0.96c0.55-0.24,1.23-0.36,2.03-0.36c0.95,0,1.88,0.18,2.78,0.55s1.7,0.9,2.39,1.61
			c0.69,0.71,1.25,1.58,1.67,2.6c0.42,1.03,0.63,2.21,0.63,3.54c0,1.37-0.23,2.59-0.7,3.64c-0.47,1.06-1.07,1.95-1.8,2.68
			L30.99,328.6z"/>
	</g>
	<g>
		<path fill="#999999" d="M16.88,165.29c0,0.85,0.07,1.6,0.2,2.24c0.13,0.64,0.31,1.19,0.52,1.66s0.43,0.87,0.67,1.21
			c0.23,0.34,0.45,0.63,0.67,0.88s0.38,0.48,0.52,0.67c0.13,0.2,0.2,0.39,0.2,0.59c0,0.17-0.04,0.31-0.11,0.42
			c-0.07,0.11-0.14,0.2-0.21,0.27l-2.39,1.91c-1.52-1.32-2.69-2.86-3.5-4.64s-1.22-3.82-1.22-6.13c0-1.86,0.33-3.52,1-4.98
			s1.6-2.69,2.78-3.7c1.18-1.01,2.59-1.77,4.21-2.3c1.62-0.52,3.39-0.79,5.31-0.79c1.76,0,3.43,0.19,5,0.57
			c1.57,0.38,3.02,0.92,4.36,1.62c1.33,0.7,2.53,1.54,3.58,2.52s1.96,2.06,2.71,3.26c0.75,1.19,1.32,2.47,1.71,3.85
			c0.39,1.38,0.59,2.82,0.59,4.32c0,1.11-0.1,2.11-0.31,3.02c-0.2,0.91-0.49,1.74-0.86,2.48c-0.37,0.74-0.81,1.41-1.32,2
			c-0.51,0.59-1.09,1.12-1.72,1.6l-2.28-1.89c-0.17-0.14-0.32-0.3-0.44-0.49c-0.13-0.19-0.19-0.42-0.19-0.7
			c0-0.31,0.13-0.6,0.38-0.88c0.25-0.28,0.53-0.63,0.84-1.06c0.3-0.43,0.58-0.98,0.83-1.66s0.38-1.57,0.38-2.68
			c0-1.46-0.3-2.81-0.9-4.05s-1.46-2.33-2.57-3.25c-1.11-0.92-2.46-1.65-4.03-2.17c-1.57-0.53-3.34-0.79-5.3-0.79
			c-1.42,0-2.7,0.18-3.83,0.54c-1.13,0.36-2.08,0.85-2.86,1.48c-0.78,0.63-1.38,1.38-1.8,2.25
			C17.09,163.33,16.88,164.27,16.88,165.29z"/>
		<path fill="#999999" d="M12.57,177.49l21.71,2.63v2.63c0,0.5-0.11,0.92-0.34,1.24c-0.23,0.32-0.59,0.48-1.08,0.48
			c-0.1,0-0.27-0.01-0.51-0.02c-0.24-0.01-0.62-0.03-1.13-0.04c-0.51-0.01-1.24-0.04-2.17-0.08c1.71,0.88,3.02,1.85,3.95,2.9
			c0.93,1.05,1.4,2.14,1.4,3.28c0,0.57-0.13,1.16-0.38,1.74l-4.99-0.94c0.3-0.7,0.44-1.37,0.44-2c0-1.25-0.6-2.34-1.8-3.28
			c-1.2-0.94-3.07-1.71-5.62-2.31l-9.49-1.13V177.49z"/>
		<path fill="#999999" d="M12.25,200.03c0-1.19,0.2-2.29,0.6-3.31c0.4-1.02,0.99-1.89,1.77-2.63c0.77-0.74,1.73-1.31,2.85-1.73
			c1.13-0.42,2.42-0.63,3.87-0.63c1.87,0,3.62,0.3,5.24,0.89c1.62,0.6,3.02,1.41,4.21,2.44c1.18,1.03,2.11,2.23,2.79,3.6
			c0.68,1.37,1.01,2.83,1.01,4.39c0,1.19-0.2,2.29-0.6,3.31s-0.99,1.89-1.77,2.64s-1.73,1.32-2.85,1.74
			c-1.13,0.42-2.42,0.63-3.87,0.63c-1.86,0-3.6-0.3-5.21-0.9s-3.02-1.42-4.21-2.45c-1.19-1.03-2.13-2.23-2.81-3.6
			C12.6,203.04,12.25,201.58,12.25,200.03z M16.27,200.49c0,0.87,0.25,1.65,0.75,2.35c0.5,0.7,1.17,1.3,2.01,1.8
			c0.84,0.5,1.81,0.88,2.93,1.14c1.11,0.27,2.28,0.4,3.51,0.4c1.76,0,3.06-0.3,3.89-0.89c0.83-0.6,1.25-1.5,1.25-2.7
			c0-0.87-0.25-1.65-0.74-2.35c-0.49-0.7-1.16-1.3-2.01-1.79c-0.85-0.49-1.83-0.87-2.94-1.13s-2.29-0.4-3.53-0.4
			c-1.76,0-3.06,0.29-3.88,0.88C16.68,198.39,16.27,199.29,16.27,200.49z"/>
		<path fill="#999999" d="M30.18,227.64c-0.23-0.15-0.38-0.3-0.48-0.44c-0.09-0.14-0.14-0.32-0.14-0.55c0-0.24,0.07-0.48,0.21-0.74
			c0.14-0.25,0.3-0.54,0.48-0.87c0.18-0.33,0.33-0.71,0.48-1.13c0.14-0.43,0.21-0.94,0.21-1.54c0-1.11-0.25-1.95-0.75-2.54
			c-0.5-0.59-1.12-0.88-1.87-0.88c-0.44,0-0.81,0.12-1.11,0.37c-0.3,0.25-0.57,0.56-0.79,0.96c-0.23,0.39-0.43,0.84-0.62,1.34
			c-0.19,0.5-0.39,1.02-0.61,1.55c-0.22,0.53-0.47,1.05-0.74,1.55s-0.61,0.95-1,1.34c-0.39,0.39-0.87,0.71-1.43,0.96
			c-0.56,0.25-1.22,0.37-2,0.37c-1.04,0-2.04-0.21-2.98-0.62s-1.77-1-2.48-1.77c-0.71-0.77-1.28-1.7-1.69-2.79
			c-0.42-1.09-0.62-2.31-0.62-3.65c0-0.69,0.07-1.35,0.2-1.98s0.32-1.24,0.56-1.8c0.24-0.56,0.52-1.07,0.85-1.52
			s0.68-0.84,1.06-1.17l1.99,1.26c0.24,0.15,0.42,0.34,0.55,0.56s0.19,0.47,0.19,0.77s-0.09,0.56-0.27,0.8
			c-0.18,0.24-0.38,0.52-0.6,0.84c-0.22,0.32-0.42,0.71-0.6,1.17c-0.18,0.45-0.27,1.04-0.27,1.75c0,0.57,0.08,1.08,0.23,1.52
			c0.15,0.44,0.37,0.81,0.63,1.11c0.27,0.3,0.58,0.53,0.93,0.68s0.73,0.23,1.12,0.23c0.48,0,0.88-0.12,1.19-0.36
			c0.32-0.24,0.59-0.56,0.82-0.96c0.23-0.4,0.44-0.85,0.61-1.36c0.18-0.5,0.36-1.02,0.56-1.54c0.2-0.53,0.42-1.04,0.68-1.53
			c0.25-0.5,0.57-0.95,0.96-1.34c0.39-0.4,0.86-0.72,1.42-0.96c0.56-0.24,1.24-0.36,2.04-0.36c0.96,0,1.89,0.18,2.8,0.55
			s1.71,0.9,2.41,1.61s1.26,1.58,1.68,2.6c0.42,1.03,0.63,2.21,0.63,3.54c0,1.37-0.24,2.59-0.71,3.64
			c-0.47,1.06-1.07,1.95-1.81,2.68L30.18,227.64z"/>
		<path fill="#999999" d="M30.18,244.13c-0.23-0.15-0.38-0.3-0.48-0.44c-0.09-0.14-0.14-0.32-0.14-0.55c0-0.24,0.07-0.48,0.21-0.74
			c0.14-0.25,0.3-0.54,0.48-0.87c0.18-0.33,0.33-0.71,0.48-1.13c0.14-0.43,0.21-0.94,0.21-1.54c0-1.11-0.25-1.95-0.75-2.54
			c-0.5-0.59-1.12-0.88-1.87-0.88c-0.44,0-0.81,0.12-1.11,0.37c-0.3,0.25-0.57,0.56-0.79,0.96c-0.23,0.39-0.43,0.84-0.62,1.34
			c-0.19,0.5-0.39,1.02-0.61,1.55c-0.22,0.53-0.47,1.05-0.74,1.55s-0.61,0.95-1,1.34c-0.39,0.39-0.87,0.71-1.43,0.96
			c-0.56,0.25-1.22,0.37-2,0.37c-1.04,0-2.04-0.21-2.98-0.62s-1.77-1-2.48-1.77c-0.71-0.77-1.28-1.7-1.69-2.79
			c-0.42-1.09-0.62-2.31-0.62-3.65c0-0.69,0.07-1.35,0.2-1.98s0.32-1.24,0.56-1.8c0.24-0.56,0.52-1.07,0.85-1.52
			s0.68-0.84,1.06-1.17l1.99,1.26c0.24,0.15,0.42,0.34,0.55,0.56s0.19,0.47,0.19,0.77s-0.09,0.56-0.27,0.8
			c-0.18,0.24-0.38,0.52-0.6,0.84c-0.22,0.32-0.42,0.71-0.6,1.17c-0.18,0.45-0.27,1.04-0.27,1.75c0,0.57,0.08,1.08,0.23,1.52
			c0.15,0.44,0.37,0.81,0.63,1.11c0.27,0.3,0.58,0.53,0.93,0.68s0.73,0.23,1.12,0.23c0.48,0,0.88-0.12,1.19-0.36
			c0.32-0.24,0.59-0.56,0.82-0.96c0.23-0.4,0.44-0.85,0.61-1.36c0.18-0.5,0.36-1.02,0.56-1.54c0.2-0.53,0.42-1.04,0.68-1.53
			c0.25-0.5,0.57-0.95,0.96-1.34c0.39-0.4,0.86-0.72,1.42-0.96c0.56-0.24,1.24-0.36,2.04-0.36c0.96,0,1.89,0.18,2.8,0.55
			s1.71,0.9,2.41,1.61s1.26,1.58,1.68,2.6c0.42,1.03,0.63,2.21,0.63,3.54c0,1.37-0.24,2.59-0.71,3.64
			c-0.47,1.06-1.07,1.95-1.81,2.68L30.18,244.13z"/>
		<path fill="#999999" d="M12.57,279.3v-4.22c0-0.48,0.11-0.85,0.34-1.13c0.23-0.28,0.53-0.46,0.91-0.53l6.38-1.26v-11.32
			l-6.38-2.81c-0.32-0.15-0.61-0.41-0.87-0.76c-0.25-0.35-0.38-0.74-0.38-1.18v-4.28l30.57,14.68v5.57L12.57,279.3z M24.07,262.54
			v8.84l10.47-2.06c0.51-0.11,1.04-0.22,1.61-0.34c0.56-0.11,1.2-0.22,1.9-0.32c-0.71-0.27-1.36-0.53-1.96-0.79
			c-0.6-0.26-1.12-0.5-1.58-0.72L24.07,262.54z"/>
		<path fill="#999999" d="M24.31,287.68l9.96-5v4.7c0,0.35-0.05,0.6-0.15,0.76s-0.27,0.29-0.51,0.4l-6.47,2.96
			c0.17,0.08,0.34,0.17,0.52,0.27c0.18,0.1,0.36,0.21,0.54,0.34l5.33,3.78c0.24,0.17,0.42,0.34,0.55,0.53
			c0.13,0.18,0.19,0.39,0.19,0.63v4.7l-9.98-7.58l-11.71,5.54v-4.73c0-0.35,0.1-0.63,0.29-0.83c0.19-0.2,0.41-0.36,0.67-0.47
			l7.61-3.3c-0.16-0.07-0.31-0.15-0.47-0.23c-0.16-0.08-0.3-0.17-0.42-0.25l-6.72-4.79c-0.24-0.18-0.46-0.38-0.66-0.61
			c-0.2-0.22-0.3-0.5-0.3-0.82v-4.56L24.31,287.68z"/>
		<path fill="#999999" d="M34.26,310.65l-21.69-2.58v-5.12l21.69,2.58V310.65z M40.59,311.96c-0.45,0-0.87-0.09-1.27-0.28
			c-0.39-0.19-0.74-0.43-1.04-0.73c-0.3-0.3-0.53-0.65-0.71-1.04c-0.18-0.39-0.26-0.8-0.26-1.22c0-0.41,0.09-0.8,0.26-1.19
			c0.18-0.39,0.41-0.72,0.71-1.02s0.64-0.53,1.04-0.7c0.39-0.18,0.82-0.26,1.27-0.26s0.88,0.09,1.29,0.27s0.76,0.42,1.07,0.71
			c0.3,0.29,0.54,0.63,0.72,1.02c0.18,0.39,0.26,0.78,0.26,1.19c0,0.42-0.09,0.83-0.26,1.22c-0.18,0.39-0.41,0.74-0.71,1.04
			c-0.3,0.3-0.65,0.54-1.06,0.72C41.49,311.86,41.05,311.96,40.59,311.96z"/>
		<path fill="#999999" d="M30.18,327.6c-0.23-0.15-0.38-0.3-0.48-0.44c-0.09-0.14-0.14-0.32-0.14-0.55c0-0.24,0.07-0.48,0.21-0.74
			c0.14-0.25,0.3-0.54,0.48-0.87c0.18-0.33,0.33-0.71,0.48-1.13c0.14-0.43,0.21-0.94,0.21-1.54c0-1.11-0.25-1.95-0.75-2.54
			c-0.5-0.59-1.12-0.88-1.87-0.88c-0.44,0-0.81,0.12-1.11,0.37c-0.3,0.25-0.57,0.56-0.79,0.96c-0.23,0.39-0.43,0.84-0.62,1.34
			c-0.19,0.5-0.39,1.02-0.61,1.55c-0.22,0.53-0.47,1.05-0.74,1.55s-0.61,0.95-1,1.34c-0.39,0.39-0.87,0.71-1.43,0.96
			c-0.56,0.25-1.22,0.37-2,0.37c-1.04,0-2.04-0.21-2.98-0.62s-1.77-1-2.48-1.77c-0.71-0.77-1.28-1.7-1.69-2.79
			c-0.42-1.09-0.62-2.31-0.62-3.65c0-0.69,0.07-1.35,0.2-1.98s0.32-1.24,0.56-1.8c0.24-0.56,0.52-1.07,0.85-1.52
			s0.68-0.84,1.06-1.17l1.99,1.26c0.24,0.15,0.42,0.34,0.55,0.56s0.19,0.47,0.19,0.77s-0.09,0.56-0.27,0.8
			c-0.18,0.24-0.38,0.52-0.6,0.84c-0.22,0.32-0.42,0.71-0.6,1.17c-0.18,0.45-0.27,1.04-0.27,1.75c0,0.57,0.08,1.08,0.23,1.52
			c0.15,0.44,0.37,0.81,0.63,1.11c0.27,0.3,0.58,0.53,0.93,0.68s0.73,0.23,1.12,0.23c0.48,0,0.88-0.12,1.19-0.36
			c0.32-0.24,0.59-0.56,0.82-0.96c0.23-0.4,0.44-0.85,0.61-1.36c0.18-0.5,0.36-1.02,0.56-1.54c0.2-0.53,0.42-1.04,0.68-1.53
			c0.25-0.5,0.57-0.95,0.96-1.34c0.39-0.4,0.86-0.72,1.42-0.96c0.56-0.24,1.24-0.36,2.04-0.36c0.96,0,1.89,0.18,2.8,0.55
			s1.71,0.9,2.41,1.61s1.26,1.58,1.68,2.6c0.42,1.03,0.63,2.21,0.63,3.54c0,1.37-0.24,2.59-0.71,3.64
			c-0.47,1.06-1.07,1.95-1.81,2.68L30.18,327.6z"/>
	</g>
	<g>
		<line fill="#FFFFFF" x1="26" y1="354" x2="26" y2="488"/>
		<g>
			<line fill="none" stroke="#000000" stroke-width="6" stroke-miterlimit="10" x1="26" y1="354" x2="26" y2="453"/>
			<g>
				<polygon points="3.78,435.68 26,445.12 48.22,435.68 26,488.35 				"/>
			</g>
		</g>
	</g>
	<g>
		<line fill="#FFFFFF" x1="25" y1="353" x2="25" y2="487"/>
		<g>
			<line fill="none" stroke="#999999" stroke-width="6" stroke-miterlimit="10" x1="25" y1="353" x2="25" y2="452"/>
			<g>
				<polygon fill="#999999" points="2.78,434.68 25,444.12 47.22,434.68 25,487.35 				"/>
			</g>
		</g>
	</g>
	<line fill="#FFFFFF" stroke="#000000" stroke-width="6" stroke-miterlimit="10" x1="26" y1="11" x2="26" y2="134"/>
	<line fill="#FFFFFF" stroke="#999999" stroke-width="6" stroke-miterlimit="10" x1="25" y1="10" x2="25" y2="132"/>
	<line fill="none" stroke="#000000" stroke-width="6" stroke-miterlimit="10" x1="386" y1="521" x2="511" y2="521"/>
	<line fill="#999999" stroke="#FFFFFF" stroke-width="6" stroke-miterlimit="10" x1="385" y1="520" x2="510" y2="520"/>
	<g>
		<line fill="none" stroke="#000000" stroke-width="6" stroke-miterlimit="10" x1="97" y1="521" x2="176" y2="521"/>
		<g>
			<polygon points="113.67,543.22 104.23,521 113.67,498.78 61,521 			"/>
		</g>
	</g>
	<g>
		<line fill="#999999" x1="60" y1="520" x2="175" y2="520"/>
		<g>
			<line fill="none" stroke="#FFFFFF" stroke-width="6" stroke-miterlimit="10" x1="96" y1="520" x2="175" y2="520"/>
			<g>
				<polygon fill="#FFFFFF" points="112.67,542.22 103.23,520 112.67,497.78 60,520 				"/>
			</g>
		</g>
	</g>
	<g>
		<path d="M208.66,522.82c0.1,0.38,0.2,0.76,0.29,1.15c0.17-0.39,0.35-0.78,0.55-1.15c0.2-0.38,0.41-0.75,0.63-1.11l10.54-17.35
			c0.13-0.21,0.25-0.38,0.39-0.49c0.13-0.12,0.27-0.21,0.42-0.26c0.15-0.06,0.31-0.09,0.49-0.11s0.39-0.02,0.63-0.02h4.14
			L223,533.84h-4.79l2.44-19.78c0.04-0.36,0.11-0.76,0.19-1.2c0.08-0.44,0.17-0.88,0.27-1.32l-10.44,17.35
			c-0.24,0.39-0.54,0.69-0.89,0.88c-0.36,0.2-0.75,0.29-1.17,0.29h-0.76c-0.42,0-0.79-0.1-1.1-0.29c-0.32-0.2-0.54-0.49-0.68-0.88
			l-6.26-17.28c-0.01,0.44-0.03,0.86-0.05,1.26c-0.02,0.4-0.05,0.78-0.09,1.11l-2.39,19.87h-4.81l3.74-30.37h4.09
			c0.24,0,0.45,0.01,0.63,0.02s0.34,0.05,0.48,0.11c0.14,0.06,0.26,0.14,0.36,0.26c0.1,0.12,0.19,0.28,0.27,0.49l6.28,17.35
			C208.45,522.07,208.56,522.44,208.66,522.82z"/>
		<path d="M245.03,533.84h-2.73c-0.63,0-1.07-0.15-1.32-0.44c-0.25-0.29-0.38-0.66-0.38-1.11l0.17-2.94
			c-0.95,1.48-2.02,2.66-3.21,3.52c-1.19,0.86-2.5,1.29-3.93,1.29c-0.81,0-1.57-0.16-2.28-0.48s-1.32-0.8-1.85-1.44
			c-0.52-0.64-0.94-1.43-1.24-2.39c-0.3-0.96-0.45-2.08-0.45-3.37c0-1.29,0.16-2.54,0.48-3.76c0.32-1.22,0.78-2.36,1.38-3.43
			c0.59-1.07,1.31-2.05,2.15-2.95c0.84-0.9,1.78-1.67,2.82-2.31s2.17-1.14,3.38-1.5s2.49-0.54,3.83-0.54c0.97,0,1.93,0.07,2.91,0.21
			c0.97,0.14,1.93,0.39,2.87,0.76L245.03,533.84z M235.67,529.91c0.57,0,1.14-0.2,1.69-0.59c0.55-0.39,1.07-0.93,1.56-1.63
			s0.95-1.51,1.37-2.45s0.78-1.95,1.09-3.02l0.82-6.51c-0.38-0.04-0.73-0.06-1.05-0.06c-1.16,0-2.24,0.27-3.23,0.8
			c-0.99,0.53-1.86,1.25-2.58,2.15c-0.73,0.9-1.3,1.95-1.71,3.15s-0.62,2.46-0.62,3.79c0,1.51,0.24,2.62,0.71,3.32
			C234.19,529.56,234.84,529.91,235.67,529.91z"/>
		<path d="M258.01,512.29l-2.58,21.55h-5.12l2.58-21.55H258.01z M259.31,506.02c0,0.45-0.09,0.87-0.28,1.26
			c-0.19,0.39-0.43,0.74-0.73,1.03c-0.3,0.29-0.65,0.53-1.04,0.71c-0.39,0.17-0.8,0.26-1.22,0.26c-0.41,0-0.8-0.09-1.19-0.26
			c-0.38-0.18-0.72-0.41-1.02-0.71c-0.29-0.29-0.53-0.64-0.7-1.03c-0.18-0.39-0.26-0.81-0.26-1.26c0-0.45,0.09-0.87,0.27-1.28
			c0.18-0.41,0.42-0.76,0.71-1.06c0.29-0.3,0.63-0.54,1.02-0.71c0.38-0.17,0.78-0.26,1.19-0.26c0.42,0,0.83,0.09,1.22,0.26
			c0.39,0.18,0.74,0.41,1.04,0.7c0.3,0.29,0.54,0.64,0.72,1.05S259.31,505.55,259.31,506.02z"/>
		<path d="M260.66,533.84l2.58-21.57h2.65c0.55,0,0.97,0.13,1.27,0.4c0.3,0.27,0.45,0.69,0.45,1.28l-0.15,2.79
			c1.09-1.61,2.3-2.81,3.63-3.6s2.7-1.19,4.12-1.19c0.8,0,1.52,0.14,2.17,0.43s1.21,0.71,1.67,1.26c0.46,0.55,0.82,1.23,1.07,2.04
			s0.38,1.73,0.38,2.78c0,0.27-0.01,0.54-0.03,0.81c-0.02,0.27-0.04,0.56-0.07,0.85l-1.62,13.71h-5.19
			c0.28-2.37,0.52-4.37,0.71-6.02c0.2-1.64,0.36-3.01,0.48-4.11c0.13-1.09,0.22-1.95,0.29-2.57c0.07-0.62,0.12-1.1,0.16-1.42
			c0.04-0.32,0.06-0.54,0.06-0.64c0.01-0.1,0.01-0.19,0.01-0.26c0-0.92-0.17-1.59-0.5-2.01c-0.34-0.41-0.86-0.62-1.58-0.62
			c-0.57,0-1.17,0.17-1.79,0.5c-0.62,0.34-1.2,0.81-1.76,1.43c-0.56,0.62-1.07,1.36-1.53,2.23c-0.46,0.87-0.84,1.83-1.13,2.9
			l-1.18,10.58H260.66z"/>
		<path d="M316.26,533.84h-4.22c-0.48,0-0.85-0.11-1.13-0.34c-0.28-0.22-0.46-0.53-0.53-0.9l-1.26-6.34H297.8l-2.81,6.34
			c-0.15,0.32-0.41,0.61-0.76,0.86c-0.35,0.25-0.74,0.38-1.18,0.38h-4.28l14.68-30.37h5.57L316.26,533.84z M299.51,522.42h8.84
			l-2.06-10.4c-0.11-0.5-0.22-1.04-0.34-1.6c-0.11-0.56-0.22-1.19-0.32-1.89c-0.27,0.7-0.53,1.35-0.79,1.94
			c-0.26,0.6-0.5,1.12-0.72,1.56L299.51,522.42z"/>
		<path d="M324.64,522.19l-5-9.89h4.7c0.35,0,0.6,0.05,0.76,0.15c0.15,0.1,0.29,0.27,0.4,0.51l2.96,6.43
			c0.08-0.17,0.17-0.34,0.27-0.52c0.1-0.17,0.21-0.35,0.34-0.54l3.78-5.29c0.17-0.24,0.34-0.42,0.53-0.55
			c0.18-0.13,0.39-0.19,0.63-0.19h4.7l-7.58,9.91l5.54,11.63h-4.73c-0.35,0-0.63-0.1-0.83-0.28c-0.2-0.19-0.36-0.41-0.47-0.66
			l-3.3-7.56c-0.07,0.15-0.15,0.31-0.23,0.46s-0.17,0.29-0.25,0.42l-4.79,6.68c-0.18,0.24-0.38,0.46-0.61,0.65
			c-0.22,0.2-0.5,0.29-0.82,0.29h-4.56L324.64,522.19z"/>
		<path d="M347.62,512.29l-2.58,21.55h-5.12l2.58-21.55H347.62z M348.92,506.02c0,0.45-0.09,0.87-0.28,1.26
			c-0.19,0.39-0.43,0.74-0.73,1.03c-0.3,0.29-0.65,0.53-1.04,0.71c-0.39,0.17-0.8,0.26-1.22,0.26c-0.41,0-0.8-0.09-1.19-0.26
			c-0.39-0.18-0.72-0.41-1.02-0.71c-0.29-0.29-0.53-0.64-0.7-1.03c-0.18-0.39-0.26-0.81-0.26-1.26c0-0.45,0.09-0.87,0.27-1.28
			c0.18-0.41,0.42-0.76,0.71-1.06c0.29-0.3,0.63-0.54,1.02-0.71c0.39-0.17,0.78-0.26,1.19-0.26c0.42,0,0.83,0.09,1.22,0.26
			c0.39,0.18,0.74,0.41,1.04,0.7c0.3,0.29,0.54,0.64,0.72,1.05C348.83,505.12,348.92,505.55,348.92,506.02z"/>
		<path d="M364.56,516.35c-0.15,0.22-0.3,0.38-0.44,0.47c-0.14,0.09-0.32,0.14-0.55,0.14c-0.24,0-0.48-0.07-0.74-0.21
			c-0.25-0.14-0.54-0.3-0.87-0.47c-0.33-0.18-0.71-0.33-1.13-0.47c-0.43-0.14-0.94-0.21-1.54-0.21c-1.11,0-1.95,0.25-2.54,0.75
			s-0.88,1.12-0.88,1.86c0,0.43,0.12,0.8,0.37,1.1s0.56,0.56,0.96,0.79c0.39,0.22,0.84,0.43,1.34,0.62c0.5,0.19,1.02,0.39,1.55,0.61
			s1.05,0.46,1.55,0.74c0.5,0.27,0.95,0.61,1.34,1c0.39,0.39,0.71,0.87,0.96,1.42s0.37,1.21,0.37,1.98c0,1.04-0.21,2.02-0.62,2.96
			s-1,1.76-1.77,2.47c-0.77,0.71-1.7,1.27-2.79,1.68c-1.09,0.41-2.31,0.62-3.65,0.62c-0.69,0-1.35-0.07-1.98-0.2
			c-0.64-0.13-1.24-0.32-1.8-0.56c-0.56-0.24-1.07-0.52-1.52-0.84s-0.84-0.67-1.17-1.05l1.26-1.97c0.15-0.24,0.34-0.42,0.56-0.54
			c0.22-0.13,0.47-0.19,0.77-0.19s0.56,0.09,0.8,0.27s0.52,0.38,0.84,0.6s0.71,0.42,1.17,0.6c0.45,0.18,1.04,0.27,1.75,0.27
			c0.57,0,1.08-0.08,1.52-0.23c0.44-0.15,0.81-0.36,1.11-0.63s0.53-0.57,0.68-0.92c0.15-0.35,0.23-0.72,0.23-1.11
			c0-0.48-0.12-0.87-0.36-1.19s-0.56-0.59-0.96-0.82c-0.4-0.23-0.85-0.43-1.36-0.61c-0.5-0.18-1.02-0.36-1.54-0.56
			c-0.53-0.2-1.04-0.42-1.53-0.67s-0.95-0.57-1.34-0.96c-0.4-0.38-0.72-0.85-0.96-1.41c-0.24-0.55-0.36-1.23-0.36-2.03
			c0-0.95,0.18-1.88,0.55-2.78c0.36-0.9,0.9-1.7,1.61-2.39c0.71-0.69,1.58-1.25,2.6-1.67c1.03-0.42,2.21-0.63,3.54-0.63
			c1.37,0,2.59,0.23,3.64,0.7c1.06,0.47,1.95,1.07,2.68,1.8L364.56,516.35z"/>
	</g>
	<g>
		<path fill="#FFFFFF" d="M207.66,521.82c0.1,0.38,0.2,0.76,0.29,1.15c0.17-0.39,0.35-0.78,0.55-1.15c0.2-0.38,0.41-0.75,0.63-1.11
			l10.54-17.35c0.13-0.21,0.25-0.38,0.39-0.49c0.13-0.12,0.27-0.21,0.42-0.26c0.15-0.06,0.31-0.09,0.49-0.11s0.39-0.02,0.63-0.02
			h4.14L222,532.84h-4.79l2.44-19.78c0.04-0.36,0.11-0.76,0.19-1.2c0.08-0.44,0.17-0.88,0.27-1.32l-10.44,17.35
			c-0.24,0.39-0.54,0.69-0.89,0.88c-0.36,0.2-0.75,0.29-1.17,0.29h-0.76c-0.42,0-0.79-0.1-1.1-0.29c-0.32-0.2-0.54-0.49-0.68-0.88
			l-6.26-17.28c-0.01,0.44-0.03,0.86-0.05,1.26c-0.02,0.4-0.05,0.78-0.09,1.11l-2.39,19.87h-4.81l3.74-30.37h4.09
			c0.24,0,0.45,0.01,0.63,0.02s0.34,0.05,0.48,0.11c0.14,0.06,0.26,0.14,0.36,0.26c0.1,0.12,0.19,0.28,0.27,0.49l6.28,17.35
			C207.45,521.07,207.56,521.44,207.66,521.82z"/>
		<path fill="#FFFFFF" d="M244.03,532.84h-2.73c-0.63,0-1.07-0.15-1.32-0.44c-0.25-0.29-0.38-0.66-0.38-1.11l0.17-2.94
			c-0.95,1.48-2.02,2.66-3.21,3.52c-1.19,0.86-2.5,1.29-3.93,1.29c-0.81,0-1.57-0.16-2.28-0.48s-1.32-0.8-1.85-1.44
			c-0.52-0.64-0.94-1.43-1.24-2.39c-0.3-0.96-0.45-2.08-0.45-3.37c0-1.29,0.16-2.54,0.48-3.76c0.32-1.22,0.78-2.36,1.38-3.43
			c0.59-1.07,1.31-2.05,2.15-2.95c0.84-0.9,1.78-1.67,2.82-2.31s2.17-1.14,3.38-1.5s2.49-0.54,3.83-0.54c0.97,0,1.93,0.07,2.91,0.21
			c0.97,0.14,1.93,0.39,2.87,0.76L244.03,532.84z M234.67,528.91c0.57,0,1.14-0.2,1.69-0.59c0.55-0.39,1.07-0.93,1.56-1.63
			s0.95-1.51,1.37-2.45s0.78-1.95,1.09-3.02l0.82-6.51c-0.38-0.04-0.73-0.06-1.05-0.06c-1.16,0-2.24,0.27-3.23,0.8
			c-0.99,0.53-1.86,1.25-2.58,2.15c-0.73,0.9-1.3,1.95-1.71,3.15s-0.62,2.46-0.62,3.79c0,1.51,0.24,2.62,0.71,3.32
			C233.19,528.56,233.84,528.91,234.67,528.91z"/>
		<path fill="#FFFFFF" d="M257.01,511.29l-2.58,21.55h-5.12l2.58-21.55H257.01z M258.31,505.02c0,0.45-0.09,0.87-0.28,1.26
			c-0.19,0.39-0.43,0.74-0.73,1.03c-0.3,0.29-0.65,0.53-1.04,0.71c-0.39,0.17-0.8,0.26-1.22,0.26c-0.41,0-0.8-0.09-1.19-0.26
			c-0.38-0.18-0.72-0.41-1.02-0.71c-0.29-0.29-0.53-0.64-0.7-1.03c-0.18-0.39-0.26-0.81-0.26-1.26c0-0.45,0.09-0.87,0.27-1.28
			c0.18-0.41,0.42-0.76,0.71-1.06c0.29-0.3,0.63-0.54,1.02-0.71c0.38-0.17,0.78-0.26,1.19-0.26c0.42,0,0.83,0.09,1.22,0.26
			c0.39,0.18,0.74,0.41,1.04,0.7c0.3,0.29,0.54,0.64,0.72,1.05S258.31,504.55,258.31,505.02z"/>
		<path fill="#FFFFFF" d="M259.66,532.84l2.58-21.57h2.65c0.55,0,0.97,0.13,1.27,0.4c0.3,0.27,0.45,0.69,0.45,1.28l-0.15,2.79
			c1.09-1.61,2.3-2.81,3.63-3.6s2.7-1.19,4.12-1.19c0.8,0,1.52,0.14,2.17,0.43s1.21,0.71,1.67,1.26c0.46,0.55,0.82,1.23,1.07,2.04
			s0.38,1.73,0.38,2.78c0,0.27-0.01,0.54-0.03,0.81c-0.02,0.27-0.04,0.56-0.07,0.85l-1.62,13.71h-5.19
			c0.28-2.37,0.52-4.37,0.71-6.02c0.2-1.64,0.36-3.01,0.48-4.11c0.13-1.09,0.22-1.95,0.29-2.57c0.07-0.62,0.12-1.1,0.16-1.42
			c0.04-0.32,0.06-0.54,0.06-0.64c0.01-0.1,0.01-0.19,0.01-0.26c0-0.92-0.17-1.59-0.5-2.01c-0.34-0.41-0.86-0.62-1.58-0.62
			c-0.57,0-1.17,0.17-1.79,0.5c-0.62,0.34-1.2,0.81-1.76,1.43c-0.56,0.62-1.07,1.36-1.53,2.23c-0.46,0.87-0.84,1.83-1.13,2.9
			l-1.18,10.58H259.66z"/>
		<path fill="#FFFFFF" d="M315.26,532.84h-4.22c-0.48,0-0.85-0.11-1.13-0.34c-0.28-0.22-0.46-0.53-0.53-0.9l-1.26-6.34H296.8
			l-2.81,6.34c-0.15,0.32-0.41,0.61-0.76,0.86c-0.35,0.25-0.74,0.38-1.18,0.38h-4.28l14.68-30.37h5.57L315.26,532.84z
			 M298.51,521.42h8.84l-2.06-10.4c-0.11-0.5-0.22-1.04-0.34-1.6c-0.11-0.56-0.22-1.19-0.32-1.89c-0.27,0.7-0.53,1.35-0.79,1.94
			c-0.26,0.6-0.5,1.12-0.72,1.56L298.51,521.42z"/>
		<path fill="#FFFFFF" d="M323.64,521.19l-5-9.89h4.7c0.35,0,0.6,0.05,0.76,0.15c0.15,0.1,0.29,0.27,0.4,0.51l2.96,6.43
			c0.08-0.17,0.17-0.34,0.27-0.52c0.1-0.17,0.21-0.35,0.34-0.54l3.78-5.29c0.17-0.24,0.34-0.42,0.53-0.55
			c0.18-0.13,0.39-0.19,0.63-0.19h4.7l-7.58,9.91l5.54,11.63h-4.73c-0.35,0-0.63-0.1-0.83-0.28c-0.2-0.19-0.36-0.41-0.47-0.66
			l-3.3-7.56c-0.07,0.15-0.15,0.31-0.23,0.46s-0.17,0.29-0.25,0.42l-4.79,6.68c-0.18,0.24-0.38,0.46-0.61,0.65
			c-0.22,0.2-0.5,0.29-0.82,0.29h-4.56L323.64,521.19z"/>
		<path fill="#FFFFFF" d="M346.62,511.29l-2.58,21.55h-5.12l2.58-21.55H346.62z M347.92,505.02c0,0.45-0.09,0.87-0.28,1.26
			c-0.19,0.39-0.43,0.74-0.73,1.03c-0.3,0.29-0.65,0.53-1.04,0.71c-0.39,0.17-0.8,0.26-1.22,0.26c-0.41,0-0.8-0.09-1.19-0.26
			c-0.39-0.18-0.72-0.41-1.02-0.71c-0.29-0.29-0.53-0.64-0.7-1.03c-0.18-0.39-0.26-0.81-0.26-1.26c0-0.45,0.09-0.87,0.27-1.28
			c0.18-0.41,0.42-0.76,0.71-1.06c0.29-0.3,0.63-0.54,1.02-0.71c0.39-0.17,0.78-0.26,1.19-0.26c0.42,0,0.83,0.09,1.22,0.26
			c0.39,0.18,0.74,0.41,1.04,0.7c0.3,0.29,0.54,0.64,0.72,1.05C347.83,504.12,347.92,504.55,347.92,505.02z"/>
		<path fill="#FFFFFF" d="M363.56,515.35c-0.15,0.22-0.3,0.38-0.44,0.47c-0.14,0.09-0.32,0.14-0.55,0.14
			c-0.24,0-0.48-0.07-0.74-0.21c-0.25-0.14-0.54-0.3-0.87-0.47c-0.33-0.18-0.71-0.33-1.13-0.47c-0.43-0.14-0.94-0.21-1.54-0.21
			c-1.11,0-1.95,0.25-2.54,0.75s-0.88,1.12-0.88,1.86c0,0.43,0.12,0.8,0.37,1.1s0.56,0.56,0.96,0.79c0.39,0.22,0.84,0.43,1.34,0.62
			c0.5,0.19,1.02,0.39,1.55,0.61s1.05,0.46,1.55,0.74c0.5,0.27,0.95,0.61,1.34,1c0.39,0.39,0.71,0.87,0.96,1.42s0.37,1.21,0.37,1.98
			c0,1.04-0.21,2.02-0.62,2.96s-1,1.76-1.77,2.47c-0.77,0.71-1.7,1.27-2.79,1.68c-1.09,0.41-2.31,0.62-3.65,0.62
			c-0.69,0-1.35-0.07-1.98-0.2c-0.64-0.13-1.24-0.32-1.8-0.56c-0.56-0.24-1.07-0.52-1.52-0.84s-0.84-0.67-1.17-1.05l1.26-1.97
			c0.15-0.24,0.34-0.42,0.56-0.54c0.22-0.13,0.47-0.19,0.77-0.19s0.56,0.09,0.8,0.27s0.52,0.38,0.84,0.6s0.71,0.42,1.17,0.6
			c0.45,0.18,1.04,0.27,1.75,0.27c0.57,0,1.08-0.08,1.52-0.23c0.44-0.15,0.81-0.36,1.11-0.63s0.53-0.57,0.68-0.92
			c0.15-0.35,0.23-0.72,0.23-1.11c0-0.48-0.12-0.87-0.36-1.19s-0.56-0.59-0.96-0.82c-0.4-0.23-0.85-0.43-1.36-0.61
			c-0.5-0.18-1.02-0.36-1.54-0.56c-0.53-0.2-1.04-0.42-1.53-0.67s-0.95-0.57-1.34-0.96c-0.4-0.38-0.72-0.85-0.96-1.41
			c-0.24-0.55-0.36-1.23-0.36-2.03c0-0.95,0.18-1.88,0.55-2.78c0.36-0.9,0.9-1.7,1.61-2.39c0.71-0.69,1.58-1.25,2.6-1.67
			c1.03-0.42,2.21-0.63,3.54-0.63c1.37,0,2.59,0.23,3.64,0.7c1.06,0.47,1.95,1.07,2.68,1.8L363.56,515.35z"/>
	</g>
</g>
<g id="Row" display="none">
	<g display="inline">
		<path d="M17.78,166.29c0,0.85,0.07,1.6,0.2,2.24s0.3,1.19,0.51,1.66c0.21,0.47,0.43,0.87,0.66,1.21c0.23,0.34,0.45,0.63,0.66,0.88
			s0.38,0.48,0.51,0.67c0.13,0.2,0.2,0.39,0.2,0.59c0,0.17-0.04,0.31-0.11,0.42c-0.07,0.11-0.14,0.2-0.21,0.27l-2.37,1.91
			c-1.51-1.32-2.67-2.86-3.48-4.64c-0.8-1.78-1.21-3.82-1.21-6.13c0-1.86,0.33-3.52,1-4.98c0.67-1.46,1.59-2.69,2.76-3.7
			s2.57-1.77,4.18-2.3c1.61-0.52,3.37-0.79,5.27-0.79c1.75,0,3.41,0.19,4.97,0.57c1.56,0.38,3,0.92,4.33,1.62
			c1.32,0.7,2.51,1.54,3.56,2.52c1.05,0.98,1.95,2.07,2.69,3.26s1.31,2.47,1.7,3.85c0.39,1.38,0.59,2.82,0.59,4.31
			c0,1.11-0.1,2.12-0.3,3.03s-0.49,1.73-0.85,2.48s-0.8,1.41-1.31,2s-1.08,1.12-1.71,1.6l-2.27-1.89c-0.17-0.14-0.31-0.3-0.44-0.49
			c-0.13-0.19-0.19-0.42-0.19-0.7c0-0.31,0.13-0.6,0.38-0.88c0.25-0.28,0.53-0.63,0.83-1.06c0.3-0.43,0.58-0.98,0.83-1.66
			c0.25-0.68,0.38-1.57,0.38-2.68c0-1.46-0.3-2.81-0.89-4.05c-0.59-1.25-1.45-2.33-2.55-3.26c-1.11-0.92-2.44-1.65-4-2.17
			c-1.56-0.53-3.31-0.79-5.26-0.79c-1.41,0-2.68,0.18-3.8,0.54s-2.07,0.85-2.85,1.48c-0.78,0.63-1.37,1.38-1.79,2.25
			C17.99,164.33,17.78,165.27,17.78,166.29z"/>
		<path d="M13.5,178.49l21.57,2.63v2.63c0,0.5-0.11,0.92-0.34,1.24c-0.22,0.32-0.58,0.48-1.07,0.48c-0.1,0-0.27-0.01-0.5-0.02
			c-0.24-0.01-0.61-0.03-1.12-0.04s-1.23-0.04-2.15-0.08c1.69,0.88,3,1.85,3.93,2.9c0.92,1.05,1.39,2.14,1.39,3.28
			c0,0.57-0.13,1.16-0.38,1.74l-4.96-0.95c0.29-0.7,0.44-1.36,0.44-2c0-1.25-0.59-2.34-1.79-3.28c-1.19-0.94-3.05-1.71-5.59-2.31
			l-9.43-1.13V178.49z"/>
		<path d="M13.18,201.03c0-1.19,0.2-2.29,0.6-3.31c0.4-1.02,0.98-1.89,1.75-2.63c0.77-0.74,1.71-1.31,2.83-1.73s2.4-0.63,3.84-0.63
			c1.86,0,3.6,0.3,5.21,0.89c1.61,0.59,3,1.41,4.18,2.44c1.18,1.03,2.1,2.23,2.77,3.6s1.01,2.83,1.01,4.39c0,1.19-0.2,2.29-0.6,3.31
			c-0.4,1.01-0.98,1.89-1.75,2.64c-0.77,0.74-1.72,1.32-2.83,1.74c-1.12,0.42-2.4,0.63-3.84,0.63c-1.85,0-3.57-0.3-5.18-0.9
			c-1.6-0.6-3-1.42-4.18-2.45c-1.18-1.03-2.11-2.23-2.79-3.6C13.52,204.04,13.18,202.58,13.18,201.03z M17.17,201.49
			c0,0.87,0.25,1.65,0.75,2.35c0.5,0.7,1.16,1.3,1.99,1.8s1.8,0.88,2.91,1.14c1.11,0.27,2.27,0.4,3.49,0.4
			c1.75,0,3.04-0.3,3.86-0.89c0.83-0.6,1.24-1.5,1.24-2.7c0-0.87-0.25-1.65-0.74-2.35c-0.49-0.7-1.15-1.29-2-1.79
			c-0.84-0.49-1.81-0.87-2.92-1.13c-1.11-0.27-2.27-0.4-3.51-0.4c-1.75,0-3.03,0.29-3.85,0.88
			C17.58,199.39,17.17,200.29,17.17,201.49z"/>
		<path d="M30.99,228.64c-0.22-0.15-0.38-0.3-0.47-0.44c-0.09-0.14-0.14-0.32-0.14-0.55c0-0.24,0.07-0.48,0.21-0.74
			s0.3-0.54,0.47-0.87c0.17-0.33,0.33-0.71,0.47-1.13c0.14-0.43,0.21-0.94,0.21-1.54c0-1.11-0.25-1.95-0.75-2.54
			c-0.5-0.59-1.12-0.88-1.86-0.88c-0.43,0-0.8,0.12-1.1,0.37c-0.3,0.25-0.56,0.56-0.79,0.96c-0.22,0.39-0.43,0.84-0.62,1.34
			c-0.19,0.5-0.39,1.02-0.61,1.55s-0.46,1.05-0.74,1.55c-0.27,0.5-0.61,0.95-1,1.34c-0.39,0.39-0.86,0.71-1.42,0.96
			c-0.55,0.25-1.21,0.37-1.99,0.37c-1.04,0-2.02-0.21-2.96-0.62c-0.94-0.41-1.76-1-2.47-1.77c-0.71-0.77-1.27-1.7-1.68-2.79
			c-0.41-1.09-0.62-2.31-0.62-3.65c0-0.69,0.07-1.35,0.2-1.98c0.13-0.64,0.32-1.24,0.56-1.8c0.24-0.56,0.52-1.07,0.84-1.52
			s0.67-0.84,1.05-1.17l1.97,1.26c0.24,0.15,0.42,0.34,0.55,0.56s0.19,0.47,0.19,0.77s-0.09,0.56-0.27,0.8
			c-0.18,0.24-0.38,0.52-0.6,0.84s-0.42,0.71-0.6,1.17c-0.18,0.45-0.27,1.04-0.27,1.75c0,0.57,0.08,1.08,0.23,1.52
			c0.15,0.44,0.36,0.81,0.63,1.11s0.57,0.53,0.92,0.68c0.35,0.15,0.72,0.23,1.11,0.23c0.48,0,0.87-0.12,1.19-0.36
			c0.32-0.24,0.59-0.56,0.82-0.96c0.23-0.4,0.43-0.85,0.61-1.36c0.18-0.5,0.36-1.02,0.56-1.54s0.42-1.04,0.67-1.53
			s0.57-0.95,0.96-1.34c0.38-0.4,0.85-0.72,1.41-0.96c0.55-0.24,1.23-0.36,2.03-0.36c0.95,0,1.88,0.18,2.78,0.55s1.7,0.9,2.39,1.61
			c0.69,0.71,1.25,1.58,1.67,2.6c0.42,1.03,0.63,2.21,0.63,3.54c0,1.37-0.23,2.59-0.7,3.64c-0.47,1.06-1.07,1.95-1.8,2.68
			L30.99,228.64z"/>
		<path d="M30.99,245.13c-0.22-0.15-0.38-0.3-0.47-0.44c-0.09-0.14-0.14-0.32-0.14-0.55c0-0.24,0.07-0.48,0.21-0.74
			s0.3-0.54,0.47-0.87c0.17-0.33,0.33-0.71,0.47-1.13c0.14-0.43,0.21-0.94,0.21-1.54c0-1.11-0.25-1.95-0.75-2.54
			c-0.5-0.59-1.12-0.88-1.86-0.88c-0.43,0-0.8,0.12-1.1,0.37c-0.3,0.25-0.56,0.56-0.79,0.96c-0.22,0.39-0.43,0.84-0.62,1.34
			c-0.19,0.5-0.39,1.02-0.61,1.55s-0.46,1.05-0.74,1.55c-0.27,0.5-0.61,0.95-1,1.34c-0.39,0.39-0.86,0.71-1.42,0.96
			c-0.55,0.25-1.21,0.37-1.99,0.37c-1.04,0-2.02-0.21-2.96-0.62c-0.94-0.41-1.76-1-2.47-1.77c-0.71-0.77-1.27-1.7-1.68-2.79
			c-0.41-1.09-0.62-2.31-0.62-3.65c0-0.69,0.07-1.35,0.2-1.98c0.13-0.64,0.32-1.24,0.56-1.8c0.24-0.56,0.52-1.07,0.84-1.52
			s0.67-0.84,1.05-1.17l1.97,1.26c0.24,0.15,0.42,0.34,0.55,0.56s0.19,0.47,0.19,0.77s-0.09,0.56-0.27,0.8
			c-0.18,0.24-0.38,0.52-0.6,0.84s-0.42,0.71-0.6,1.17c-0.18,0.45-0.27,1.04-0.27,1.75c0,0.57,0.08,1.08,0.23,1.52
			c0.15,0.44,0.36,0.81,0.63,1.11s0.57,0.53,0.92,0.68c0.35,0.15,0.72,0.23,1.11,0.23c0.48,0,0.87-0.12,1.19-0.36
			c0.32-0.24,0.59-0.56,0.82-0.96c0.23-0.4,0.43-0.85,0.61-1.36c0.18-0.5,0.36-1.02,0.56-1.54s0.42-1.04,0.67-1.53
			s0.57-0.95,0.96-1.34c0.38-0.4,0.85-0.72,1.41-0.96c0.55-0.24,1.23-0.36,2.03-0.36c0.95,0,1.88,0.18,2.78,0.55s1.7,0.9,2.39,1.61
			c0.69,0.71,1.25,1.58,1.67,2.6c0.42,1.03,0.63,2.21,0.63,3.54c0,1.37-0.23,2.59-0.7,3.64c-0.47,1.06-1.07,1.95-1.8,2.68
			L30.99,245.13z"/>
		<path d="M13.5,280.3v-4.22c0-0.48,0.11-0.85,0.34-1.13s0.53-0.46,0.9-0.53l6.34-1.26v-11.32l-6.34-2.81
			c-0.32-0.15-0.61-0.41-0.86-0.76c-0.25-0.35-0.38-0.74-0.38-1.18v-4.28l30.37,14.68v5.57L13.5,280.3z M24.92,263.54v8.84
			l10.4-2.06c0.5-0.11,1.04-0.22,1.6-0.34c0.56-0.11,1.19-0.22,1.89-0.32c-0.7-0.27-1.35-0.53-1.94-0.79s-1.12-0.5-1.56-0.72
			L24.92,263.54z"/>
		<path d="M25.16,288.68l9.89-5v4.7c0,0.35-0.05,0.6-0.15,0.76c-0.1,0.15-0.27,0.29-0.5,0.4l-6.43,2.96
			c0.17,0.08,0.34,0.17,0.51,0.27s0.35,0.21,0.54,0.34l5.29,3.78c0.24,0.17,0.42,0.34,0.55,0.53c0.13,0.18,0.19,0.39,0.19,0.63v4.7
			l-9.91-7.58l-11.63,5.54v-4.73c0-0.35,0.09-0.63,0.28-0.83c0.19-0.2,0.41-0.36,0.66-0.47l7.56-3.3c-0.15-0.07-0.31-0.15-0.46-0.23
			s-0.29-0.17-0.42-0.25l-6.68-4.79c-0.24-0.18-0.46-0.38-0.65-0.61c-0.2-0.22-0.29-0.5-0.29-0.82v-4.56L25.16,288.68z"/>
		<path d="M35.05,311.65l-21.55-2.58v-5.12l21.55,2.58V311.65z M41.33,312.96c-0.45,0-0.87-0.09-1.26-0.28
			c-0.39-0.19-0.74-0.43-1.03-0.73c-0.29-0.3-0.53-0.65-0.7-1.04c-0.17-0.39-0.26-0.8-0.26-1.22c0-0.41,0.09-0.8,0.26-1.19
			c0.18-0.39,0.41-0.72,0.7-1.02s0.64-0.53,1.03-0.7c0.39-0.18,0.81-0.26,1.26-0.26c0.45,0,0.88,0.09,1.28,0.27
			c0.41,0.18,0.76,0.42,1.06,0.71c0.3,0.29,0.54,0.63,0.71,1.02c0.17,0.39,0.26,0.78,0.26,1.19c0,0.42-0.09,0.83-0.26,1.22
			c-0.18,0.39-0.41,0.74-0.7,1.04s-0.64,0.54-1.05,0.72C42.22,312.86,41.79,312.96,41.33,312.96z"/>
		<path d="M30.99,328.6c-0.22-0.15-0.38-0.3-0.47-0.44c-0.09-0.14-0.14-0.32-0.14-0.55c0-0.24,0.07-0.48,0.21-0.74
			s0.3-0.54,0.47-0.87c0.17-0.33,0.33-0.71,0.47-1.13c0.14-0.43,0.21-0.94,0.21-1.54c0-1.11-0.25-1.95-0.75-2.54
			c-0.5-0.59-1.12-0.88-1.86-0.88c-0.43,0-0.8,0.12-1.1,0.37c-0.3,0.25-0.56,0.56-0.79,0.96c-0.22,0.39-0.43,0.84-0.62,1.34
			c-0.19,0.5-0.39,1.02-0.61,1.55s-0.46,1.05-0.74,1.55c-0.27,0.5-0.61,0.95-1,1.34c-0.39,0.39-0.86,0.71-1.42,0.96
			c-0.55,0.25-1.21,0.37-1.99,0.37c-1.04,0-2.02-0.21-2.96-0.62c-0.94-0.41-1.76-1-2.47-1.77c-0.71-0.77-1.27-1.7-1.68-2.79
			c-0.41-1.09-0.62-2.31-0.62-3.65c0-0.69,0.07-1.35,0.2-1.98c0.13-0.64,0.32-1.24,0.56-1.8c0.24-0.56,0.52-1.07,0.84-1.52
			s0.67-0.84,1.05-1.17l1.97,1.26c0.24,0.15,0.42,0.34,0.55,0.56s0.19,0.47,0.19,0.77s-0.09,0.56-0.27,0.8
			c-0.18,0.24-0.38,0.52-0.6,0.84s-0.42,0.71-0.6,1.17c-0.18,0.45-0.27,1.04-0.27,1.75c0,0.57,0.08,1.08,0.23,1.52
			c0.15,0.44,0.36,0.81,0.63,1.11s0.57,0.53,0.92,0.68c0.35,0.15,0.72,0.23,1.11,0.23c0.48,0,0.87-0.12,1.19-0.36
			c0.32-0.24,0.59-0.56,0.82-0.96c0.23-0.4,0.43-0.85,0.61-1.36c0.18-0.5,0.36-1.02,0.56-1.54s0.42-1.04,0.67-1.53
			s0.57-0.95,0.96-1.34c0.38-0.4,0.85-0.72,1.41-0.96c0.55-0.24,1.23-0.36,2.03-0.36c0.95,0,1.88,0.18,2.78,0.55s1.7,0.9,2.39,1.61
			c0.69,0.71,1.25,1.58,1.67,2.6c0.42,1.03,0.63,2.21,0.63,3.54c0,1.37-0.23,2.59-0.7,3.64c-0.47,1.06-1.07,1.95-1.8,2.68
			L30.99,328.6z"/>
	</g>
	<g display="inline">
		<path fill="#999999" d="M16.88,165.29c0,0.85,0.07,1.6,0.2,2.24c0.13,0.64,0.31,1.19,0.52,1.66s0.43,0.87,0.67,1.21
			c0.23,0.34,0.45,0.63,0.67,0.88s0.38,0.48,0.52,0.67c0.13,0.2,0.2,0.39,0.2,0.59c0,0.17-0.04,0.31-0.11,0.42
			c-0.07,0.11-0.14,0.2-0.21,0.27l-2.39,1.91c-1.52-1.32-2.69-2.86-3.5-4.64s-1.22-3.82-1.22-6.13c0-1.86,0.33-3.52,1-4.98
			s1.6-2.69,2.78-3.7c1.18-1.01,2.59-1.77,4.21-2.3c1.62-0.52,3.39-0.79,5.31-0.79c1.76,0,3.43,0.19,5,0.57
			c1.57,0.38,3.02,0.92,4.36,1.62c1.33,0.7,2.53,1.54,3.58,2.52s1.96,2.06,2.71,3.26c0.75,1.19,1.32,2.47,1.71,3.85
			c0.39,1.38,0.59,2.82,0.59,4.32c0,1.11-0.1,2.11-0.31,3.02c-0.2,0.91-0.49,1.74-0.86,2.48c-0.37,0.74-0.81,1.41-1.32,2
			c-0.51,0.59-1.09,1.12-1.72,1.6l-2.28-1.89c-0.17-0.14-0.32-0.3-0.44-0.49c-0.13-0.19-0.19-0.42-0.19-0.7
			c0-0.31,0.13-0.6,0.38-0.88c0.25-0.28,0.53-0.63,0.84-1.06c0.3-0.43,0.58-0.98,0.83-1.66s0.38-1.57,0.38-2.68
			c0-1.46-0.3-2.81-0.9-4.05s-1.46-2.33-2.57-3.25c-1.11-0.92-2.46-1.65-4.03-2.17c-1.57-0.53-3.34-0.79-5.3-0.79
			c-1.42,0-2.7,0.18-3.83,0.54c-1.13,0.36-2.08,0.85-2.86,1.48c-0.78,0.63-1.38,1.38-1.8,2.25
			C17.09,163.33,16.88,164.27,16.88,165.29z"/>
		<path fill="#999999" d="M12.57,177.49l21.71,2.63v2.63c0,0.5-0.11,0.92-0.34,1.24c-0.23,0.32-0.59,0.48-1.08,0.48
			c-0.1,0-0.27-0.01-0.51-0.02c-0.24-0.01-0.62-0.03-1.13-0.04c-0.51-0.01-1.24-0.04-2.17-0.08c1.71,0.88,3.02,1.85,3.95,2.9
			c0.93,1.05,1.4,2.14,1.4,3.28c0,0.57-0.13,1.16-0.38,1.74l-4.99-0.94c0.3-0.7,0.44-1.37,0.44-2c0-1.25-0.6-2.34-1.8-3.28
			c-1.2-0.94-3.07-1.71-5.62-2.31l-9.49-1.13V177.49z"/>
		<path fill="#999999" d="M12.25,200.03c0-1.19,0.2-2.29,0.6-3.31c0.4-1.02,0.99-1.89,1.77-2.63c0.77-0.74,1.73-1.31,2.85-1.73
			c1.13-0.42,2.42-0.63,3.87-0.63c1.87,0,3.62,0.3,5.24,0.89c1.62,0.6,3.02,1.41,4.21,2.44c1.18,1.03,2.11,2.23,2.79,3.6
			c0.68,1.37,1.01,2.83,1.01,4.39c0,1.19-0.2,2.29-0.6,3.31s-0.99,1.89-1.77,2.64s-1.73,1.32-2.85,1.74
			c-1.13,0.42-2.42,0.63-3.87,0.63c-1.86,0-3.6-0.3-5.21-0.9s-3.02-1.42-4.21-2.45c-1.19-1.03-2.13-2.23-2.81-3.6
			C12.6,203.04,12.25,201.58,12.25,200.03z M16.27,200.49c0,0.87,0.25,1.65,0.75,2.35c0.5,0.7,1.17,1.3,2.01,1.8
			c0.84,0.5,1.81,0.88,2.93,1.14c1.11,0.27,2.28,0.4,3.51,0.4c1.76,0,3.06-0.3,3.89-0.89c0.83-0.6,1.25-1.5,1.25-2.7
			c0-0.87-0.25-1.65-0.74-2.35c-0.49-0.7-1.16-1.3-2.01-1.79c-0.85-0.49-1.83-0.87-2.94-1.13s-2.29-0.4-3.53-0.4
			c-1.76,0-3.06,0.29-3.88,0.88C16.68,198.39,16.27,199.29,16.27,200.49z"/>
		<path fill="#999999" d="M30.18,227.64c-0.23-0.15-0.38-0.3-0.48-0.44c-0.09-0.14-0.14-0.32-0.14-0.55c0-0.24,0.07-0.48,0.21-0.74
			c0.14-0.25,0.3-0.54,0.48-0.87c0.18-0.33,0.33-0.71,0.48-1.13c0.14-0.43,0.21-0.94,0.21-1.54c0-1.11-0.25-1.95-0.75-2.54
			c-0.5-0.59-1.12-0.88-1.87-0.88c-0.44,0-0.81,0.12-1.11,0.37c-0.3,0.25-0.57,0.56-0.79,0.96c-0.23,0.39-0.43,0.84-0.62,1.34
			c-0.19,0.5-0.39,1.02-0.61,1.55c-0.22,0.53-0.47,1.05-0.74,1.55s-0.61,0.95-1,1.34c-0.39,0.39-0.87,0.71-1.43,0.96
			c-0.56,0.25-1.22,0.37-2,0.37c-1.04,0-2.04-0.21-2.98-0.62s-1.77-1-2.48-1.77c-0.71-0.77-1.28-1.7-1.69-2.79
			c-0.42-1.09-0.62-2.31-0.62-3.65c0-0.69,0.07-1.35,0.2-1.98s0.32-1.24,0.56-1.8c0.24-0.56,0.52-1.07,0.85-1.52
			s0.68-0.84,1.06-1.17l1.99,1.26c0.24,0.15,0.42,0.34,0.55,0.56s0.19,0.47,0.19,0.77s-0.09,0.56-0.27,0.8
			c-0.18,0.24-0.38,0.52-0.6,0.84c-0.22,0.32-0.42,0.71-0.6,1.17c-0.18,0.45-0.27,1.04-0.27,1.75c0,0.57,0.08,1.08,0.23,1.52
			c0.15,0.44,0.37,0.81,0.63,1.11c0.27,0.3,0.58,0.53,0.93,0.68s0.73,0.23,1.12,0.23c0.48,0,0.88-0.12,1.19-0.36
			c0.32-0.24,0.59-0.56,0.82-0.96c0.23-0.4,0.44-0.85,0.61-1.36c0.18-0.5,0.36-1.02,0.56-1.54c0.2-0.53,0.42-1.04,0.68-1.53
			c0.25-0.5,0.57-0.95,0.96-1.34c0.39-0.4,0.86-0.72,1.42-0.96c0.56-0.24,1.24-0.36,2.04-0.36c0.96,0,1.89,0.18,2.8,0.55
			s1.71,0.9,2.41,1.61s1.26,1.58,1.68,2.6c0.42,1.03,0.63,2.21,0.63,3.54c0,1.37-0.24,2.59-0.71,3.64
			c-0.47,1.06-1.07,1.95-1.81,2.68L30.18,227.64z"/>
		<path fill="#999999" d="M30.18,244.13c-0.23-0.15-0.38-0.3-0.48-0.44c-0.09-0.14-0.14-0.32-0.14-0.55c0-0.24,0.07-0.48,0.21-0.74
			c0.14-0.25,0.3-0.54,0.48-0.87c0.18-0.33,0.33-0.71,0.48-1.13c0.14-0.43,0.21-0.94,0.21-1.54c0-1.11-0.25-1.95-0.75-2.54
			c-0.5-0.59-1.12-0.88-1.87-0.88c-0.44,0-0.81,0.12-1.11,0.37c-0.3,0.25-0.57,0.56-0.79,0.96c-0.23,0.39-0.43,0.84-0.62,1.34
			c-0.19,0.5-0.39,1.02-0.61,1.55c-0.22,0.53-0.47,1.05-0.74,1.55s-0.61,0.95-1,1.34c-0.39,0.39-0.87,0.71-1.43,0.96
			c-0.56,0.25-1.22,0.37-2,0.37c-1.04,0-2.04-0.21-2.98-0.62s-1.77-1-2.48-1.77c-0.71-0.77-1.28-1.7-1.69-2.79
			c-0.42-1.09-0.62-2.31-0.62-3.65c0-0.69,0.07-1.35,0.2-1.98s0.32-1.24,0.56-1.8c0.24-0.56,0.52-1.07,0.85-1.52
			s0.68-0.84,1.06-1.17l1.99,1.26c0.24,0.15,0.42,0.34,0.55,0.56s0.19,0.47,0.19,0.77s-0.09,0.56-0.27,0.8
			c-0.18,0.24-0.38,0.52-0.6,0.84c-0.22,0.32-0.42,0.71-0.6,1.17c-0.18,0.45-0.27,1.04-0.27,1.75c0,0.57,0.08,1.08,0.23,1.52
			c0.15,0.44,0.37,0.81,0.63,1.11c0.27,0.3,0.58,0.53,0.93,0.68s0.73,0.23,1.12,0.23c0.48,0,0.88-0.12,1.19-0.36
			c0.32-0.24,0.59-0.56,0.82-0.96c0.23-0.4,0.44-0.85,0.61-1.36c0.18-0.5,0.36-1.02,0.56-1.54c0.2-0.53,0.42-1.04,0.68-1.53
			c0.25-0.5,0.57-0.95,0.96-1.34c0.39-0.4,0.86-0.72,1.42-0.96c0.56-0.24,1.24-0.36,2.04-0.36c0.96,0,1.89,0.18,2.8,0.55
			s1.71,0.9,2.41,1.61s1.26,1.58,1.68,2.6c0.42,1.03,0.63,2.21,0.63,3.54c0,1.37-0.24,2.59-0.71,3.64
			c-0.47,1.06-1.07,1.95-1.81,2.68L30.18,244.13z"/>
		<path fill="#999999" d="M12.57,279.3v-4.22c0-0.48,0.11-0.85,0.34-1.13c0.23-0.28,0.53-0.46,0.91-0.53l6.38-1.26v-11.32
			l-6.38-2.81c-0.32-0.15-0.61-0.41-0.87-0.76c-0.25-0.35-0.38-0.74-0.38-1.18v-4.28l30.57,14.68v5.57L12.57,279.3z M24.07,262.54
			v8.84l10.47-2.06c0.51-0.11,1.04-0.22,1.61-0.34c0.56-0.11,1.2-0.22,1.9-0.32c-0.71-0.27-1.36-0.53-1.96-0.79
			c-0.6-0.26-1.12-0.5-1.58-0.72L24.07,262.54z"/>
		<path fill="#999999" d="M24.31,287.68l9.96-5v4.7c0,0.35-0.05,0.6-0.15,0.76s-0.27,0.29-0.51,0.4l-6.47,2.96
			c0.17,0.08,0.34,0.17,0.52,0.27c0.18,0.1,0.36,0.21,0.54,0.34l5.33,3.78c0.24,0.17,0.42,0.34,0.55,0.53
			c0.13,0.18,0.19,0.39,0.19,0.63v4.7l-9.98-7.58l-11.71,5.54v-4.73c0-0.35,0.1-0.63,0.29-0.83c0.19-0.2,0.41-0.36,0.67-0.47
			l7.61-3.3c-0.16-0.07-0.31-0.15-0.47-0.23c-0.16-0.08-0.3-0.17-0.42-0.25l-6.72-4.79c-0.24-0.18-0.46-0.38-0.66-0.61
			c-0.2-0.22-0.3-0.5-0.3-0.82v-4.56L24.31,287.68z"/>
		<path fill="#999999" d="M34.26,310.65l-21.69-2.58v-5.12l21.69,2.58V310.65z M40.59,311.96c-0.45,0-0.87-0.09-1.27-0.28
			c-0.39-0.19-0.74-0.43-1.04-0.73c-0.3-0.3-0.53-0.65-0.71-1.04c-0.18-0.39-0.26-0.8-0.26-1.22c0-0.41,0.09-0.8,0.26-1.19
			c0.18-0.39,0.41-0.72,0.71-1.02s0.64-0.53,1.04-0.7c0.39-0.18,0.82-0.26,1.27-0.26s0.88,0.09,1.29,0.27s0.76,0.42,1.07,0.71
			c0.3,0.29,0.54,0.63,0.72,1.02c0.18,0.39,0.26,0.78,0.26,1.19c0,0.42-0.09,0.83-0.26,1.22c-0.18,0.39-0.41,0.74-0.71,1.04
			c-0.3,0.3-0.65,0.54-1.06,0.72C41.49,311.86,41.05,311.96,40.59,311.96z"/>
		<path fill="#999999" d="M30.18,327.6c-0.23-0.15-0.38-0.3-0.48-0.44c-0.09-0.14-0.14-0.32-0.14-0.55c0-0.24,0.07-0.48,0.21-0.74
			c0.14-0.25,0.3-0.54,0.48-0.87c0.18-0.33,0.33-0.71,0.48-1.13c0.14-0.43,0.21-0.94,0.21-1.54c0-1.11-0.25-1.95-0.75-2.54
			c-0.5-0.59-1.12-0.88-1.87-0.88c-0.44,0-0.81,0.12-1.11,0.37c-0.3,0.25-0.57,0.56-0.79,0.96c-0.23,0.39-0.43,0.84-0.62,1.34
			c-0.19,0.5-0.39,1.02-0.61,1.55c-0.22,0.53-0.47,1.05-0.74,1.55s-0.61,0.95-1,1.34c-0.39,0.39-0.87,0.71-1.43,0.96
			c-0.56,0.25-1.22,0.37-2,0.37c-1.04,0-2.04-0.21-2.98-0.62s-1.77-1-2.48-1.77c-0.71-0.77-1.28-1.7-1.69-2.79
			c-0.42-1.09-0.62-2.31-0.62-3.65c0-0.69,0.07-1.35,0.2-1.98s0.32-1.24,0.56-1.8c0.24-0.56,0.52-1.07,0.85-1.52
			s0.68-0.84,1.06-1.17l1.99,1.26c0.24,0.15,0.42,0.34,0.55,0.56s0.19,0.47,0.19,0.77s-0.09,0.56-0.27,0.8
			c-0.18,0.24-0.38,0.52-0.6,0.84c-0.22,0.32-0.42,0.71-0.6,1.17c-0.18,0.45-0.27,1.04-0.27,1.75c0,0.57,0.08,1.08,0.23,1.52
			c0.15,0.44,0.37,0.81,0.63,1.11c0.27,0.3,0.58,0.53,0.93,0.68s0.73,0.23,1.12,0.23c0.48,0,0.88-0.12,1.19-0.36
			c0.32-0.24,0.59-0.56,0.82-0.96c0.23-0.4,0.44-0.85,0.61-1.36c0.18-0.5,0.36-1.02,0.56-1.54c0.2-0.53,0.42-1.04,0.68-1.53
			c0.25-0.5,0.57-0.95,0.96-1.34c0.39-0.4,0.86-0.72,1.42-0.96c0.56-0.24,1.24-0.36,2.04-0.36c0.96,0,1.89,0.18,2.8,0.55
			s1.71,0.9,2.41,1.61s1.26,1.58,1.68,2.6c0.42,1.03,0.63,2.21,0.63,3.54c0,1.37-0.24,2.59-0.71,3.64
			c-0.47,1.06-1.07,1.95-1.81,2.68L30.18,327.6z"/>
	</g>
	<g display="inline">
		<line fill="#FFFFFF" x1="26" y1="354" x2="26" y2="488"/>
		<g>
			<line fill="none" stroke="#000000" stroke-width="6" stroke-miterlimit="10" x1="26" y1="354" x2="26" y2="453"/>
			<g>
				<polygon points="3.78,435.68 26,445.12 48.22,435.68 26,488.35 				"/>
			</g>
		</g>
	</g>
	<g display="inline">
		<line fill="#FFFFFF" x1="25" y1="353" x2="25" y2="487"/>
		<g>
			<line fill="none" stroke="#999999" stroke-width="6" stroke-miterlimit="10" x1="25" y1="353" x2="25" y2="452"/>
			<g>
				<polygon fill="#999999" points="2.78,434.68 25,444.12 47.22,434.68 25,487.35 				"/>
			</g>
		</g>
	</g>
	
		<line display="inline" fill="#FFFFFF" stroke="#000000" stroke-width="6" stroke-miterlimit="10" x1="26" y1="11" x2="26" y2="134"/>
	
		<line display="inline" fill="#FFFFFF" stroke="#999999" stroke-width="6" stroke-miterlimit="10" x1="25" y1="10" x2="25" y2="132"/>
	<g display="inline">
		<line fill="none" stroke="#000000" stroke-width="6" stroke-miterlimit="10" x1="386" y1="521" x2="475" y2="521"/>
		<g>
			<polygon points="458.05,543.22 467.49,521 458.05,498.78 510.72,521 			"/>
		</g>
	</g>
	<g display="inline">
		<line fill="#999999" x1="385" y1="520" x2="510" y2="520"/>
		<g>
			<line fill="none" stroke="#FFFFFF" stroke-width="6" stroke-miterlimit="10" x1="385" y1="520" x2="474" y2="520"/>
			<g>
				<polygon fill="#FFFFFF" points="457.05,542.22 466.49,520 457.05,497.78 509.72,520 				"/>
			</g>
		</g>
	</g>
	
		<line display="inline" fill="none" stroke="#000000" stroke-width="6" stroke-miterlimit="10" x1="61" y1="521" x2="176" y2="521"/>
	
		<line display="inline" fill="#999999" stroke="#FFFFFF" stroke-width="6" stroke-miterlimit="10" x1="60" y1="520" x2="175" y2="520"/>
	<g display="inline">
		<path d="M208.66,522.82c0.1,0.38,0.2,0.76,0.29,1.15c0.17-0.39,0.35-0.78,0.55-1.15c0.2-0.38,0.41-0.75,0.63-1.11l10.54-17.35
			c0.13-0.21,0.25-0.38,0.39-0.49c0.13-0.12,0.27-0.21,0.42-0.26c0.15-0.06,0.31-0.09,0.49-0.11s0.39-0.02,0.63-0.02h4.14
			L223,533.84h-4.79l2.44-19.78c0.04-0.36,0.11-0.76,0.19-1.2c0.08-0.44,0.17-0.88,0.27-1.32l-10.44,17.35
			c-0.24,0.39-0.54,0.69-0.89,0.88c-0.36,0.2-0.75,0.29-1.17,0.29h-0.76c-0.42,0-0.79-0.1-1.1-0.29c-0.32-0.2-0.54-0.49-0.68-0.88
			l-6.26-17.28c-0.01,0.44-0.03,0.86-0.05,1.26c-0.02,0.4-0.05,0.78-0.09,1.11l-2.39,19.87h-4.81l3.74-30.37h4.09
			c0.24,0,0.45,0.01,0.63,0.02s0.34,0.05,0.48,0.11c0.14,0.06,0.26,0.14,0.36,0.26c0.1,0.12,0.19,0.28,0.27,0.49l6.28,17.35
			C208.45,522.07,208.56,522.44,208.66,522.82z"/>
		<path d="M245.03,533.84h-2.73c-0.63,0-1.07-0.15-1.32-0.44c-0.25-0.29-0.38-0.66-0.38-1.11l0.17-2.94
			c-0.95,1.48-2.02,2.66-3.21,3.52c-1.19,0.86-2.5,1.29-3.93,1.29c-0.81,0-1.57-0.16-2.28-0.48s-1.32-0.8-1.85-1.44
			c-0.52-0.64-0.94-1.43-1.24-2.39c-0.3-0.96-0.45-2.08-0.45-3.37c0-1.29,0.16-2.54,0.48-3.76c0.32-1.22,0.78-2.36,1.38-3.43
			c0.59-1.07,1.31-2.05,2.15-2.95c0.84-0.9,1.78-1.67,2.82-2.31s2.17-1.14,3.38-1.5s2.49-0.54,3.83-0.54c0.97,0,1.93,0.07,2.91,0.21
			c0.97,0.14,1.93,0.39,2.87,0.76L245.03,533.84z M235.67,529.91c0.57,0,1.14-0.2,1.69-0.59c0.55-0.39,1.07-0.93,1.56-1.63
			s0.95-1.51,1.37-2.45s0.78-1.95,1.09-3.02l0.82-6.51c-0.38-0.04-0.73-0.06-1.05-0.06c-1.16,0-2.24,0.27-3.23,0.8
			c-0.99,0.53-1.86,1.25-2.58,2.15c-0.73,0.9-1.3,1.95-1.71,3.15s-0.62,2.46-0.62,3.79c0,1.51,0.24,2.62,0.71,3.32
			C234.19,529.56,234.84,529.91,235.67,529.91z"/>
		<path d="M258.01,512.29l-2.58,21.55h-5.12l2.58-21.55H258.01z M259.31,506.02c0,0.45-0.09,0.87-0.28,1.26
			c-0.19,0.39-0.43,0.74-0.73,1.03c-0.3,0.29-0.65,0.53-1.04,0.71c-0.39,0.17-0.8,0.26-1.22,0.26c-0.41,0-0.8-0.09-1.19-0.26
			c-0.38-0.18-0.72-0.41-1.02-0.71c-0.29-0.29-0.53-0.64-0.7-1.03c-0.18-0.39-0.26-0.81-0.26-1.26c0-0.45,0.09-0.87,0.27-1.28
			c0.18-0.41,0.42-0.76,0.71-1.06c0.29-0.3,0.63-0.54,1.02-0.71c0.38-0.17,0.78-0.26,1.19-0.26c0.42,0,0.83,0.09,1.22,0.26
			c0.39,0.18,0.74,0.41,1.04,0.7c0.3,0.29,0.54,0.64,0.72,1.05S259.31,505.55,259.31,506.02z"/>
		<path d="M260.66,533.84l2.58-21.57h2.65c0.55,0,0.97,0.13,1.27,0.4c0.3,0.27,0.45,0.69,0.45,1.28l-0.15,2.79
			c1.09-1.61,2.3-2.81,3.63-3.6s2.7-1.19,4.12-1.19c0.8,0,1.52,0.14,2.17,0.43s1.21,0.71,1.67,1.26c0.46,0.55,0.82,1.23,1.07,2.04
			s0.38,1.73,0.38,2.78c0,0.27-0.01,0.54-0.03,0.81c-0.02,0.27-0.04,0.56-0.07,0.85l-1.62,13.71h-5.19
			c0.28-2.37,0.52-4.37,0.71-6.02c0.2-1.64,0.36-3.01,0.48-4.11c0.13-1.09,0.22-1.95,0.29-2.57c0.07-0.62,0.12-1.1,0.16-1.42
			c0.04-0.32,0.06-0.54,0.06-0.64c0.01-0.1,0.01-0.19,0.01-0.26c0-0.92-0.17-1.59-0.5-2.01c-0.34-0.41-0.86-0.62-1.58-0.62
			c-0.57,0-1.17,0.17-1.79,0.5c-0.62,0.34-1.2,0.81-1.76,1.43c-0.56,0.62-1.07,1.36-1.53,2.23c-0.46,0.87-0.84,1.83-1.13,2.9
			l-1.18,10.58H260.66z"/>
		<path d="M316.26,533.84h-4.22c-0.48,0-0.85-0.11-1.13-0.34c-0.28-0.22-0.46-0.53-0.53-0.9l-1.26-6.34H297.8l-2.81,6.34
			c-0.15,0.32-0.41,0.61-0.76,0.86c-0.35,0.25-0.74,0.38-1.18,0.38h-4.28l14.68-30.37h5.57L316.26,533.84z M299.51,522.42h8.84
			l-2.06-10.4c-0.11-0.5-0.22-1.04-0.34-1.6c-0.11-0.56-0.22-1.19-0.32-1.89c-0.27,0.7-0.53,1.35-0.79,1.94
			c-0.26,0.6-0.5,1.12-0.72,1.56L299.51,522.42z"/>
		<path d="M324.64,522.19l-5-9.89h4.7c0.35,0,0.6,0.05,0.76,0.15c0.15,0.1,0.29,0.27,0.4,0.51l2.96,6.43
			c0.08-0.17,0.17-0.34,0.27-0.52c0.1-0.17,0.21-0.35,0.34-0.54l3.78-5.29c0.17-0.24,0.34-0.42,0.53-0.55
			c0.18-0.13,0.39-0.19,0.63-0.19h4.7l-7.58,9.91l5.54,11.63h-4.73c-0.35,0-0.63-0.1-0.83-0.28c-0.2-0.19-0.36-0.41-0.47-0.66
			l-3.3-7.56c-0.07,0.15-0.15,0.31-0.23,0.46s-0.17,0.29-0.25,0.42l-4.79,6.68c-0.18,0.24-0.38,0.46-0.61,0.65
			c-0.22,0.2-0.5,0.29-0.82,0.29h-4.56L324.64,522.19z"/>
		<path d="M347.62,512.29l-2.58,21.55h-5.12l2.58-21.55H347.62z M348.92,506.02c0,0.45-0.09,0.87-0.28,1.26
			c-0.19,0.39-0.43,0.74-0.73,1.03c-0.3,0.29-0.65,0.53-1.04,0.71c-0.39,0.17-0.8,0.26-1.22,0.26c-0.41,0-0.8-0.09-1.19-0.26
			c-0.39-0.18-0.72-0.41-1.02-0.71c-0.29-0.29-0.53-0.64-0.7-1.03c-0.18-0.39-0.26-0.81-0.26-1.26c0-0.45,0.09-0.87,0.27-1.28
			c0.18-0.41,0.42-0.76,0.71-1.06c0.29-0.3,0.63-0.54,1.02-0.71c0.39-0.17,0.78-0.26,1.19-0.26c0.42,0,0.83,0.09,1.22,0.26
			c0.39,0.18,0.74,0.41,1.04,0.7c0.3,0.29,0.54,0.64,0.72,1.05C348.83,505.12,348.92,505.55,348.92,506.02z"/>
		<path d="M364.56,516.35c-0.15,0.22-0.3,0.38-0.44,0.47c-0.14,0.09-0.32,0.14-0.55,0.14c-0.24,0-0.48-0.07-0.74-0.21
			c-0.25-0.14-0.54-0.3-0.87-0.47c-0.33-0.18-0.71-0.33-1.13-0.47c-0.43-0.14-0.94-0.21-1.54-0.21c-1.11,0-1.95,0.25-2.54,0.75
			s-0.88,1.12-0.88,1.86c0,0.43,0.12,0.8,0.37,1.1s0.56,0.56,0.96,0.79c0.39,0.22,0.84,0.43,1.34,0.62c0.5,0.19,1.02,0.39,1.55,0.61
			s1.05,0.46,1.55,0.74c0.5,0.27,0.95,0.61,1.34,1c0.39,0.39,0.71,0.87,0.96,1.42s0.37,1.21,0.37,1.98c0,1.04-0.21,2.02-0.62,2.96
			s-1,1.76-1.77,2.47c-0.77,0.71-1.7,1.27-2.79,1.68c-1.09,0.41-2.31,0.62-3.65,0.62c-0.69,0-1.35-0.07-1.98-0.2
			c-0.64-0.13-1.24-0.32-1.8-0.56c-0.56-0.24-1.07-0.52-1.52-0.84s-0.84-0.67-1.17-1.05l1.26-1.97c0.15-0.24,0.34-0.42,0.56-0.54
			c0.22-0.13,0.47-0.19,0.77-0.19s0.56,0.09,0.8,0.27s0.52,0.38,0.84,0.6s0.71,0.42,1.17,0.6c0.45,0.18,1.04,0.27,1.75,0.27
			c0.57,0,1.08-0.08,1.52-0.23c0.44-0.15,0.81-0.36,1.11-0.63s0.53-0.57,0.68-0.92c0.15-0.35,0.23-0.72,0.23-1.11
			c0-0.48-0.12-0.87-0.36-1.19s-0.56-0.59-0.96-0.82c-0.4-0.23-0.85-0.43-1.36-0.61c-0.5-0.18-1.02-0.36-1.54-0.56
			c-0.53-0.2-1.04-0.42-1.53-0.67s-0.95-0.57-1.34-0.96c-0.4-0.38-0.72-0.85-0.96-1.41c-0.24-0.55-0.36-1.23-0.36-2.03
			c0-0.95,0.18-1.88,0.55-2.78c0.36-0.9,0.9-1.7,1.61-2.39c0.71-0.69,1.58-1.25,2.6-1.67c1.03-0.42,2.21-0.63,3.54-0.63
			c1.37,0,2.59,0.23,3.64,0.7c1.06,0.47,1.95,1.07,2.68,1.8L364.56,516.35z"/>
	</g>
	<g display="inline">
		<path fill="#FFFFFF" d="M207.66,521.82c0.1,0.38,0.2,0.76,0.29,1.15c0.17-0.39,0.35-0.78,0.55-1.15c0.2-0.38,0.41-0.75,0.63-1.11
			l10.54-17.35c0.13-0.21,0.25-0.38,0.39-0.49c0.13-0.12,0.27-0.21,0.42-0.26c0.15-0.06,0.31-0.09,0.49-0.11s0.39-0.02,0.63-0.02
			h4.14L222,532.84h-4.79l2.44-19.78c0.04-0.36,0.11-0.76,0.19-1.2c0.08-0.44,0.17-0.88,0.27-1.32l-10.44,17.35
			c-0.24,0.39-0.54,0.69-0.89,0.88c-0.36,0.2-0.75,0.29-1.17,0.29h-0.76c-0.42,0-0.79-0.1-1.1-0.29c-0.32-0.2-0.54-0.49-0.68-0.88
			l-6.26-17.28c-0.01,0.44-0.03,0.86-0.05,1.26c-0.02,0.4-0.05,0.78-0.09,1.11l-2.39,19.87h-4.81l3.74-30.37h4.09
			c0.24,0,0.45,0.01,0.63,0.02s0.34,0.05,0.48,0.11c0.14,0.06,0.26,0.14,0.36,0.26c0.1,0.12,0.19,0.28,0.27,0.49l6.28,17.35
			C207.45,521.07,207.56,521.44,207.66,521.82z"/>
		<path fill="#FFFFFF" d="M244.03,532.84h-2.73c-0.63,0-1.07-0.15-1.32-0.44c-0.25-0.29-0.38-0.66-0.38-1.11l0.17-2.94
			c-0.95,1.48-2.02,2.66-3.21,3.52c-1.19,0.86-2.5,1.29-3.93,1.29c-0.81,0-1.57-0.16-2.28-0.48s-1.32-0.8-1.85-1.44
			c-0.52-0.64-0.94-1.43-1.24-2.39c-0.3-0.96-0.45-2.08-0.45-3.37c0-1.29,0.16-2.54,0.48-3.76c0.32-1.22,0.78-2.36,1.38-3.43
			c0.59-1.07,1.31-2.05,2.15-2.95c0.84-0.9,1.78-1.67,2.82-2.31s2.17-1.14,3.38-1.5s2.49-0.54,3.83-0.54c0.97,0,1.93,0.07,2.91,0.21
			c0.97,0.14,1.93,0.39,2.87,0.76L244.03,532.84z M234.67,528.91c0.57,0,1.14-0.2,1.69-0.59c0.55-0.39,1.07-0.93,1.56-1.63
			s0.95-1.51,1.37-2.45s0.78-1.95,1.09-3.02l0.82-6.51c-0.38-0.04-0.73-0.06-1.05-0.06c-1.16,0-2.24,0.27-3.23,0.8
			c-0.99,0.53-1.86,1.25-2.58,2.15c-0.73,0.9-1.3,1.95-1.71,3.15s-0.62,2.46-0.62,3.79c0,1.51,0.24,2.62,0.71,3.32
			C233.19,528.56,233.84,528.91,234.67,528.91z"/>
		<path fill="#FFFFFF" d="M257.01,511.29l-2.58,21.55h-5.12l2.58-21.55H257.01z M258.31,505.02c0,0.45-0.09,0.87-0.28,1.26
			c-0.19,0.39-0.43,0.74-0.73,1.03c-0.3,0.29-0.65,0.53-1.04,0.71c-0.39,0.17-0.8,0.26-1.22,0.26c-0.41,0-0.8-0.09-1.19-0.26
			c-0.38-0.18-0.72-0.41-1.02-0.71c-0.29-0.29-0.53-0.64-0.7-1.03c-0.18-0.39-0.26-0.81-0.26-1.26c0-0.45,0.09-0.87,0.27-1.28
			c0.18-0.41,0.42-0.76,0.71-1.06c0.29-0.3,0.63-0.54,1.02-0.71c0.38-0.17,0.78-0.26,1.19-0.26c0.42,0,0.83,0.09,1.22,0.26
			c0.39,0.18,0.74,0.41,1.04,0.7c0.3,0.29,0.54,0.64,0.72,1.05S258.31,504.55,258.31,505.02z"/>
		<path fill="#FFFFFF" d="M259.66,532.84l2.58-21.57h2.65c0.55,0,0.97,0.13,1.27,0.4c0.3,0.27,0.45,0.69,0.45,1.28l-0.15,2.79
			c1.09-1.61,2.3-2.81,3.63-3.6s2.7-1.19,4.12-1.19c0.8,0,1.52,0.14,2.17,0.43s1.21,0.71,1.67,1.26c0.46,0.55,0.82,1.23,1.07,2.04
			s0.38,1.73,0.38,2.78c0,0.27-0.01,0.54-0.03,0.81c-0.02,0.27-0.04,0.56-0.07,0.85l-1.62,13.71h-5.19
			c0.28-2.37,0.52-4.37,0.71-6.02c0.2-1.64,0.36-3.01,0.48-4.11c0.13-1.09,0.22-1.95,0.29-2.57c0.07-0.62,0.12-1.1,0.16-1.42
			c0.04-0.32,0.06-0.54,0.06-0.64c0.01-0.1,0.01-0.19,0.01-0.26c0-0.92-0.17-1.59-0.5-2.01c-0.34-0.41-0.86-0.62-1.58-0.62
			c-0.57,0-1.17,0.17-1.79,0.5c-0.62,0.34-1.2,0.81-1.76,1.43c-0.56,0.62-1.07,1.36-1.53,2.23c-0.46,0.87-0.84,1.83-1.13,2.9
			l-1.18,10.58H259.66z"/>
		<path fill="#FFFFFF" d="M315.26,532.84h-4.22c-0.48,0-0.85-0.11-1.13-0.34c-0.28-0.22-0.46-0.53-0.53-0.9l-1.26-6.34H296.8
			l-2.81,6.34c-0.15,0.32-0.41,0.61-0.76,0.86c-0.35,0.25-0.74,0.38-1.18,0.38h-4.28l14.68-30.37h5.57L315.26,532.84z
			 M298.51,521.42h8.84l-2.06-10.4c-0.11-0.5-0.22-1.04-0.34-1.6c-0.11-0.56-0.22-1.19-0.32-1.89c-0.27,0.7-0.53,1.35-0.79,1.94
			c-0.26,0.6-0.5,1.12-0.72,1.56L298.51,521.42z"/>
		<path fill="#FFFFFF" d="M323.64,521.19l-5-9.89h4.7c0.35,0,0.6,0.05,0.76,0.15c0.15,0.1,0.29,0.27,0.4,0.51l2.96,6.43
			c0.08-0.17,0.17-0.34,0.27-0.52c0.1-0.17,0.21-0.35,0.34-0.54l3.78-5.29c0.17-0.24,0.34-0.42,0.53-0.55
			c0.18-0.13,0.39-0.19,0.63-0.19h4.7l-7.58,9.91l5.54,11.63h-4.73c-0.35,0-0.63-0.1-0.83-0.28c-0.2-0.19-0.36-0.41-0.47-0.66
			l-3.3-7.56c-0.07,0.15-0.15,0.31-0.23,0.46s-0.17,0.29-0.25,0.42l-4.79,6.68c-0.18,0.24-0.38,0.46-0.61,0.65
			c-0.22,0.2-0.5,0.29-0.82,0.29h-4.56L323.64,521.19z"/>
		<path fill="#FFFFFF" d="M346.62,511.29l-2.58,21.55h-5.12l2.58-21.55H346.62z M347.92,505.02c0,0.45-0.09,0.87-0.28,1.26
			c-0.19,0.39-0.43,0.74-0.73,1.03c-0.3,0.29-0.65,0.53-1.04,0.71c-0.39,0.17-0.8,0.26-1.22,0.26c-0.41,0-0.8-0.09-1.19-0.26
			c-0.39-0.18-0.72-0.41-1.02-0.71c-0.29-0.29-0.53-0.64-0.7-1.03c-0.18-0.39-0.26-0.81-0.26-1.26c0-0.45,0.09-0.87,0.27-1.28
			c0.18-0.41,0.42-0.76,0.71-1.06c0.29-0.3,0.63-0.54,1.02-0.71c0.39-0.17,0.78-0.26,1.19-0.26c0.42,0,0.83,0.09,1.22,0.26
			c0.39,0.18,0.74,0.41,1.04,0.7c0.3,0.29,0.54,0.64,0.72,1.05C347.83,504.12,347.92,504.55,347.92,505.02z"/>
		<path fill="#FFFFFF" d="M363.56,515.35c-0.15,0.22-0.3,0.38-0.44,0.47c-0.14,0.09-0.32,0.14-0.55,0.14
			c-0.24,0-0.48-0.07-0.74-0.21c-0.25-0.14-0.54-0.3-0.87-0.47c-0.33-0.18-0.71-0.33-1.13-0.47c-0.43-0.14-0.94-0.21-1.54-0.21
			c-1.11,0-1.95,0.25-2.54,0.75s-0.88,1.12-0.88,1.86c0,0.43,0.12,0.8,0.37,1.1s0.56,0.56,0.96,0.79c0.39,0.22,0.84,0.43,1.34,0.62
			c0.5,0.19,1.02,0.39,1.55,0.61s1.05,0.46,1.55,0.74c0.5,0.27,0.95,0.61,1.34,1c0.39,0.39,0.71,0.87,0.96,1.42s0.37,1.21,0.37,1.98
			c0,1.04-0.21,2.02-0.62,2.96s-1,1.76-1.77,2.47c-0.77,0.71-1.7,1.27-2.79,1.68c-1.09,0.41-2.31,0.62-3.65,0.62
			c-0.69,0-1.35-0.07-1.98-0.2c-0.64-0.13-1.24-0.32-1.8-0.56c-0.56-0.24-1.07-0.52-1.52-0.84s-0.84-0.67-1.17-1.05l1.26-1.97
			c0.15-0.24,0.34-0.42,0.56-0.54c0.22-0.13,0.47-0.19,0.77-0.19s0.56,0.09,0.8,0.27s0.52,0.38,0.84,0.6s0.71,0.42,1.17,0.6
			c0.45,0.18,1.04,0.27,1.75,0.27c0.57,0,1.08-0.08,1.52-0.23c0.44-0.15,0.81-0.36,1.11-0.63s0.53-0.57,0.68-0.92
			c0.15-0.35,0.23-0.72,0.23-1.11c0-0.48-0.12-0.87-0.36-1.19s-0.56-0.59-0.96-0.82c-0.4-0.23-0.85-0.43-1.36-0.61
			c-0.5-0.18-1.02-0.36-1.54-0.56c-0.53-0.2-1.04-0.42-1.53-0.67s-0.95-0.57-1.34-0.96c-0.4-0.38-0.72-0.85-0.96-1.41
			c-0.24-0.55-0.36-1.23-0.36-2.03c0-0.95,0.18-1.88,0.55-2.78c0.36-0.9,0.9-1.7,1.61-2.39c0.71-0.69,1.58-1.25,2.6-1.67
			c1.03-0.42,2.21-0.63,3.54-0.63c1.37,0,2.59,0.23,3.64,0.7c1.06,0.47,1.95,1.07,2.68,1.8L363.56,515.35z"/>
	</g>
</g>
</svg>
